<?xml version="1.0" encoding="UTF-8" standalone="no"?>
<!-- Created with Inkscape (http://www.inkscape.org/) -->

<svg
   xmlns:dc="http://purl.org/dc/elements/1.1/"
   xmlns:cc="http://creativecommons.org/ns#"
   xmlns:rdf="http://www.w3.org/1999/02/22-rdf-syntax-ns#"
   xmlns:svg="http://www.w3.org/2000/svg"
   xmlns="http://www.w3.org/2000/svg"
   xmlns:sodipodi="http://sodipodi.sourceforge.net/DTD/sodipodi-0.dtd"
   xmlns:inkscape="http://www.inkscape.org/namespaces/inkscape"
   width="800"
   height="335"
   id="svg2"
   version="1.1"
   inkscape:version="0.48.4 r9939"
   sodipodi:docname="Core_promoter_elements.svg">
  <defs
     id="defs4" />
  <sodipodi:namedview
     id="base"
     pagecolor="#ffffff"
     bordercolor="#666666"
     borderopacity="1.0"
     inkscape:pageopacity="0.0"
     inkscape:pageshadow="2"
     inkscape:zoom="1.15"
     inkscape:cx="399.95646"
     inkscape:cy="167.24751"
     inkscape:document-units="px"
     inkscape:current-layer="layer1"
     showgrid="false"
     fit-margin-top="0"
     fit-margin-left="0"
     fit-margin-right="0"
     fit-margin-bottom="0"
     inkscape:window-width="1280"
     inkscape:window-height="750"
     inkscape:window-x="-8"
     inkscape:window-y="-8"
     inkscape:window-maximized="1" />
  <metadata
     id="metadata7">
    <rdf:RDF>
      <cc:Work
         rdf:about="">
        <dc:format>image/svg+xml</dc:format>
        <dc:type
           rdf:resource="http://purl.org/dc/dcmitype/StillImage" />
        <dc:title></dc:title>
      </cc:Work>
    </rdf:RDF>
  </metadata>
  <g
     inkscape:groupmode="layer"
     id="layer2"
     inkscape:label="text"
     transform="translate(618.13168,118.64906)" />
  <g
     inkscape:label="image"
     inkscape:groupmode="layer"
     id="layer1"
     transform="translate(719.2344,-219.82656)">
    <path
       inkscape:connector-curvature="0"
       style="fill:#ffffff;fill-rule:evenodd;stroke:none"
       d="m -719.2344,219.82656 800,0 0,335 -800,0 0,-335 z"
       id="path3192" />
    <path
       inkscape:connector-curvature="0"
       style="fill:none;stroke:#000000;stroke-width:3.18566537"
       d="m 77.462948,341.34459 -156.100335,0 m -8.553614,0 -14.795259,0 m -8.54924,0 -14.79775,0 m -8.54925,0 -14.79775,0 m -8.54924,0 -166.30161,0 m -8.54925,0 -14.79775,0 m -8.54987,0 -14.79712,0 m -8.54987,0 -14.79713,0 m -8.54987,0 -315.56314,0"
       id="path3194" />
    <path
       inkscape:connector-curvature="0"
       style="fill:#fcdfe9;fill-rule:evenodd;stroke:#000000;stroke-width:3.18566537"
       d="m -547.88054,322.77762 125.89859,0 0,37.1333 -125.89859,0 0,-37.1333 z"
       id="path3196" />
    <path
       inkscape:connector-curvature="0"
       style="fill:#d9eaf8;fill-rule:evenodd;stroke:#000000;stroke-width:3.18566537"
       d="m -60.462518,322.77762 112.214675,0 0,37.1333 -112.214675,0 0,-37.1333 z"
       id="path3198" />
    <path
       inkscape:connector-curvature="0"
       style="fill:#ffffd2;fill-rule:evenodd;stroke:#000000;stroke-width:3.18566537"
       d="m -303.02054,322.77762 125.6938,0 0,37.1333 -125.6938,0 0,-37.1333 z"
       id="path3200" />
    <path
       inkscape:connector-curvature="0"
       style="fill:#d2e8b8;fill-rule:evenodd;stroke:#000000;stroke-width:3.18566537"
       d="m -692.04596,322.77762 144.16605,0 0,37.1333 -144.16605,0 0,-37.1333 z"
       id="path3202" />
    <path
       inkscape:connector-curvature="0"
       style="fill:none;stroke:#000000;stroke-width:3.18566537"
       d="m -202.56552,284.91071 -40.41364,0 0,37.86691"
       id="path3204" />
    <path
       inkscape:connector-curvature="0"
       style="fill:#000000;fill-rule:evenodd;stroke:none"
       d="m -189.1351,284.91071 c -7.85746,2.52363 -17.27018,7.46225 -22.21255,12.09681 1.3742,-4.03206 2.89512,-8.06475 4.74133,-12.09681 -1.94423,-3.94153 -3.42644,-7.99856 -4.74133,-12.09681 4.94237,4.63456 14.35509,9.57318 22.21255,12.09681 z"
       id="path3206" />
    <path
       inkscape:connector-curvature="0"
       style="fill:#000000;fill-rule:evenodd;stroke:none"
       d="m -641.19672,334.20013 4.55652,0 c 2.79022,0 3.83976,0.99834 3.83976,2.71343 0,2.27826 -1.45911,2.99502 -3.86536,2.99502 l -4.53092,0 0,-5.70845 z m -2.50864,16.43418 7.9867,0 c 4.12134,0 6.32281,-2.50864 6.32281,-5.50366 0,-3.1742 -2.15027,-4.01895 -3.37899,-4.50532 2.04787,-0.97274 2.48304,-2.66223 2.48304,-3.89096 0,-2.53424 -1.76629,-4.6845 -5.24767,-4.6845 l -8.16589,0 0,18.58444 z m 2.50864,-8.67786 4.94049,0 c 2.04788,0 4.35173,0.51197 4.35173,3.12301 0,2.07347 -1.33112,3.40458 -3.94215,3.40458 l -5.35007,0 0,-6.52759 z m 17.35572,0.71676 6.06682,0 c 3.02061,0 3.3278,1.76629 3.3278,3.30219 0,0.69116 0.0768,3.50698 0.43517,4.65891 l 3.07181,0 0,-0.43517 c -0.76795,-0.43518 -0.99834,-0.81915 -0.99834,-1.84309 l 0,-3.37899 c 0,-2.61104 -1.45911,-2.91822 -2.30386,-3.48138 1.17753,-0.69116 2.58544,-1.71509 2.58544,-4.45412 0,-3.91656 -3.07181,-4.99169 -6.11802,-4.99169 l -8.57546,0 0,18.58444 2.50864,0 0,-7.9611 z m 0,-8.47308 6.27161,0 c 1.25432,0 3.32779,0.23039 3.32779,3.09741 0,2.73903 -1.94548,3.2254 -3.78856,3.2254 l -5.81084,0 0,-6.32281 z m 29.51496,14.20712 -11.2121,0 0,-6.4508 10.16257,0 0,-2.22706 -10.16257,0 0,-5.45246 11.03291,0 0,-2.22706 -13.54155,0 0,18.58444 13.72074,0 0,-2.22706 z"
       id="path3208" />
    <path
       inkscape:connector-curvature="0"
       style="fill:#000000;fill-rule:evenodd;stroke:none"
       d="m -506.35742,334.27693 6.2972,0 0,-2.22706 -15.10306,0 0,2.22706 6.29721,0 0,16.35738 2.50865,0 0,-16.35738 z m 17.43251,10.93052 1.84309,5.42686 2.73903,0 -6.70679,-18.58444 -2.84142,0 -6.98836,18.58444 2.58544,0 1.94547,-5.42686 7.42354,0 z m -6.65558,-2.20147 2.96941,-8.19149 0.0512,0 2.73903,8.19149 -5.75964,0 z m 19.2244,-8.72905 6.29721,0 0,-2.22706 -15.10306,0 0,2.22706 6.29721,0 0,16.35738 2.50864,0 0,-16.35738 z m 17.43252,10.93052 1.84308,5.42686 2.73903,0 -6.70678,-18.58444 -2.84143,0 -6.98836,18.58444 2.58544,0 1.94548,-5.42686 7.42354,0 z m -6.65559,-2.20147 2.96941,-8.19149 0.0512,0 2.73903,8.19149 -5.75964,0 z"
       id="path3210" />
    <path
       inkscape:connector-curvature="0"
       style="fill:#661336;fill-rule:evenodd;stroke:none"
       d="m -523.67194,492.6986 5.68285,0 0,-2.00979 -13.62959,0 0,2.00979 5.68285,0 0,14.76154 2.26389,0 0,-14.76154 z m 16.70203,9.86413 1.66327,4.89741 2.47181,0 -6.05246,-16.77133 -2.56422,0 -6.30657,16.77133 2.3332,0 1.75568,-4.89741 6.69929,0 z m -6.00626,-1.98669 2.67971,-7.39232 0.0462,0 2.4718,7.39232 -5.19772,0 z m 18.31909,-7.87744 5.68285,0 0,-2.00979 -13.62959,0 0,2.00979 5.68284,0 0,14.76154 2.2639,0 0,-14.76154 z m 16.70203,9.86413 1.66327,4.89741 2.47181,0 -6.05247,-16.77133 -2.56421,0 -6.30657,16.77133 2.3332,0 1.75568,-4.89741 6.69929,0 z m -6.00626,-1.98669 2.67971,-7.39232 0.0462,0 2.47181,7.39232 -5.19772,0 z m 22.54657,1.98669 1.66328,4.89741 2.4718,0 -6.05246,-16.77133 -2.56359,0 -6.30719,16.77133 2.3332,0 1.75567,-4.89741 6.69929,0 z m -6.00626,-1.98669 2.67972,-7.39232 0.0462,0 2.47181,7.39232 -5.19773,0 z m 22.54658,1.98669 1.66327,4.89741 2.47181,0 -6.05246,-16.77133 -2.56359,0 -6.3072,16.77133 2.33383,0 1.75505,-4.89741 6.69929,0 z m -6.00564,-1.98669 2.6791,-7.39232 0.0462,0 2.4718,7.39232 -5.1971,0 z"
       id="path3212" />
    <path
       inkscape:connector-curvature="0"
       style="fill:#006633;fill-rule:evenodd;stroke:none"
       d="m -643.86957,385.21027 5.52926,0 0,-1.95547 -13.26123,0 0,1.95547 5.52926,0 0,14.36257 2.20271,0 0,-14.36257 z m 7.86246,-1.95547 0,16.31804 2.20271,0 0,-7.61958 7.97921,0 0,-1.95547 -7.97921,0 0,-4.78752 9.05809,0 0,-1.95547 -11.2608,0 z m 16.15634,0 -2.20271,0 0,16.31804 2.20271,0 0,-16.31804 z m 5.90699,0 -2.20271,0 0,16.31804 2.20271,0 0,-16.31804 z m 5.90699,1.88804 4.00022,0 c 2.45058,0 3.37212,0.87658 3.37212,2.38252 0,2.00042 -1.28117,2.62977 -3.39398,2.62977 l -3.97836,0 0,-5.01229 z m -2.20271,14.43 7.01271,0 c 3.61874,0 5.55173,-2.20271 5.55173,-4.83248 0,-2.7871 -1.88804,-3.52883 -2.96692,-3.95589 1.79814,-0.85411 2.18024,-2.33757 2.18024,-3.41645 0,-2.22518 -1.55151,-4.11322 -4.60771,-4.11322 l -7.17005,0 0,16.31804 z m 2.20271,-7.61958 4.33799,0 c 1.79751,0 3.82103,0.44953 3.82103,2.74215 0,1.82061 -1.16878,2.9894 -3.46203,2.9894 l -4.69699,0 0,-5.73155 z m -73.87257,23.00111 5.32696,0 c 2.65225,0 2.92197,1.55088 2.92197,2.89948 0,0.60687 0.0674,3.0793 0.3821,4.09075 l 2.6972,0 0,-0.3821 c -0.6743,-0.3821 -0.87659,-0.71925 -0.87659,-1.61832 l 0,-2.96692 c 0,-2.29261 -1.28117,-2.56233 -2.0229,-3.05682 1.03393,-0.60687 2.27014,-1.50594 2.27014,-3.91094 0,-3.43892 -2.6972,-4.38294 -5.37192,-4.38294 l -7.52967,0 0,16.31804 2.20271,0 0,-6.99023 z m 0,-7.43978 5.50678,0 c 1.10135,0 2.92196,0.20229 2.92196,2.71968 0,2.405 -1.70822,2.83206 -3.32654,2.83206 l -5.1022,0 0,-5.55174 z m 22.02268,10.69889 c 0,0.87659 -1.19126,2.33757 -3.05682,2.33757 -2.29262,0 -3.43893,-1.4385 -3.43893,-3.88846 l 8.65351,0 c 0,-4.20313 -1.68575,-6.94528 -5.1022,-6.94528 -3.93341,0 -5.68659,2.89948 -5.68659,6.60813 0,3.43893 1.95547,5.96006 5.28201,5.96006 3.66369,0 4.89991,-2.22893 5.34944,-4.07202 l -2.00042,0 z m -6.49575,-3.14673 c 0,-1.84309 1.43851,-3.55131 3.25911,-3.55131 2.44996,0 3.23664,1.70822 3.34902,3.55131 l -6.60813,0 z m 20.78653,-1.01145 c -0.15734,-2.06785 -1.32612,-4.33799 -4.45038,-4.33799 -3.91093,0 -5.68659,2.94444 -5.68659,6.60813 0,3.43893 1.97795,5.96006 5.30449,5.96006 3.48388,0 4.63019,-2.65599 4.83248,-4.54403 l -1.93299,0 c -0.33715,1.82061 -1.48346,2.80958 -2.83206,2.80958 -2.74215,0 -3.23664,-2.51738 -3.23664,-4.56276 0,-2.1128 0.78669,-4.47285 3.25912,-4.47285 1.68575,0 2.56234,0.94402 2.80958,2.53986 l 1.93299,0 z m 1.70386,1.93299 c 0,3.05683 1.70822,6.29721 5.50677,6.29721 3.79856,0 5.50678,-3.24038 5.50678,-6.29721 0,-3.05682 -1.70822,-6.27098 -5.50678,-6.27098 -3.79855,0 -5.50677,3.21416 -5.50677,6.27098 z m 2.04537,0 c 0,-1.59584 0.60687,-4.54028 3.4614,-4.54028 2.85454,0 3.46141,2.94444 3.46141,4.54028 0,1.59584 -0.60687,4.56276 -3.46141,4.56276 -2.85453,0 -3.4614,-2.96692 -3.4614,-4.56276 z m 16.26872,-4.47285 c 2.87702,0 3.07931,3.05682 3.07931,5.01229 0,3.16921 -1.88804,4.02332 -3.14674,4.02332 -2.18023,0 -3.19168,-2.00042 -3.19168,-4.58524 0,-1.55088 0.15734,-4.45037 3.25911,-4.45037 z m 3.21417,-1.46098 0,1.68574 c -0.5844,-0.87658 -1.52842,-2.02289 -3.57379,-2.02289 -3.16921,0 -4.94486,2.53986 -4.94486,5.93383 0,2.83206 1.1463,6.63436 5.16962,6.63436 1.59585,0 2.65225,-0.76795 3.21417,-1.6895 0,2.09408 -0.0899,4.67889 -3.3715,4.67889 -0.47201,0 -2.3151,-0.15733 -2.67472,-1.88803 l -2.00043,0 c 0.38211,3.1692 3.10178,3.55131 4.51781,3.55131 5.4843,0 5.52926,-4.27057 5.52926,-5.98254 l 0,-10.90117 -1.86556,0 z m 5.16525,0 0,11.89014 2.00043,0 0,-6.47327 c 0,-3.23664 2.00042,-3.95589 3.12425,-3.95589 1.95547,0 2.53986,1.0564 2.53986,3.10178 l 0,7.32738 2.00042,0 0,-8.09159 c 0,-3.3715 -2.31509,-4.1357 -4.15818,-4.1357 -2.04537,0 -3.14673,1.39355 -3.57378,2.02289 l -0.0674,0 0,-1.68574 -1.86557,0 z m 14.96508,0 -2.00042,0 0,11.89014 2.00042,0 0,-11.89014 z m 0,-2.15776 0,-2.27014 -2.00042,0 0,2.27014 2.00042,0 z m 3.77171,-1.12384 0,3.2816 -1.59584,0 0,1.66327 1.59584,0 0,7.8406 c 0,1.44225 0.42643,2.56983 2.40438,2.56983 0.20291,0 0.89969,-0.0674 1.48408,-0.18356 l 0,-1.55089 -0.69678,0 c -0.4052,0 -1.19126,-0.0674 -1.19126,-0.94776 l 0,-7.72822 1.91052,0 0,-1.66327 -1.91052,0 0,-3.2816 -2.00042,0 z m 8.22146,3.2816 -2.00042,0 0,11.89014 2.00042,0 0,-11.89014 z m 0,-2.15776 0,-2.27014 -2.00042,0 0,2.27014 2.00042,0 z m 2.64787,8.09159 c 0,3.05683 1.70823,6.29721 5.50678,6.29721 3.79856,0 5.50678,-3.24038 5.50678,-6.29721 0,-3.05682 -1.70822,-6.27098 -5.50678,-6.27098 -3.79855,0 -5.50678,3.21416 -5.50678,6.27098 z m 2.04538,0 c 0,-1.59584 0.60687,-4.54028 3.4614,-4.54028 2.85454,0 3.46141,2.94444 3.46141,4.54028 0,1.59584 -0.60687,4.56276 -3.46141,4.56276 -2.85453,0 -3.4614,-2.96692 -3.4614,-4.56276 z m 11.61606,-5.93383 0,11.89014 2.00042,0 0,-6.47327 c 0,-3.23664 2.00042,-3.95589 3.12425,-3.95589 1.95547,0 2.53986,1.0564 2.53986,3.10178 l 0,7.32738 2.00043,0 0,-8.09159 c 0,-3.3715 -2.3151,-4.1357 -4.15818,-4.1357 -2.04538,0 -3.14674,1.39355 -3.57379,2.02289 l -0.0674,0 0,-1.68574 -1.86556,0 z m -78.98108,32.30706 -9.84471,0 0,-5.66412 8.92317,0 0,-1.95547 -8.92317,0 0,-4.78752 9.68737,0 0,-1.95547 -11.89008,0 0,16.31805 12.04742,0 0,-1.95547 z m 4.98545,-14.36258 -2.00043,0 0,16.31805 2.00043,0 0,-16.31805 z m 11.2789,12.58692 c 0,0.87659 -1.19126,2.33757 -3.05682,2.33757 -2.29262,0 -3.43893,-1.43913 -3.43893,-3.88846 l 8.65351,0 c 0,-4.20313 -1.68575,-6.94528 -5.1022,-6.94528 -3.93341,0 -5.68659,2.89949 -5.68659,6.60813 0,3.43893 1.95547,5.95944 5.28201,5.95944 3.6637,0 4.89991,-2.22831 5.34945,-4.0714 l -2.00043,0 z m -6.49575,-3.14673 c 0,-1.84308 1.43851,-3.55131 3.25912,-3.55131 2.44995,0 3.23663,1.70823 3.34902,3.55131 l -6.60814,0 z m 11.30139,-5.01229 0,11.89015 2.00042,0 0,-6.51823 c 0,-3.23664 1.97794,-3.91094 3.10178,-3.91094 1.48346,0 1.88804,1.21312 1.88804,2.20271 l 0,8.22646 2.00042,0 0,-7.25996 c 0,-1.57337 1.07888,-3.16921 2.76463,-3.16921 1.70822,0 2.22518,1.12383 2.22518,2.74153 l 0,7.68764 2.00043,0 0,-8.22646 c 0,-3.32654 -2.42748,-4.00084 -3.70865,-4.00084 -1.82061,0 -2.60729,0.83164 -3.61874,1.93299 -0.31468,-0.62934 -1.03393,-1.93299 -3.14673,-1.93299 -2.13529,0 -3.16921,1.39355 -3.59627,2.0229 l -0.0449,0 0,-1.68575 -1.86556,0 z m 27.2598,8.15902 c 0,0.87659 -1.19126,2.33757 -3.05682,2.33757 -2.29262,0 -3.43893,-1.43913 -3.43893,-3.88846 l 8.65351,0 c 0,-4.20313 -1.68575,-6.94528 -5.1022,-6.94528 -3.93341,0 -5.68659,2.89949 -5.68659,6.60813 0,3.43893 1.95547,5.95944 5.28201,5.95944 3.6637,0 4.89991,-2.22831 5.34945,-4.0714 l -2.00043,0 z m -6.49575,-3.14673 c 0,-1.84308 1.43851,-3.55131 3.25912,-3.55131 2.44995,0 3.23663,1.70823 3.34902,3.55131 l -6.60814,0 z m 11.30139,-5.01229 0,11.89015 2.00042,0 0,-6.47328 c 0,-3.23664 2.00042,-3.95589 3.12425,-3.95589 1.95547,0 2.53986,1.0564 2.53986,3.10178 l 0,7.32739 2.00043,0 0,-8.0916 c 0,-3.37149 -2.3151,-4.1357 -4.15818,-4.1357 -2.04538,0 -3.14674,1.39355 -3.57379,2.0229 l -0.0674,0 0,-1.68575 -1.86556,0 z m 13.43666,-3.28159 0,3.28159 -1.59584,0 0,1.66265 1.59584,0 0,7.84123 c 0,1.44225 0.42706,2.5692 2.405,2.5692 0.20229,0 0.89907,-0.0674 1.48346,-0.18293 l 0,-1.55152 -0.69677,0 c -0.40458,0 -1.19127,-0.0668 -1.19127,-0.94714 l 0,-7.72884 1.91052,0 0,-1.66265 -1.91052,0 0,-3.28159 -2.00042,0 z"
       id="path3214" />
    <path
       inkscape:connector-curvature="0"
       style="fill:#006633;fill-rule:evenodd;stroke:none"
       d="m -667.3666,507.58314 c -0.32353,-2.81832 -2.56427,-5.49804 -6.88422,-5.49804 -4.87425,0 -7.80807,3.58065 -7.80807,8.73155 0,6.44581 3.71926,8.92136 7.53092,8.92136 1.27056,0 6.39892,-0.27721 7.32296,-6.61063 l -2.1946,0 c -0.76227,3.90407 -3.30332,4.5971 -4.78184,4.5971 -4.15818,0 -5.54431,-3.02623 -5.54431,-6.97651 0,-4.41229 2.44871,-6.65308 5.47494,-6.65308 1.61707,0 4.06578,0.53132 4.68944,3.48825 l 2.19478,0 z m -6.96513,-19.38611 5.22095,0 c 0,1.77815 -0.36968,3.28034 -1.82505,4.43539 -1.24751,0.99334 -2.61047,1.08575 -3.44211,1.08575 -4.45849,0 -5.56728,-3.51136 -5.56728,-6.90783 0,-4.38856 2.47187,-6.79107 5.47494,-6.79107 1.84802,0 4.29673,0.60063 5.01298,3.53446 l 2.1946,0 c -0.48512,-3.76547 -3.97344,-5.54487 -7.09201,-5.54487 -5.4519,0 -7.92364,4.59772 -7.92364,8.68598 0,4.01957 1.89422,8.96756 7.76187,8.96756 2.28694,0 4.38913,-1.04329 5.52114,-2.61416 l 0.55442,2.17087 1.45537,0 0,-8.96319 -7.34618,0 0,1.94111 z m 26.2378,19.38611 c -0.32341,-2.81832 -2.56421,-5.49804 -6.8841,-5.49804 -4.87431,0 -7.80814,3.58065 -7.80814,8.73155 0,6.44581 3.71926,8.92136 7.53093,8.92136 1.27056,0 6.39898,-0.27721 7.32302,-6.61063 l -2.1946,0 c -0.76233,3.90407 -3.30344,4.5971 -4.7819,4.5971 -4.15819,0 -5.54431,-3.02623 -5.54431,-6.97651 0,-4.41229 2.44877,-6.65308 5.475,-6.65308 1.61707,0 4.06578,0.53132 4.68951,3.48825 l 2.19459,0 z m -6.96526,-19.38611 5.22145,0 c 0,1.77815 -0.37024,3.28034 -1.82561,4.43539 -1.24745,0.99334 -2.61041,1.08575 -3.44205,1.08575 -4.4583,0 -5.56709,-3.51136 -5.56709,-6.90783 0,-4.38856 2.47193,-6.79107 5.47469,-6.79107 1.84808,0 4.29679,0.60063 5.01354,3.53446 l 2.1946,0 c -0.48512,-3.76547 -3.974,-5.54487 -7.09201,-5.54487 -5.45221,0 -7.92396,4.59772 -7.92396,8.68598 0,4.01957 1.89429,8.96756 7.76163,8.96756 2.287,0 4.38919,-1.04329 5.52114,-2.61416 l 0.55442,2.17087 1.45536,0 0,-8.96319 -7.34611,0 0,1.94111 z m 19.2731,0 5.22083,0 c 0,1.77815 -0.36962,3.28034 -1.82498,4.43539 -1.24746,0.99334 -2.61042,1.08575 -3.44205,1.08575 -4.4585,0 -5.56734,-3.51136 -5.56734,-6.90783 0,-4.38856 2.4718,-6.79107 5.47493,-6.79107 1.84808,0 4.29679,0.60063 5.01292,3.53446 l 2.1946,0 c -0.48513,-3.76547 -3.97338,-5.54487 -7.09201,-5.54487 -5.45184,0 -7.92365,4.59772 -7.92365,8.68598 0,4.01957 1.89429,8.96756 7.76194,8.96756 2.287,0 4.38919,-1.04329 5.52114,-2.61416 l 0.55442,2.17087 1.45537,0 0,-8.96319 -7.34612,0 0,1.94111 z m 2.66848,26.30704 1.66327,4.89742 2.47118,0 -6.05184,-16.77133 -2.56421,0 -6.30719,16.77133 2.33382,0 1.75568,-4.89742 6.69929,0 z m -6.00626,-1.98668 2.67971,-7.39232 0.0462,0 2.47118,7.39232 -5.1971,0 z m 29.46314,-15.86914 c -0.32342,-2.81832 -2.56421,-5.49804 -6.8841,-5.49804 -4.87431,0 -7.80814,3.58065 -7.80814,8.73218 0,6.44518 3.71926,8.92135 7.53093,8.92135 1.27055,0 6.39898,-0.27721 7.32302,-6.61125 l -2.1946,0 c -0.76233,3.90407 -3.30344,4.5971 -4.78191,4.5971 -4.15818,0 -5.54424,-3.02623 -5.54424,-6.97651 0,-4.41229 2.44871,-6.65308 5.47494,-6.65308 1.61707,0 4.06578,0.53132 4.6895,3.48825 l 2.1946,0 z m 11.08848,4.6895 5.22083,0 c 0,1.77878 -0.36962,3.28034 -1.82498,4.43539 -1.24746,0.99335 -2.61042,1.08575 -3.44205,1.08575 -4.4585,0 -5.56734,-3.51135 -5.56734,-6.9072 0,-4.38919 2.4718,-6.79169 5.47493,-6.79169 1.84808,0 4.29679,0.60062 5.01292,3.53445 l 2.1946,0 c -0.48512,-3.76546 -3.97338,-5.54424 -7.09201,-5.54424 -5.45184,0 -7.92364,4.5971 -7.92364,8.68598 0,4.01957 1.89428,8.96755 7.76193,8.96755 2.287,0 4.38919,-1.04391 5.52114,-2.61478 l 0.55442,2.1715 1.45537,0 0,-8.96319 -7.34612,0 0,1.94048 z m 25.75762,-4.6895 c -0.32342,-2.81832 -2.56421,-5.49804 -6.8841,-5.49804 -4.87431,0 -7.80814,3.58065 -7.80814,8.73218 0,6.44518 3.71926,8.92135 7.53093,8.92135 1.27055,0 6.39897,-0.27721 7.32301,-6.61125 l -2.19459,0 c -0.76233,3.90407 -3.30345,4.5971 -4.78191,4.5971 -4.15818,0 -5.54424,-3.02623 -5.54424,-6.97651 0,-4.41229 2.44871,-6.65308 5.47494,-6.65308 1.61707,0 4.06577,0.53132 4.6895,3.48825 l 2.1946,0 z m 17.83397,0 c -0.32404,-2.81832 -2.56421,-5.49804 -6.88472,-5.49804 -4.87369,0 -7.80752,3.58065 -7.80752,8.73218 0,6.44518 3.71926,8.92135 7.53093,8.92135 1.27055,0 6.39835,-0.27721 7.32239,-6.61125 l -2.19459,0 c -0.76171,3.90407 -3.30282,4.5971 -4.78129,4.5971 -4.15818,0 -5.54486,-3.02623 -5.54486,-6.97651 0,-4.41229 2.44871,-6.65308 5.47494,-6.65308 1.61707,0 4.06577,0.53132 4.6895,3.48825 l 2.19522,0 z"
       id="path3216" />
    <path
       inkscape:connector-curvature="0"
       style="fill:#006633;fill-rule:evenodd;stroke:none"
       d="m -676.14366,231.05354 c -0.51697,0.80916 -1.10136,1.61832 -2.00043,1.61832 -0.74173,0 -3.55131,-1.61832 -4.83248,-1.61832 -1.52841,0 -2.33757,1.10135 -2.83205,2.04537 l 0.80915,1.28117 c 0.35963,-0.80916 0.89907,-1.64079 1.91052,-1.64079 2.0229,0 3.16921,1.61831 4.92239,1.61831 1.21374,0 2.15775,-0.94402 2.83205,-2.02289 l -0.80915,-1.28117 z m 9.39523,0.85411 -5.55173,0 0,1.64079 5.55173,0 0,-1.64079 z m 6.72052,-0.83164 c 2.83206,0 4.65279,0.47201 4.65279,2.92197 0,1.84308 -1.43863,3.10178 -3.484,3.10178 -2.96692,0 -3.34902,-2.0229 -3.41645,-3.52884 l -2.04538,0 c 0,3.14673 1.91052,5.33071 5.32697,5.33071 4.0684,0 5.73167,-2.5436 5.73167,-5.1509 0,-2.13528 -1.10136,-3.21416 -2.65225,-3.70864 l 0,-0.045 c 0.87659,-0.26972 2.04538,-1.25869 2.04538,-3.30406 0,-2.42748 -1.84309,-4.20314 -4.92251,-4.20314 -4.20313,0 -5.14715,2.89949 -5.14715,5.23706 l 1.95546,0 c 0.0899,-1.55089 0.5844,-3.43893 3.10178,-3.43893 2.38265,0 2.94457,1.57337 2.94457,2.51739 0,2.51738 -2.06798,2.60729 -4.09088,2.60729 l 0,1.66327 z m 9.03574,-6.27098 8.76589,0 c -3.05682,3.57379 -5.95631,9.30533 -6.49575,13.6658 l 2.20271,0 c 1.14631,-7.1251 4.96734,-12.20482 6.54071,-13.86809 l 0,-1.75318 -11.01356,0 0,1.95547 z m 20.00422,-1.50594 0,3.28159 -1.59584,0 0,1.66328 1.59584,0 0,7.8406 c 0,1.44225 0.42706,2.56983 2.405,2.56983 0.20229,0 0.89907,-0.0674 1.48346,-0.18356 l 0,-1.55089 -0.69678,0 c -0.40458,0 -1.19126,-0.0674 -1.19126,-0.94776 l 0,-7.72822 1.91052,0 0,-1.66328 -1.91052,0 0,-3.28159 -2.00042,0 z m 5.82145,9.21543 c 0,3.05682 1.70823,6.29721 5.50678,6.29721 3.79856,0 5.50678,-3.24039 5.50678,-6.29721 0,-3.05683 -1.70822,-6.27099 -5.50678,-6.27099 -3.79855,0 -5.50678,3.21416 -5.50678,6.27099 z m 2.04538,0 c 0,-1.59584 0.60687,-4.54028 3.4614,-4.54028 2.85454,0 3.46141,2.94444 3.46141,4.54028 0,1.59584 -0.60687,4.56276 -3.46141,4.56276 -2.85453,0 -3.4614,-2.96692 -3.4614,-4.56276 z m 22.63398,-0.60687 -5.55173,0 0,1.64079 5.55173,0 0,-1.64079 z m 6.72052,-0.83164 c 2.83206,0 4.65267,0.47201 4.65267,2.92197 0,1.84308 -1.43851,3.10178 -3.48388,3.10178 -2.96692,0 -3.34902,-2.0229 -3.41645,-3.52884 l -2.04538,0 c 0,3.14673 1.91052,5.33071 5.32697,5.33071 4.06827,0 5.73154,-2.5436 5.73154,-5.1509 0,-2.13528 -1.10135,-3.21416 -2.65224,-3.70864 l 0,-0.045 c 0.87659,-0.26972 2.04537,-1.25869 2.04537,-3.30406 0,-2.42748 -1.84308,-4.20314 -4.92238,-4.20314 -4.20314,0 -5.14715,2.89949 -5.14715,5.23706 l 1.95546,0 c 0.0899,-1.55089 0.5844,-3.43893 3.10178,-3.43893 2.38253,0 2.94444,1.57337 2.94444,2.51739 0,2.51738 -2.06785,2.60729 -4.09075,2.60729 l 0,1.66327 z m 11.19337,-2.85453 c 0.0674,-1.10136 0.20229,-3.93342 3.21416,-3.93342 2.33758,0 3.14674,1.61832 3.14674,2.89949 0,2.06785 -1.32613,2.92197 -3.39398,3.97837 -4.27056,2.20271 -5.16963,3.95589 -5.37192,7.30491 l 10.90118,0 0,-1.88804 -8.65351,0 c 0.0899,-0.62934 0.87659,-2.06785 3.03435,-3.23664 3.91093,-2.1128 5.61916,-3.21416 5.61916,-6.06869 0,-2.9894 -2.22519,-4.78753 -4.98982,-4.78753 -1.7307,0 -5.50678,0.53944 -5.50678,5.73155 l 2.00042,0 z"
       id="path3218" />
    <path
       inkscape:connector-curvature="0"
       style="fill:#661336;fill-rule:evenodd;stroke:none"
       d="m -535.35355,231.05354 c -0.51696,0.80916 -1.10136,1.61832 -2.00042,1.61832 -0.74173,0 -3.55131,-1.61832 -4.83248,-1.61832 -1.52841,0 -2.33757,1.10135 -2.83206,2.04537 l 0.80916,1.28117 c 0.35963,-0.80916 0.89907,-1.64079 1.91051,-1.64079 2.0229,0 3.16921,1.61831 4.92239,1.61831 1.21374,0 2.15776,-0.94402 2.83206,-2.02289 l -0.80916,-1.28117 z m 9.39524,0.85411 -5.55173,0 0,1.64079 5.55173,0 0,-1.64079 z m 6.72052,-0.83164 c 2.83206,0 4.65266,0.47201 4.65266,2.92197 0,1.84308 -1.4385,3.10178 -3.48388,3.10178 -2.96691,0 -3.34902,-2.0229 -3.41645,-3.52884 l -2.04537,0 c 0,3.14673 1.91051,5.33071 5.32696,5.33071 4.06828,0 5.73155,-2.5436 5.73155,-5.1509 0,-2.13528 -1.10136,-3.21416 -2.65225,-3.70864 l 0,-0.045 c 0.87659,-0.26972 2.04538,-1.25869 2.04538,-3.30406 0,-2.42748 -1.84309,-4.20314 -4.92239,-4.20314 -4.20313,0 -5.14715,2.89949 -5.14715,5.23706 l 1.95547,0 c 0.0899,-1.55089 0.58439,-3.43893 3.10178,-3.43893 2.38252,0 2.94444,1.57337 2.94444,2.51739 0,2.51738 -2.06785,2.60729 -4.09075,2.60729 l 0,1.66327 z m 16.31805,-8.58608 -1.55089,0 c -0.65183,2.62977 -1.70823,2.87701 -4.29304,3.05683 l 0,1.59584 3.70864,0 0,11.32823 2.13529,0 0,-15.9809 z m 12.72178,0.80916 0,3.28159 -1.59584,0 0,1.66328 1.59584,0 0,7.8406 c 0,1.44225 0.42706,2.56983 2.405,2.56983 0.20229,0 0.89907,-0.0674 1.48346,-0.18356 l 0,-1.55089 -0.69678,0 c -0.40458,0 -1.19126,-0.0674 -1.19126,-0.94776 l 0,-7.72822 1.91052,0 0,-1.66328 -1.91052,0 0,-3.28159 -2.00042,0 z m 5.82145,9.21543 c 0,3.05682 1.70823,6.29721 5.50678,6.29721 3.79856,0 5.50678,-3.24039 5.50678,-6.29721 0,-3.05683 -1.70822,-6.27099 -5.50678,-6.27099 -3.79855,0 -5.50678,3.21416 -5.50678,6.27099 z m 2.04538,0 c 0,-1.59584 0.60687,-4.54028 3.4614,-4.54028 2.85454,0 3.46141,2.94444 3.46141,4.54028 0,1.59584 -0.60687,4.56276 -3.46141,4.56276 -2.85453,0 -3.4614,-2.96692 -3.4614,-4.56276 z m 22.63398,-0.60687 -5.55173,0 0,1.64079 5.55173,0 0,-1.64079 z m 4.65267,-3.68617 c 0.0674,-1.10136 0.20229,-3.93342 3.21416,-3.93342 2.33757,0 3.14673,1.61832 3.14673,2.89949 0,2.06785 -1.32612,2.92197 -3.39397,3.97837 -4.27057,2.20271 -5.16963,3.95589 -5.37192,7.30491 l 10.90117,0 0,-1.88804 -8.65351,0 c 0.0899,-0.62934 0.87659,-2.06785 3.03435,-3.23664 3.91094,-2.1128 5.61916,-3.21416 5.61916,-6.06869 0,-2.9894 -2.22518,-4.78753 -4.98981,-4.78753 -1.7307,0 -5.50678,0.53944 -5.50678,5.73155 l 2.00042,0 z m 21.66749,-1.48346 c -0.20229,-3.23664 -2.80958,-4.24809 -4.65267,-4.24809 -4.76505,0 -5.88888,5.05725 -5.88888,8.54113 0,4.36047 1.59584,7.87057 5.32697,7.87057 3.70865,0 5.55173,-2.61103 5.55173,-5.55548 0,-3.82103 -3.03435,-5.05724 -4.98982,-5.05724 -2.18023,0 -3.28159,1.07888 -3.77607,1.95547 l -0.045,-0.045 c 0,-1.68574 0.65183,-5.91136 3.77608,-5.91136 1.7307,0 2.49491,1.05641 2.74215,2.44996 l 1.95547,0 z m -8.20398,6.81042 c 0,-1.88803 1.05641,-3.4614 3.25912,-3.4614 2.47243,0 3.21416,1.95547 3.21416,3.34902 0,2.15776 -1.21374,3.6637 -3.12426,3.6637 -2.33757,0 -3.34902,-1.84309 -3.34902,-3.55132 z"
       id="path3220" />
    <path
       inkscape:connector-curvature="0"
       style="fill:#000000;fill-rule:evenodd;stroke:none"
       d="m -277.78175,231.9526 -5.55174,0 0,1.6408 5.55174,0 0,-1.6408 z m 4.65266,-3.68617 c 0.0674,-1.10135 0.20229,-3.93341 3.21416,-3.93341 2.33757,0 3.14673,1.61832 3.14673,2.89949 0,2.06785 -1.32612,2.92196 -3.39397,3.97836 -4.27056,2.20271 -5.16963,3.95589 -5.37192,7.30491 l 10.90118,0 0,-1.88803 -8.65351,0 c 0.0899,-0.62935 0.87658,-2.06786 3.03434,-3.23664 3.91094,-2.11281 5.61917,-3.21416 5.61917,-6.0687 0,-2.98939 -2.22519,-4.78752 -4.98982,-4.78752 -1.7307,0 -5.50678,0.53944 -5.50678,5.73154 l 2.00042,0 z m 17.84646,-4.92238 0,3.28159 -1.59584,0 0,1.66327 1.59584,0 0,7.8406 c 0,1.44226 0.42706,2.56983 2.405,2.56983 0.20229,0 0.89907,-0.0674 1.48346,-0.18356 l 0,-1.55088 -0.69677,0 c -0.40458,0 -1.19127,-0.0674 -1.19127,-0.94777 l 0,-7.72822 1.91052,0 0,-1.66327 -1.91052,0 0,-3.28159 -2.00042,0 z m 5.82145,9.21542 c 0,3.05683 1.70823,6.29721 5.50678,6.29721 3.79856,0 5.50678,-3.24038 5.50678,-6.29721 0,-3.05682 -1.70822,-6.27098 -5.50678,-6.27098 -3.79855,0 -5.50678,3.21416 -5.50678,6.27098 z m 2.04538,0 c 0,-1.59584 0.60687,-4.54028 3.4614,-4.54028 2.85454,0 3.46141,2.94444 3.46141,4.54028 0,1.59584 -0.60687,4.56276 -3.46141,4.56276 -2.85453,0 -3.4614,-2.96692 -3.4614,-4.56276 z m 21.89226,-0.60687 -4.94487,0 0,1.6408 4.94487,0 0,4.92238 1.64079,0 0,-4.92238 4.92239,0 0,-1.6408 -4.92239,0 0,-4.92238 -1.64079,0 0,4.92238 z m 19.93679,2.67472 0,-1.7307 -2.33758,0 0,-10.36173 -1.64079,0 -7.30491,10.13697 0,1.95546 6.96776,0 0,3.88846 1.97794,0 0,-3.88846 2.33758,0 z m -4.36048,-8.96818 0.045,0 0,7.23748 -5.14715,0 5.10219,-7.23748 z"
       id="path3222" />
    <path
       inkscape:connector-curvature="0"
       style="fill:#000000;fill-rule:evenodd;stroke:none"
       d="m -250.22101,332.04987 -2.50865,0 0,18.58444 2.50865,0 0,-18.58444 z m 3.55818,5.04288 0,13.54156 2.27826,0 0,-7.37234 c 0,-3.68617 2.27825,-4.50532 3.55817,-4.50532 2.22707,0 2.89262,1.20312 2.89262,3.53258 l 0,8.34508 2.27826,0 0,-9.21543 c 0,-3.83976 -2.63663,-4.7101 -4.7357,-4.7101 -2.32946,0 -3.58378,1.5871 -4.07015,2.30385 l -0.0768,0 0,-1.91988 -2.12466,0 z m 14.33511,0 0,13.54156 2.27825,0 0,-7.85871 c 0,-1.97108 1.30552,-3.63498 3.43019,-3.63498 l 0.89594,0 0,-2.35505 c -0.20478,-0.0512 -0.33278,-0.0768 -0.61436,-0.0768 -1.71509,0 -2.91822,1.07513 -3.81416,2.63663 l -0.0512,0 0,-2.25266 -2.12466,0 z"
       id="path3224" />
    <path
       inkscape:connector-curvature="0"
       style="fill:#000000;fill-rule:evenodd;stroke:none"
       d="m -275.8881,383.2548 -2.20271,0 0,16.31804 2.20271,0 0,-16.31804 z m 3.50199,4.4279 0,11.89014 2.00042,0 0,-6.47327 c 0,-3.23664 2.00042,-3.95589 3.12426,-3.95589 1.95546,0 2.53986,1.0564 2.53986,3.10178 l 0,7.32738 2.00042,0 0,-8.09159 c 0,-3.3715 -2.3151,-4.1357 -4.15818,-4.1357 -2.04538,0 -3.14673,1.39355 -3.57379,2.0229 l -0.0674,0 0,-1.68575 -1.86556,0 z m 14.96508,0 -2.00042,0 0,11.89014 2.00042,0 0,-11.89014 z m 0,-2.15776 0,-2.27014 -2.00042,0 0,2.27014 2.00042,0 z m 3.77171,-1.12383 0,3.28159 -1.59585,0 0,1.66327 1.59585,0 0,7.8406 c 0,1.44226 0.42705,2.56983 2.405,2.56983 0.20229,0 0.89906,-0.068 1.48346,-0.18356 l 0,-1.55088 -0.69678,0 c -0.40458,0 -1.19126,-0.0674 -1.19126,-0.94777 l 0,-7.72822 1.91051,0 0,-1.66327 -1.91051,0 0,-3.28159 -2.00042,0 z m 8.22208,3.28159 -2.00042,0 0,11.89014 2.00042,0 0,-11.89014 z m 0,-2.15776 0,-2.27014 -2.00042,0 0,2.27014 2.00042,0 z m 5.07535,5.7765 c 0.11238,-0.89907 0.42643,-2.29262 2.6972,-2.29262 1.88804,0 2.764,0.60687 2.764,1.91051 0,1.23622 -0.22414,1.48346 -3.34902,1.73071 -4.18066,0.31467 -4.53966,2.405 -4.53966,3.82103 0,2.06785 1.52841,3.44267 3.70865,3.44267 2.31509,0 3.50573,-1.1051 4.29242,-1.93674 0.0899,0.89907 0.33777,1.82436 2.11343,1.82436 0.4489,0 0.74172,-0.13486 1.07825,-0.22852 l 0,-1.46098 c -0.22414,0.045 -0.47139,0.0899 -0.65182,0.0899 -0.40458,0 -0.65183,-0.24724 -0.65183,-0.74173 l 0,-6.78795 c 0,-3.05682 -3.4614,-3.32654 -4.40479,-3.32654 -2.94445,0 -4.90054,1.10135 -4.90054,3.95589 l 1.84371,0 z m 5.4612,4.15818 c 0,1.59584 -1.79813,2.7871 -3.66307,2.7871 -1.48408,0 -2.18023,-0.78668 -2.18023,-2.09033 0,-1.50593 1.57274,-1.77565 2.56234,-1.91051 2.4718,-0.31467 2.96691,-0.49449 3.28096,-0.74173 l 0,1.95547 z m 6.22166,-11.05851 0,3.28159 -1.59584,0 0,1.66327 1.59584,0 0,7.8406 c 0,1.44226 0.42706,2.56983 2.40501,2.56983 0.20229,0 0.89906,-0.068 1.48345,-0.18356 l 0,-1.55088 -0.69677,0 c -0.40458,0 -1.19126,-0.0674 -1.19126,-0.94777 l 0,-7.72822 1.91051,0 0,-1.66327 -1.91051,0 0,-3.28159 -2.00043,0 z m 5.56984,9.21542 c 0,3.05683 1.70823,6.29721 5.50678,6.29721 3.79856,0 5.50678,-3.24038 5.50678,-6.29721 0,-3.05682 -1.70822,-6.27098 -5.50678,-6.27098 -3.79855,0 -5.50678,3.21416 -5.50678,6.27098 z m 2.04538,0 c 0,-1.59584 0.60687,-4.54028 3.4614,-4.54028 2.85454,0 3.46141,2.94444 3.46141,4.54028 0,1.59584 -0.60687,4.56276 -3.46141,4.56276 -2.85453,0 -3.4614,-2.96692 -3.4614,-4.56276 z m 11.61606,-5.93383 0,11.89014 2.00042,0 0,-6.90033 c 0,-1.7307 1.14631,-3.19168 3.01187,-3.19168 l 0.78668,0 0,-2.06785 c -0.17981,-0.045 -0.2922,-0.0674 -0.53944,-0.0674 -1.50593,0 -2.56234,0.94402 -3.34902,2.31509 l -0.045,0 0,-1.97794 -1.86556,0 z"
       id="path3226" />
    <path
       inkscape:connector-curvature="0"
       style="fill:#000000;fill-rule:evenodd;stroke:none"
       d="m -336.33343,480.03551 6.69929,0 c 5.49804,0 7.13821,-4.85121 7.13821,-8.61668 0,-4.82748 -2.67971,-8.15403 -7.0458,-8.15403 l -6.7917,0 0,16.77071 z m 2.2639,-14.83085 4.22748,0 c 3.07244,0 5.01292,2.12592 5.01292,6.35278 0,4.22748 -1.91738,6.53821 -4.85121,6.53821 l -4.38919,0 0,-12.89099 z m 15.08495,2.61104 0,12.21981 2.05599,0 0,-6.69929 c 0,-3.32655 2.03289,-4.01958 3.18794,-4.01958 1.52467,0 1.94049,1.24808 1.94049,2.26452 l 0,8.45435 2.05598,0 0,-7.461 c 0,-1.61707 1.10885,-3.25787 2.84143,-3.25787 1.75567,0 2.287,1.15568 2.287,2.81895 l 0,7.89992 2.05599,0 0,-8.45435 c 0,-3.41894 -2.49491,-4.11197 -3.81167,-4.11197 -1.87118,0 -2.67972,0.85473 -3.71926,1.98606 -0.32341,-0.64621 -1.06265,-1.98606 -3.23414,-1.98606 -2.1946,0 -3.25724,1.43226 -3.69616,2.07909 l -0.0462,0 0,-1.73258 -1.91739,0 z m 23.35512,9.74862 -2.44871,0 0,2.47119 2.44871,0 0,-2.47119 z m 0,-9.58691 -2.44871,0 0,2.47118 2.44871,0 0,-2.47118 z m 18.82731,-2.70282 5.68285,0 0,-2.00979 -13.62959,0 0,2.00979 5.68284,0 0,14.76092 2.2639,0 0,-14.76092 z m 23.49372,3.04933 c -0.32341,-2.81894 -2.56421,-5.49804 -6.8841,-5.49804 -4.87431,0 -7.80814,3.58066 -7.80814,8.73156 0,6.4458 3.71927,8.92136 7.53093,8.92136 1.27056,0 6.39898,-0.27722 7.32302,-6.61126 l -2.1946,0 c -0.76233,3.90469 -3.30344,4.5971 -4.7819,4.5971 -4.15818,0 -5.54424,-3.02623 -5.54424,-6.97588 0,-4.41229 2.4487,-6.65309 5.47493,-6.65309 1.61707,0 4.06578,0.53132 4.68951,3.48825 l 2.19459,0 z m 31.57283,-7.07765 5.22082,0 c 0,1.77816 -0.36961,3.28035 -1.82498,4.43477 -1.24745,0.99397 -2.61041,1.08637 -3.44205,1.08637 -4.45849,0 -5.56734,-3.51135 -5.56734,-6.9072 0,-4.38919 2.47181,-6.79169 5.47494,-6.79169 1.84808,0 4.29679,0.60063 5.01292,3.53445 l 2.19459,0 c -0.48512,-3.76546 -3.97337,-5.54424 -7.092,-5.54424 -5.45184,0 -7.92365,4.5971 -7.92365,8.68536 0,4.01957 1.89428,8.96755 7.76194,8.96755 2.287,0 4.38919,-1.04329 5.52114,-2.61415 l 0.55442,2.17087 1.45536,0 0,-8.96319 -7.34611,0 0,1.9411 z m 0.47388,16.23377 5.68285,0 0,-2.00979 -13.6296,0 0,2.00979 5.68285,0 0,14.76154 2.2639,0 0,-14.76154 z m 20.69288,-12.20545 5.68284,0 0,-2.00979 -13.62959,0 0,2.00979 5.68285,0 0,14.76092 2.2639,0 0,-14.76092 z m 18.02377,-11.76715 5.68285,0 0,-2.00979 -13.62959,0 0,2.00979 5.68284,0 0,14.76092 2.2639,0 0,-14.76092 z m 6.49138,27.02193 c -0.32341,-2.81832 -2.56421,-5.49804 -6.88409,-5.49804 -4.87432,0 -7.80814,3.58065 -7.80814,8.73218 0,6.44518 3.71926,8.92073 7.53092,8.92073 1.27056,0 6.39898,-0.27659 7.32302,-6.61063 l -2.19459,0 c -0.76234,3.90407 -3.30345,4.5971 -4.78191,4.5971 -4.15818,0 -5.54424,-3.02623 -5.54424,-6.97651 0,-4.41229 2.4487,-6.65308 5.47494,-6.65308 1.61707,0 4.06577,0.53132 4.6895,3.48825 l 2.19459,0 z"
       id="path3228" />
    <path
       inkscape:connector-curvature="0"
       style="fill:#911029;fill-rule:evenodd;stroke:none"
       d="m -245.17688,473.15203 2.67972,-7.39294 0.0462,0 2.47181,7.39294 -5.19773,0 z m 6.00626,1.98606 1.66328,4.89742 2.4718,0 -6.05246,-16.77071 -2.56421,0 -6.30657,16.77071 2.3332,0 1.75567,-4.89742 6.69929,0 z"
       id="path3230" />
    <path
       inkscape:connector-curvature="0"
       style="fill:#911029;fill-rule:evenodd;stroke:none"
       d="m -254.80999,443.75382 -5.08222,0 0,1.68638 5.08222,0 0,5.05911 1.68637,0 0,-5.05911 5.05912,0 0,-1.68638 -5.05912,0 0,-5.05912 -1.68637,0 0,5.05912 z m 16.00899,-9.67932 -1.59397,0 c -0.66993,2.70282 -1.75505,2.95693 -4.41229,3.14174 l 0,1.64017 3.81166,0 0,11.6429 2.1946,0 0,-16.42481 z"
       id="path3232" />
    <path
       inkscape:connector-curvature="0"
       style="fill:#911029;fill-rule:evenodd;stroke:none"
       d="m -239.08945,536.23337 1.66327,4.89742 2.47181,0 -6.05246,-16.77133 -2.56421,0 -6.30658,16.77133 2.3332,0 1.75568,-4.89742 6.69929,0 z m -6.00626,-1.98606 2.67972,-7.39232 0.0462,0 2.4718,7.39232 -5.19772,0 z"
       id="path3234" />
    <path
       inkscape:connector-curvature="0"
       style="fill:#000000;fill-rule:evenodd;stroke:none"
       d="m -349.99736,524.35946 -2.2639,0 0,16.77133 2.2639,0 0,-7.83124 8.75528,0 0,7.83124 2.2639,0 0,-16.77133 -2.2639,0 0,6.9303 -8.75528,0 0,-6.9303 z m 22.9624,8.03977 c -0.0231,-0.60125 -0.30032,-3.83539 -4.66641,-3.83539 -2.4025,0 -4.6202,1.24808 -4.6202,3.90407 0,1.89491 1.31676,2.72654 3.95028,3.23414 2.95692,0.57753 3.67305,1.08575 3.67305,2.05599 0,1.40916 -1.33985,1.94111 -2.79522,1.94111 -2.91072,0 -3.23414,-1.59459 -3.23414,-2.49553 l -1.98668,0 c 0.0924,1.47846 0.39271,4.27805 5.24392,4.27805 2.74902,0 4.82811,-1.52903 4.82811,-4.04642 0,-1.66327 -0.83163,-2.61104 -4.43539,-3.46515 -2.61041,-0.62435 -3.25724,-0.87784 -3.25724,-1.89491 0,-1.52466 1.80188,-1.73195 2.42561,-1.73195 2.61041,0 2.88762,1.29304 2.88762,2.05599 l 1.98669,0 z m 6.21417,6.26037 -2.44871,0 0,2.47119 2.44871,0 0,-2.47119 z m 0,-9.58691 -2.44871,0 0,2.47118 2.44871,0 0,-2.47118 z m 14.29952,-2.77275 4.5971,0 c 1.87118,0 3.32654,0.69303 3.32654,2.79522 0,2.26453 -1.38606,3.02624 -3.41895,3.02624 l -4.50469,0 0,-5.82146 z m 0,7.76256 5.29013,0 c 3.62685,0 4.96671,-2.65661 4.96671,-4.98981 0,-2.70282 -1.87118,-4.71323 -4.96671,-4.71323 l -7.55403,0 0,16.77133 2.2639,0 0,-7.06829 z m 12.28973,-5.15214 4.5278,12.54821 c -0.99335,2.51801 -1.13195,2.81832 -2.1715,2.81832 -0.55442,0 -0.99334,-0.1155 -1.24745,-0.20791 l 0,1.87119 c 0.32341,0.0924 0.57752,0.1848 0.87784,0.1848 2.3563,0 2.88762,-0.66993 3.78856,-2.77212 1.68637,-3.93154 3.95027,-10.44602 5.38253,-14.44249 l -2.2639,0 -3.25724,9.95715 -0.0462,0 -3.25724,-9.95715 -2.3332,0 z m 17.97258,-2.61042 4.5971,0 c 1.87118,0 3.32654,0.69303 3.32654,2.79522 0,2.26453 -1.38606,3.02624 -3.41895,3.02624 l -4.50469,0 0,-5.82146 z m 0,7.76256 5.29013,0 c 3.62685,0 4.96671,-2.65661 4.96671,-4.98981 0,-2.70282 -1.87118,-4.71323 -4.96671,-4.71323 l -7.55403,0 0,16.77133 2.2639,0 0,-7.06829 z m 12.05872,-5.15214 4.5278,12.54821 c -0.99335,2.51801 -1.13195,2.81832 -2.1715,2.81832 -0.55442,0 -0.99334,-0.1155 -1.24745,-0.20791 l 0,1.87119 c 0.32341,0.0924 0.57752,0.1848 0.87784,0.1848 2.3563,0 2.88762,-0.66993 3.78856,-2.77212 1.68637,-3.93154 3.95027,-10.44602 5.38253,-14.44249 l -2.26389,0 -3.25724,9.95715 -0.0462,0 -3.25724,-9.95715 -2.3332,0 z m 46.1327,8.98629 -0.0462,0 -8.38566,-13.53719 -2.67972,0 0,16.77133 2.19459,0 0,-13.53657 0.0462,0 8.52427,13.53657 2.54111,0 0,-16.77133 -2.1946,0 0,13.53719 z m 24.74117,-11.59671 4.5971,0 c 1.87118,0 3.32655,0.69303 3.32655,2.79522 0,2.26453 -1.38606,3.02624 -3.41895,3.02624 l -4.5047,0 0,-5.82146 z m 0,7.76256 5.29013,0 c 3.62686,0 4.96672,-2.65661 4.96672,-4.98981 0,-2.70282 -1.87118,-4.71323 -4.96672,-4.71323 l -7.55402,0 0,16.77133 2.26389,0 0,-7.06829 z m 12.05873,-5.15214 4.52779,12.54821 c -0.99334,2.51801 -1.13195,2.81832 -2.17149,2.81832 -0.55443,0 -0.99334,-0.1155 -1.24746,-0.20791 l 0,1.87119 c 0.32342,0.0924 0.57753,0.1848 0.87784,0.1848 2.3563,0 2.88763,-0.66993 3.78857,-2.77212 1.68637,-3.93154 3.95027,-10.44602 5.38253,-14.44249 l -2.2639,0 -3.25724,9.95715 -0.0462,0 -3.25724,-9.95715 -2.3332,0 z m 16.58652,-2.61042 4.59709,0 c 1.87119,0 3.32655,0.69303 3.32655,2.79522 0,2.26453 -1.38606,3.02624 -3.41895,3.02624 l -4.50469,0 0,-5.82146 z m 0,7.76256 5.29012,0 c 3.62686,0 4.96672,-2.65661 4.96672,-4.98981 0,-2.70282 -1.87118,-4.71323 -4.96672,-4.71323 l -7.55402,0 0,16.77133 2.2639,0 0,-7.06829 z m 12.05872,-5.15214 4.52779,12.54821 c -0.99334,2.51801 -1.13194,2.81832 -2.17149,2.81832 -0.55442,0 -0.99334,-0.1155 -1.24745,-0.20791 l 0,1.87119 c 0.32341,0.0924 0.57752,0.1848 0.87783,0.1848 2.35631,0 2.88763,-0.66993 3.78857,-2.77212 1.68637,-3.93154 3.95027,-10.44602 5.38253,-14.44249 l -2.2639,0 -3.25724,9.95715 -0.0462,0 -3.25724,-9.95715 -2.3332,0 z m -49.0222,18.6987 1.66327,4.89741 2.47181,0 -6.05246,-16.77133 -2.56421,0 -6.30658,16.77133 2.3332,0 1.75568,-4.89741 6.69929,0 z m -6.00626,-1.98669 2.67972,-7.39232 0.0462,0 2.4718,7.39232 -5.19772,0 z m 3.81166,-31.85004 5.68285,0 0,-2.00978 -13.62959,0 0,2.00978 5.68285,0 0,14.76154 2.26389,0 0,-14.76154 z"
       id="path3236" />
    <path
       inkscape:connector-curvature="0"
       style="fill:#503b90;fill-rule:evenodd;stroke:none"
       d="m -59.975524,231.90765 -4.944863,0 0,1.64079 4.944863,0 0,4.92239 1.642044,0 0,-4.92239 4.919889,0 0,-1.64079 -4.919889,0 0,-4.92239 -1.642044,0 0,4.92239 z m 11.082237,-3.68617 c 0.06244,-1.10136 0.199793,-3.93342 3.209167,-3.93342 2.341317,0 3.146731,1.61832 3.146731,2.89949 0,2.06785 -1.323625,2.92197 -3.390229,3.97837 -4.270563,2.20271 -5.169629,3.95589 -5.375665,7.30491 l 10.901175,0 0,-1.88804 -8.65351,0 c 0.09365,-0.62934 0.880335,-2.06785 3.034348,-3.23664 3.914683,-2.1128 5.619162,-3.21416 5.619162,-6.06869 0,-2.9894 -2.222691,-4.78753 -4.988567,-4.78753 -1.729454,0 -5.50678,0.53944 -5.50678,5.73155 l 2.004168,0 z m 21.415253,-1.61832 c 0,-1.86556 -1.367329,-4.11323 -4.919889,-4.11323 -3.82103,0 -4.83248,2.74215 -4.83248,4.38295 0,1.50594 0.786683,2.58481 2.160256,3.12425 -1.685749,0.6743 -2.697198,1.933 -2.697198,3.86599 0,3.48388 2.603545,5.03851 5.456831,5.03851 3.777326,0 5.394396,-2.47617 5.394396,-5.06099 0,-1.19126 -0.449533,-2.96692 -2.603545,-3.86598 0.718004,-0.35963 2.041629,-1.07888 2.041629,-3.3715 z m -4.876184,4.36047 c 1.823106,0 3.302819,0.9665 3.302819,3.10178 0,2.51738 -1.729454,3.03435 -3.190436,3.03435 -2.765877,0 -3.390228,-1.91052 -3.390228,-3.19169 0,-1.46098 1.03018,-2.94444 3.277845,-2.94444 z m -0.01873,-1.7307 c -1.460982,0 -2.790851,-0.92154 -2.790851,-2.44996 0,-1.01145 0.518212,-2.49491 2.653494,-2.49491 2.335074,0 2.965669,1.41603 2.965669,2.38253 0,1.46098 -1.098858,2.56234 -2.828312,2.56234 z m 14.584849,-5.93384 0,3.28159 -1.59834,0 0,1.66328 1.59834,0 0,7.8406 c 0,1.44225 0.424559,2.56983 2.403752,2.56983 0.206036,0 0.899066,-0.0674 1.485957,-0.18356 l 0,-1.55089 -0.699274,0 c -0.405828,0 -1.192511,-0.0674 -1.192511,-0.94776 l 0,-7.72822 1.910515,0 0,-1.66328 -1.910515,0 0,-3.28159 -1.997924,0 z m 5.818955,9.21543 c 0,3.05682 1.710722,6.29721 5.5067789,6.29721 3.8022999,0 5.50677921,-3.24039 5.50677921,-6.29721 0,-3.05683 -1.70447931,-6.27099 -5.50677921,-6.27099 -3.7960569,0 -5.5067789,3.21416 -5.5067789,6.27099 z m 2.0478722,0 c 0,-1.59584 0.6056208,-4.54028 3.4589067,-4.54028 2.8595293,0 3.4651502,2.94444 3.4651502,4.54028 0,1.59584 -0.6056209,4.56276 -3.4651502,4.56276 -2.8532859,0 -3.4589067,-2.96692 -3.4589067,-4.56276 z m 21.8897598,-0.60687 -4.9448631,0 0,1.64079 4.9448631,0 0,4.92239 1.642044,0 0,-4.92239 4.926133,0 0,-1.64079 -4.926133,0 0,-4.92239 -1.642044,0 0,4.92239 z m 13.14884,-0.83164 c 2.834555,0 4.657662,0.47201 4.657662,2.92197 0,1.84308 -1.442252,3.10178 -3.483881,3.10178 -2.971913,0 -3.352767,-2.0229 -3.421446,-3.52884 l -2.041629,0 c 0,3.14673 1.910515,5.33071 5.325717,5.33071 4.070772,0 5.731546,-2.5436 5.731546,-5.1509 0,-2.13528 -1.098858,-3.21416 -2.653493,-3.70864 l 0,-0.045 c 0.880335,-0.26972 2.047872,-1.25869 2.047872,-3.30406 0,-2.42748 -1.841836,-4.20314 -4.926132,-4.20314 -4.201885,0 -5.144656,2.89949 -5.144656,5.23706 l 1.95422,0 c 0.09365,-1.55089 0.586891,-3.43893 3.103027,-3.43893 2.385022,0 2.946938,1.57337 2.946938,2.51739 0,2.51738 -2.072846,2.60729 -4.095745,2.60729 l 0,1.66327 z m 11.194621,-2.85453 c 0.06868,-1.10136 0.206036,-3.93342 3.215409,-3.93342 2.335074,0 3.146731,1.61832 3.146731,2.89949 0,2.06785 -1.323625,2.92197 -3.396471,3.97837 -4.270564,2.20271 -5.16963,3.95589 -5.369422,7.30491 l 10.901175,0 0,-1.88804 -8.65351,0 c 0.08741,-0.62934 0.874092,-2.06785 3.034347,-3.23664 3.90844,-2.1128 5.619163,-3.21416 5.619163,-6.06869 0,-2.9894 -2.222691,-4.78753 -4.988568,-4.78753 -1.729453,0 -5.506779,0.53944 -5.506779,5.73155 l 1.997925,0 z"
       id="path3238" />
    <path
       inkscape:connector-curvature="0"
       style="fill:#000000;fill-rule:evenodd;stroke:none"
       d="m -27.91508,350.63431 7.423538,0 c 6.09367,0 7.910532,-5.37567 7.910532,-9.54821 0,-5.35006 -2.971912,-9.03623 -7.810636,-9.03623 l -7.523434,0 0,18.58444 z m 2.509893,-16.43418 4.682635,0 c 3.402715,0 5.556727,2.35506 5.556727,7.03956 0,4.68451 -2.129038,7.24435 -5.375665,7.24435 l -4.863697,0 0,-14.28391 z m 18.3746611,0 5.0947073,0 c 2.07284664,0 3.6899167,0.76795 3.6899167,3.09741 0,2.50864 -1.53590438,3.35339 -3.7898129,3.35339 l -4.9948111,0 0,-6.4508 z m 0,8.60107 5.8626595,0 c 4.020823,0 5.5067793,-2.94382 5.5067793,-5.52926 0,-2.99501 -2.0728466,-5.22207 -5.5067793,-5.22207 l -8.3663086,0 0,18.58444 2.5036491,0 0,-7.83311 z m 28.1332739,5.60605 -11.2133512,0 0,-6.4508 10.1644402,0 0,-2.22706 -10.1644402,0 0,-5.45246 11.0385322,0 0,-2.22706 -13.5421813,0 0,18.58444 13.7170003,0 0,-2.22706 z"
       id="path3240" />
    <path
       inkscape:connector-curvature="0"
       style="fill:#503b90;fill-rule:evenodd;stroke:none"
       d="m -65.688339,399.57284 6.518229,0 c 5.344447,0 6.942787,-4.72009 6.942787,-8.38379 0,-4.69762 -2.609789,-7.93425 -6.855378,-7.93425 l -6.605638,0 0,16.31804 z m 2.197717,-14.43 4.114476,0 c 2.990643,0 4.876184,2.06785 4.876184,6.18107 0,4.11323 -1.860567,6.3609 -4.720097,6.3609 l -4.270563,0 0,-12.54197 z m 13.461016,8.47369 c 0,3.05683 1.710723,6.29721 5.506779,6.29721 3.796057,0 5.506779,-3.24038 5.506779,-6.29721 0,-3.05682 -1.710722,-6.27098 -5.506779,-6.27098 -3.796056,0 -5.506779,3.21416 -5.506779,6.27098 z m 2.047872,0 c 0,-1.59584 0.605621,-4.54028 3.458907,-4.54028 2.853286,0 3.458907,2.94444 3.458907,4.54028 0,1.59584 -0.605621,4.56276 -3.458907,4.56276 -2.853286,0 -3.458907,-2.96692 -3.458907,-4.56276 z m 10.489104,-5.93383 3.415202,11.89014 2.072846,0 2.310101,-9.19295 0.04995,0 2.403753,9.19295 2.066603,0 3.440176,-11.89014 -1.979194,0 -2.403753,9.32781 -0.0437,0 -2.316343,-9.32781 -2.228935,0 -2.291369,9.32781 -0.06868,0 -2.266395,-9.32781 -2.160256,0 z m 17.912641,0 0,11.89014 1.997925,0 0,-6.47327 c 0,-3.23664 1.997924,-3.95589 3.121757,-3.95589 1.960463,0 2.54111,1.0564 2.54111,3.10178 l 0,7.32738 2.0041677,0 0,-8.09159 c 0,-3.3715 -2.3163437,-4.1357 -4.1581807,-4.1357 -2.047872,0 -3.146731,1.39355 -3.577533,2.0229 l -0.06868,0 0,-1.68575 -1.860567,0 z m 21.6400193,3.39397 c -0.024974,-0.58439 -0.2934451,-3.73112 -4.5452781,-3.73112 -2.3350742,0 -4.49533,1.21374 -4.49533,3.79855 0,1.84309 1.2861639,2.65225 3.8460046,3.14673 2.87825987,0.56192 3.57128991,1.0564 3.57128991,2.00042 0,1.37108 -1.29865089,1.88804 -2.71592851,1.88804 -2.8345553,0 -3.146731,-1.55089 -3.146731,-2.42748 l -1.9354893,0 c 0.093653,1.43851 0.3808543,4.16193 5.1009508,4.16193 2.67846747,0 4.701366,-1.4872 4.701366,-3.93716 0,-1.61832 -0.8116568,-2.53986 -4.3142681,-3.3715 -2.5411102,-0.60687 -3.1717051,-0.85411 -3.1717051,-1.84308 0,-1.48346 1.7544274,-1.68575 2.3600483,-1.68575 2.54111012,0 2.80958122,1.25869 2.80958122,2.00042 l 1.93548928,0 z m 3.5213419,-6.67556 0,3.28159 -1.5920961,0 0,1.66327 1.5920961,0 0,7.8406 c 0,1.44226 0.4308024,2.56983 2.4037528,2.56983 0.206036,0 0.899066,-0.068 1.4859563,-0.18356 l 0,-1.55088 -0.6992735,0 c -0.3995849,0 -1.1862677,-0.0674 -1.1862677,-0.94777 l 0,-7.72822 1.9105153,0 0,-1.66327 -1.9105153,0 0,-3.28159 -2.0041679,0 z m 6.2247838,3.28159 0,11.89014 1.997924,0 0,-6.90033 c 0,-1.7307 1.148807,-3.19168 3.009374,-3.19168 l 0.786682,0 0,-2.06785 c -0.174818,-0.045 -0.287201,-0.0674 -0.536942,-0.0674 -1.504687,0 -2.55984,0.94402 -3.346523,2.31509 l -0.04995,0 0,-1.97794 -1.860567,0 z m 15.839794,8.15902 c 0,0.87659 -1.192511,2.33757 -3.059322,2.33757 -2.291369,0 -3.433932,-1.4385 -3.433932,-3.88846 l 8.65351,0 c 0,-4.20313 -1.685749,-6.94528 -5.107194,-6.94528 -3.933414,0 -5.681598,2.89948 -5.681598,6.60813 0,3.43893 1.95422,5.96006 5.282013,5.96006 3.658699,0 4.894915,-2.22893 5.344448,-4.07202 l -1.997925,0 z m -6.493254,-3.14673 c 0,-1.84309 1.436008,-3.55131 3.259114,-3.55131 2.447458,0 3.23414,1.70822 3.346524,3.55131 l -6.605638,0 z m 13.073918,-1.39355 c 0.112383,-0.89907 0.424559,-2.29262 2.697198,-2.29262 1.885541,0 2.765877,0.60687 2.765877,1.91051 0,1.23622 -0.224767,1.48346 -3.352767,1.73071 -4.176911,0.31467 -4.539035,2.405 -4.539035,3.82103 0,2.06785 1.529661,3.44267 3.708647,3.44267 2.316344,0 3.508855,-1.1051 4.295538,-1.93674 0.08741,0.89907 0.33715,1.82436 2.110308,1.82436 0.449533,0 0.742978,-0.13486 1.080127,-0.22852 l 0,-1.46098 c -0.224766,0.045 -0.474507,0.0899 -0.649325,0.0899 -0.405828,0 -0.655569,-0.24724 -0.655569,-0.74173 l 0,-6.78795 c 0,-3.05682 -3.458907,-3.32654 -4.401677,-3.32654 -2.946939,0 -4.901159,1.10135 -4.901159,3.95589 l 1.841837,0 z m 5.463075,4.15818 c 0,1.59584 -1.798132,2.7871 -3.664943,2.7871 -1.485956,0 -2.178986,-0.78668 -2.178986,-2.09033 0,-1.50593 1.573365,-1.77565 2.55984,-1.91051 2.472432,-0.31467 2.965669,-0.49449 3.284089,-0.74173 l 0,1.95547 z m 5.750276,-7.77692 0,11.89014 1.997924,0 0,-6.51822 c 0,-3.23664 1.979194,-3.91094 3.103027,-3.91094 1.485956,0 1.885541,1.21374 1.885541,2.20271 l 0,8.22645 2.004168,0 0,-7.25995 c 0,-1.57337 1.080128,-3.16921 2.765877,-3.16921 1.704479,0 2.222691,1.12383 2.222691,2.74215 l 0,7.68701 1.997924,0 0,-8.22645 c 0,-3.32654 -2.422483,-4.00084 -3.708647,-4.00084 -1.816863,0 -2.603546,0.83163 -3.614995,1.93299 -0.318419,-0.62935 -1.036423,-1.93299 -3.146731,-1.93299 -2.135282,0 -3.171705,1.39355 -3.596264,2.0229 l -0.0437,0 0,-1.68575 -1.866811,0 z m -91.492453,19.83189 4.4766,0 c 1.816862,0 3.23414,0.6743 3.23414,2.71968 0,2.20271 -1.348599,2.94444 -3.327793,2.94444 l -4.382947,0 0,-5.66412 z m 0,7.55216 5.150899,0 c 3.527586,0 4.83248,-2.58482 4.83248,-4.85496 0,-2.62977 -1.823106,-4.58523 -4.83248,-4.58523 l -7.354859,0 0,16.31804 2.20396,0 0,-6.87785 z m 12.830421,-5.01229 0,11.89014 2.004168,0 0,-6.90033 c 0,-1.7307 1.142563,-3.19168 3.009374,-3.19168 l 0.786683,0 0,-2.06785 c -0.181062,-0.045 -0.293445,-0.0674 -0.536943,-0.0674 -1.51093,0 -2.566084,0.94402 -3.352766,2.31509 l -0.0437,0 0,-1.97794 -1.866811,0 z m 7.211259,5.93383 c 0,3.05683 1.710723,6.29721 5.506779,6.29721 3.796057,0 5.506779,-3.24038 5.506779,-6.29721 0,-3.05682 -1.710722,-6.27098 -5.506779,-6.27098 -3.796056,0 -5.506779,3.21416 -5.506779,6.27098 z m 2.047872,0 c 0,-1.59584 0.605621,-4.54028 3.458907,-4.54028 2.853286,0 3.458907,2.94444 3.458907,4.54028 0,1.59584 -0.605621,4.56276 -3.458907,4.56276 -2.853286,0 -3.458907,-2.96692 -3.458907,-4.56276 z m 11.612936,-5.93383 0,11.89014 1.997925,0 0,-6.51822 c 0,-3.23664 1.9791936,-3.91094 3.1030261,-3.91094 1.4859563,0 1.8917847,1.21374 1.8917847,2.20271 l 0,8.22645 1.9979245,0 0,-7.25995 c 0,-1.57337 1.0801279,-3.16921 2.76587662,-3.16921 1.70447928,0 2.22269098,1.12383 2.22269098,2.74215 l 0,7.68701 2.0041679,0 0,-8.22645 c 0,-3.32654 -2.4287269,-4.00084 -3.70864723,-4.00084 -1.82310607,0 -2.60978877,0.83163 -3.62123807,1.93299 -0.3121757,-0.62935 -1.0364233,-1.93299 -3.146731,-1.93299 -2.1352817,0 -3.1717055,1.39355 -3.5962645,2.02289 l -0.0437,0 0,-1.68574 -1.866811,0 z m 18.6306457,5.93383 c 0,3.05683 1.7044793,6.29721 5.5067793,6.29721 3.796056,0 5.506779,-3.24038 5.506779,-6.29721 0,-3.05682 -1.710723,-6.27098 -5.506779,-6.27098 -3.8023,0 -5.5067793,3.21416 -5.5067793,6.27098 z m 2.0416291,0 c 0,-1.59584 0.6118643,-4.54028 3.4651502,-4.54028 2.853286,0 3.458907,2.94444 3.458907,4.54028 0,1.59584 -0.605621,4.56276 -3.458907,4.56276 -2.8532859,0 -3.4651502,-2.96692 -3.4651502,-4.56276 z m 12.0874432,-9.21543 0,3.2816 -1.592096,0 0,1.66327 1.592096,0 0,7.8406 c 0,1.44225 0.430802,2.56983 2.409996,2.56983 0.199792,0 0.899066,-0.0674 1.479713,-0.18356 l 0,-1.55089 -0.69303,0 c -0.405829,0 -1.192511,-0.0674 -1.192511,-0.94776 l 0,-7.72822 1.910515,0 0,-1.66327 -1.910515,0 0,-3.2816 -2.004168,0 z m 14.203994,11.44062 c 0,0.87659 -1.192511,2.33757 -3.059322,2.33757 -2.29137,0 -3.433933,-1.4385 -3.433933,-3.88846 l 8.653511,0 c 0,-4.20313 -1.685749,-6.94528 -5.107195,-6.94528 -3.933414,0 -5.681597,2.89948 -5.681597,6.60813 0,3.43893 1.954219,5.96006 5.282012,5.96006 3.658699,0 4.894915,-2.22893 5.344448,-4.07202 l -1.997924,0 z m -6.493255,-3.14673 c 0,-1.84309 1.436009,-3.55131 3.259115,-3.55131 2.447457,0 3.23414,1.70822 3.346523,3.55131 l -6.605638,0 z m 11.300761,-5.01229 0,11.89014 1.997924,0 0,-6.90033 c 0,-1.7307 1.148807,-3.19168 3.009374,-3.19168 l 0.786682,0 0,-2.06785 c -0.174818,-0.045 -0.287201,-0.0674 -0.536942,-0.0674 -1.504687,0 -2.55984,0.94402 -3.346523,2.31509 l -0.04995,0 0,-1.97794 -1.860567,0 z m -70.283236,32.30706 -9.839778,0 0,-5.66412 8.921981,0 0,-1.95547 -8.921981,0 0,-4.78752 9.68369,0 0,-1.95547 -11.887651,0 0,16.31805 12.043739,0 0,-1.95547 z m 4.988567,-14.36258 -1.997924,0 0,16.31805 1.997924,0 0,-16.31805 z m 11.275786,12.58692 c 0,0.87659 -1.186267,2.33757 -3.053078,2.33757 -2.29137,0 -3.440176,-1.43913 -3.440176,-3.88846 l 8.65351,0 c 0,-4.20313 -1.685749,-6.94528 -5.100951,-6.94528 -3.933414,0 -5.687841,2.89949 -5.687841,6.60813 0,3.43893 1.95422,5.95944 5.282013,5.95944 3.664942,0 4.901158,-2.22831 5.350691,-4.0714 l -2.004168,0 z m -6.493254,-3.14673 c 0,-1.84308 1.436008,-3.55131 3.259114,-3.55131 2.447457,0 3.23414,1.70823 3.346523,3.55131 l -6.605637,0 z m 11.3007599,-5.01229 0,11.89015 2.004168,0 0,-6.51823 c 0,-3.23664 1.9729504,-3.91094 3.0967829,-3.91094 1.4859563,0 1.8917847,1.21312 1.8917847,2.20271 l 0,8.22646 1.99792446,0 0,-7.25996 c 0,-1.57337 1.0801279,-3.16921 2.76587664,-3.16921 1.7107228,0 2.222691,1.12383 2.222691,2.74153 l 0,7.68764 2.0041679,0 0,-8.22646 c 0,-3.32654 -2.4287269,-4.00084 -3.7086472,-4.00084 -1.82310609,0 -2.60978884,0.83164 -3.6212381,1.93299 -0.3121757,-0.62934 -1.0301798,-1.93299 -3.146731,-1.93299 -2.1352818,0 -3.1654615,1.39355 -3.596264,2.0229 l -0.043705,0 0,-1.68575 -1.8668107,0 z m 27.2591821,8.15902 c 0,0.87659 -1.192512,2.33757 -3.053079,2.33757 -2.297613,0 -3.440176,-1.43913 -3.440176,-3.88846 l 8.65351,0 c 0,-4.20313 -1.685748,-6.94528 -5.10095,-6.94528 -3.933414,0 -5.6878416,2.89949 -5.6878416,6.60813 0,3.43893 1.9542196,5.95944 5.2820126,5.95944 3.664943,0 4.901159,-2.22831 5.350692,-4.0714 l -2.004168,0 z m -6.493255,-3.14673 c 0,-1.84308 1.436008,-3.55131 3.259114,-3.55131 2.447458,0 3.234141,1.70823 3.346524,3.55131 l -6.605638,0 z m 11.30076,-5.01229 0,11.89015 1.997925,0 0,-6.47328 c 0,-3.23664 2.004168,-3.95589 3.128,-3.95589 1.95422,0 2.54111,1.0564 2.54111,3.10178 l 0,7.32739 1.997925,0 0,-8.0916 c 0,-3.37149 -2.316344,-4.1357 -4.15818,-4.1357 -2.047873,0 -3.146731,1.39355 -3.57129,2.0229 l -0.06868,0 0,-1.68575 -1.866811,0 z m 13.436042,-3.28159 0,3.28159 -1.598339,0 0,1.66265 1.598339,0 0,7.84123 c 0,1.44225 0.424559,2.5692 2.403753,2.5692 0.206036,0 0.899066,-0.0674 1.485956,-0.18293 l 0,-1.55152 -0.699273,0 c -0.405829,0 -1.192511,-0.0668 -1.192511,-0.94714 l 0,-7.72884 1.910515,0 0,-1.66265 -1.910515,0 0,-3.28159 -1.997925,0 z"
       id="path3242" />
    <path
       inkscape:connector-curvature="0"
       style="fill:#503b90;fill-rule:evenodd;stroke:none"
       d="m -43.473917,490.43533 1.667019,4.89741 2.472431,0 -6.056208,-16.77133 -2.559841,0 -6.305949,16.77133 2.328831,0 1.754427,-4.89741 6.69929,0 z m -6.00626,-1.98669 2.684711,-7.39232 0.0437,0 2.472431,7.39232 -5.200847,0 z m 3.34028,23.83462 5.219578,0 c 0,1.77877 -0.368368,3.28034 -1.823106,4.43539 -1.248703,0.99334 -2.609789,1.08574 -3.440177,1.08574 -4.457869,0 -5.569214,-3.51135 -5.569214,-6.9072 0,-4.38919 2.472432,-6.79169 5.475562,-6.79169 1.84808,0 4.295537,0.60063 5.013541,3.53445 l 2.191474,0 c -0.480751,-3.76546 -3.970875,-5.54424 -7.092632,-5.54424 -5.450588,0 -7.923019,4.5971 -7.923019,8.68598 0,4.01957 1.898028,8.96693 7.760688,8.96693 2.291369,0 4.38919,-1.04329 5.525509,-2.61415 l 0.555673,2.17149 1.454739,0 0,-8.96319 -7.348616,0 0,1.94049 z m 19.685799,-11.76716 5.219578,0 c 0,1.77878 -0.368367,3.28035 -1.823106,4.4354 -1.248703,0.99334 -2.609789,1.08574 -3.44642,1.08574 -4.457869,0 -5.562971,-3.51135 -5.562971,-6.9072 0,-4.38919 2.472432,-6.79169 5.475562,-6.79169 1.84808,0 4.295538,0.60063 5.013542,3.53445 l 2.191473,0 c -0.486994,-3.76546 -3.970875,-5.54424 -7.092632,-5.54424 -5.450587,0 -7.923019,4.5971 -7.923019,8.68598 0,4.01957 1.891785,8.96693 7.760688,8.96693 2.29137,0 4.38919,-1.04329 5.52551,-2.61416 l 0.549429,2.1715 1.454739,0 0,-8.96319 -7.342373,0 0,1.94048 z m 65.675523,2.1253 1.660775,4.89741 2.472431,0 -6.049965,-16.77133 -2.566084,0 -6.305949,16.77133 2.335074,0 1.754428,-4.89741 6.69929,0 z m -6.00626,-1.98669 2.678467,-7.39232 0.04995,0 2.466188,7.39232 -5.194603,0 z m -35.7316304,-10.21938 1.66077473,4.89741 2.47243147,0 -6.0499649,-16.77133 -2.5660842,0 -6.3059487,16.77133 2.335074,0 1.7544272,-4.89741 6.6992904,0 z m -6.0062603,-1.98669 2.6784674,-7.39232 0.043705,0 2.4724315,7.39232 -5.1946035,0 z m 3.8085434,16.09578 5.68159769,0 0,-2.00979 -13.62959039,0 0,2.00979 5.6878407,0 0,14.76154 2.260152,0 0,-14.76154 z M 21.876943,483.62053 c -0.324662,-2.81832 -2.566084,-5.49804 -6.886595,-5.49804 -4.869941,0 -7.8043928,3.58066 -7.8043928,8.73218 0,6.44518 3.7211348,8.92073 7.5296778,8.92073 1.273677,0 6.399602,-0.27658 7.323642,-6.61063 l -2.197717,0 c -0.761709,3.90407 -3.302819,4.5971 -4.776288,4.5971 -4.15818,0 -5.5504841,-3.02623 -5.5504841,-6.9765 0,-4.41229 2.4537011,-6.65309 5.4755621,-6.65309 1.61707,0 4.070771,0.53132 4.688879,3.48825 l 2.197716,0 z m -6.493254,20.92389 5.681598,0 0,-2.00979 -13.6295912,0 0,2.00979 5.6878412,0 0,14.76154 2.260152,0 0,-14.76154 z m 21.171756,-28.06584 5.219577,0 c 0,1.77877 -0.368367,3.28034 -1.823106,4.43539 -1.248703,0.99334 -2.616032,1.08575 -3.446419,1.08575 -4.457869,0 -5.562971,-3.51136 -5.562971,-6.9072 0,-4.38919 2.466188,-6.7917 5.469318,-6.7917 1.84808,0 4.301781,0.60063 5.013541,3.53445 l 2.197717,0 c -0.486994,-3.76546 -3.977118,-5.54424 -7.092631,-5.54424 -5.450588,0 -7.92302,4.5971 -7.92302,8.68598 0,4.01958 1.891785,8.96694 7.760688,8.96694 2.285126,0 4.38919,-1.0433 5.519266,-2.61416 l 0.555673,2.17149 1.454739,0 0,-8.96319 -7.342372,0 0,1.94049 z m 6.961518,43.21822 c -0.324663,-2.81832 -2.559841,-5.49803 -6.880353,-5.49803 -4.876184,0 -7.810636,3.58065 -7.810636,8.73217 0,6.44518 3.721135,8.92074 7.529678,8.92074 1.273677,0 6.399602,-0.27722 7.323642,-6.61064 l -2.191473,0 c -0.761709,3.90407 -3.302819,4.5971 -4.782532,4.5971 -4.15818,0 -5.54424,-3.02623 -5.54424,-6.9765 0,-4.41229 2.447457,-6.65309 5.475561,-6.65309 1.61707,0 4.064528,0.53133 4.688879,3.48825 l 2.191474,0 z"
       id="path3244" />
    <path
       inkscape:connector-curvature="0"
       style="fill:#661336;fill-rule:evenodd;stroke:none"
       d="m -527.7221,385.21027 5.52925,0 0,-1.95547 -13.26122,0 0,1.95547 5.52925,0 0,14.36257 2.20272,0 0,-14.36257 z m 15.3066,9.59752 1.61831,4.76505 2.40501,0 -5.88889,-16.31804 -2.4949,0 -6.13613,16.31804 2.27014,0 1.70823,-4.76505 6.51823,0 z m -5.84393,-1.93299 2.60729,-7.19253 0.045,0 2.405,7.19253 -5.05724,0 z m 16.87996,-7.66453 5.52926,0 0,-1.95547 -13.26123,0 0,1.95547 5.52926,0 0,14.36257 2.20271,0 0,-14.36257 z m 15.3066,9.59752 1.61832,4.76505 2.405,0 -5.88888,-16.31804 -2.49491,0 -6.13613,16.31804 2.27015,0 1.70822,-4.76505 6.51823,0 z m -5.84393,-1.93299 2.60729,-7.19253 0.0449,0 2.40501,7.19253 -5.05725,0 z m 20.34137,-7.73196 4.00084,0 c 2.44996,0 3.3715,0.87658 3.3715,2.38252 0,2.00042 -1.28117,2.62977 -3.39397,2.62977 l -3.97837,0 0,-5.01229 z m -2.20271,14.43 7.01271,0 c 3.61874,0 5.55173,-2.20271 5.55173,-4.83248 0,-2.7871 -1.88803,-3.52883 -2.96691,-3.95589 1.79813,-0.85411 2.18023,-2.33757 2.18023,-3.41645 0,-2.22518 -1.55089,-4.11322 -4.60771,-4.11322 l -7.17005,0 0,16.31804 z m 2.20271,-7.61958 4.33799,0 c 1.79813,0 3.82103,0.44953 3.82103,2.74215 0,1.82061 -1.16878,2.9894 -3.4614,2.9894 l -4.69762,0 0,-5.73155 z m 12.18234,1.66327 c 0,3.05683 1.70823,6.29721 5.50678,6.29721 3.79856,0 5.50678,-3.24038 5.50678,-6.29721 0,-3.05682 -1.70822,-6.27098 -5.50678,-6.27098 -3.79855,0 -5.50678,3.21416 -5.50678,6.27098 z m 2.04538,0 c 0,-1.59584 0.60687,-4.54028 3.4614,-4.54028 2.85454,0 3.46141,2.94444 3.46141,4.54028 0,1.59584 -0.60687,4.56276 -3.46141,4.56276 -2.85453,0 -3.4614,-2.96692 -3.4614,-4.56276 z m 9.55257,-5.93383 3.95589,5.7765 -4.15818,6.11364 2.51739,0 2.85453,-4.47285 2.94444,4.47285 2.53987,0 -4.15818,-6.11364 4.00084,-5.7765 -2.44996,0 -2.74215,4.18065 -2.74215,-4.18065 -2.56234,0 z"
       id="path3246" />
  </g>
</svg>
