<?xml version="1.0" encoding="UTF-8" standalone="no"?>
<svg
   xmlns:dc="http://purl.org/dc/elements/1.1/"
   xmlns:cc="http://creativecommons.org/ns#"
   xmlns:rdf="http://www.w3.org/1999/02/22-rdf-syntax-ns#"
   xmlns:svg="http://www.w3.org/2000/svg"
   xmlns="http://www.w3.org/2000/svg"
   xmlns:sodipodi="http://sodipodi.sourceforge.net/DTD/sodipodi-0.dtd"
   xmlns:inkscape="http://www.inkscape.org/namespaces/inkscape"
   width="57.702198pt"
   version="1.1"
   height="84.218994pt"
   viewBox="0 0 57.702199 84.218997"
   id="svg71"
   sodipodi:docname="Phenobarbital2DACS.svg"
   inkscape:version="0.92.2 5c3e80d, 2017-08-06">
  <metadata
     id="metadata75">
    <rdf:RDF>
      <cc:Work
         rdf:about="">
        <dc:format>image/svg+xml</dc:format>
        <dc:type
           rdf:resource="http://purl.org/dc/dcmitype/StillImage" />
        <dc:title></dc:title>
      </cc:Work>
    </rdf:RDF>
  </metadata>
  <sodipodi:namedview
     pagecolor="#ffffff"
     bordercolor="#666666"
     borderopacity="1"
     objecttolerance="10"
     gridtolerance="10"
     guidetolerance="10"
     inkscape:pageopacity="0"
     inkscape:pageshadow="2"
     inkscape:window-width="529"
     inkscape:window-height="857"
     id="namedview73"
     showgrid="false"
     fit-margin-top="0"
     fit-margin-left="0"
     fit-margin-right="0"
     fit-margin-bottom="0"
     inkscape:zoom="1.9407895"
     inkscape:cx="36.778506"
     inkscape:cy="57.106491"
     inkscape:window-x="1067"
     inkscape:window-y="20"
     inkscape:window-maximized="0"
     inkscape:current-layer="svg71" />
  <defs
     id="defs5">
    <clipPath
       id="Clip0">
      <path
         d="M 0,0 H 57.7022 V 84.219 H 0 Z"
         transform="translate(4.21612,4.21087)"
         id="path2"
         inkscape:connector-curvature="0" />
    </clipPath>
  </defs>
  <g
     id="Background"
     transform="translate(-4.21612,-4.21087)">
    <g
       id="Group1"
       clip-path="url(#Clip0)">
      <path
         style="fill:#000000;fill-rule:evenodd;stroke:none"
         d="M 0,3.6565 C 0,2.51286 0.30741,1.61754 0.92223,0.970523 1.53705,0.323508 2.33067,0 3.30309,0 3.93987,0 4.51391,0.151962 5.02521,0.455887 5.53652,0.759812 5.92627,1.18358 6.19447,1.7272 c 0.2682,0.54362 0.4023,1.16009 0.4023,1.8494 0,0.69871 -0.14116,1.3238 -0.42347,1.87525 C 5.89098,6.0033 5.49103,6.4208 4.97346,6.70436 4.45588,6.98792 3.89752,7.1297 3.29838,7.1297 2.64906,7.1297 2.06874,6.97304 1.55744,6.65971 1.04614,6.34639 0.658736,5.9187 0.395241,5.37665 0.131747,4.8346 0,4.26121 0,3.6565 Z m 0.941051,0.0141 c 0,0.83031 0.223499,1.48437 0.670499,1.96219 0.447,0.47782 1.00771,0.71673 1.68213,0.71673 0.68697,0 1.25238,-0.24126 1.69624,-0.72378 C 5.43379,5.14322 5.65572,4.45861 5.65572,3.5719 5.65572,3.01105 5.56083,2.52148 5.37105,2.10319 5.18127,1.6849 4.90366,1.36061 4.53822,1.13032 4.17278,0.900025 3.76264,0.784878 3.30779,0.784878 2.66161,0.784878 2.1056,1.00656 1.63978,1.44991 1.17396,1.89326 0.941051,2.63349 0.941051,3.6706 Z"
         transform="translate(5.21248,38.2268)"
         id="path7"
         inkscape:connector-curvature="0" />
      <path
         style="fill:#000000;fill-rule:evenodd;stroke:none"
         d="M 0,6.89001 V 0 H 0.936346 L 4.55939,5.40955 V 0 H 5.43457 V 6.89001 H 4.49822 L 0.875178,1.47576 v 5.41425 z"
         transform="translate(18.4898,60.006)"
         id="path9"
         inkscape:connector-curvature="0" />
      <path
         style="fill:#000000;fill-rule:evenodd;stroke:none"
         d="M 0,6.89001 V 0 h 0.91282 v 2.82932 h 3.5854 V 0 H 5.41104 V 6.89001 H 4.49822 V 3.6424 h -3.5854 v 3.24761 z"
         transform="translate(11.3001,60.006)"
         id="path11"
         inkscape:connector-curvature="0" />
      <path
         style="fill:#000000;fill-rule:evenodd;stroke:none"
         d="M 0,3.6565 C 0,2.51286 0.30741,1.61754 0.92223,0.970523 1.53705,0.323508 2.33067,0 3.30309,0 3.93987,0 4.51391,0.151962 5.02521,0.455887 5.53652,0.759812 5.92627,1.18358 6.19447,1.7272 c 0.2682,0.54362 0.4023,1.16009 0.4023,1.8494 0,0.69871 -0.14116,1.3238 -0.42347,1.87525 C 5.89098,6.0033 5.49103,6.4208 4.97346,6.70436 4.45588,6.98792 3.89752,7.1297 3.29838,7.1297 2.64906,7.1297 2.06874,6.97304 1.55744,6.65971 1.04614,6.34639 0.658736,5.9187 0.395241,5.37665 0.131747,4.8346 0,4.26121 0,3.6565 Z m 0.941051,0.0141 c 0,0.83031 0.223499,1.48437 0.670499,1.96219 0.447,0.47782 1.00771,0.71673 1.68213,0.71673 0.68697,0 1.25238,-0.24126 1.69624,-0.72378 C 5.43379,5.14322 5.65572,4.45861 5.65572,3.5719 5.65572,3.01105 5.56083,2.52148 5.37105,2.10319 5.18127,1.6849 4.90366,1.36061 4.53822,1.13032 4.17278,0.900025 3.76264,0.784878 3.30779,0.784878 2.66161,0.784878 2.1056,1.00656 1.63978,1.44991 1.17396,1.89326 0.941051,2.63349 0.941051,3.6706 Z"
         transform="translate(30.7488,81.3002)"
         id="path13"
         inkscape:connector-curvature="0" />
      <path
         style="fill:#000000;fill-rule:evenodd;stroke:none"
         d="M 0,6.89001 V 0 H 0.936346 L 4.55939,5.40955 V 0 H 5.43457 V 6.89001 H 4.49822 L 0.875178,1.47576 v 5.41425 z"
         transform="translate(43.5443,59.7654)"
         id="path15"
         inkscape:connector-curvature="0" />
      <path
         style="fill:#000000;fill-rule:evenodd;stroke:none"
         d="M 0,6.89001 V 0 h 0.91282 v 2.82932 h 3.5854 V 0 H 5.41104 V 6.89001 H 4.49822 V 3.6424 h -3.5854 v 3.24761 z"
         transform="translate(50.8092,59.7654)"
         id="path17"
         inkscape:connector-curvature="0" />
      <path
         style="fill:#000000;fill-rule:evenodd;stroke:none"
         d="M 0,3.6565 C 0,2.51286 0.30741,1.61754 0.92223,0.970523 1.53705,0.323508 2.33067,0 3.30309,0 3.93987,0 4.51391,0.151962 5.02521,0.455887 5.53652,0.759812 5.92627,1.18358 6.19447,1.7272 c 0.2682,0.54362 0.4023,1.16009 0.4023,1.8494 0,0.69871 -0.14116,1.3238 -0.42347,1.87525 C 5.89098,6.0033 5.49103,6.4208 4.97346,6.70436 4.45588,6.98792 3.89752,7.1297 3.29838,7.1297 2.64906,7.1297 2.06874,6.97304 1.55744,6.65971 1.04614,6.34639 0.658736,5.9187 0.395241,5.37665 0.131747,4.8346 0,4.26121 0,3.6565 Z m 0.941051,0.0141 c 0,0.83031 0.223499,1.48437 0.670499,1.96219 0.447,0.47782 1.00771,0.71673 1.68213,0.71673 0.68697,0 1.25238,-0.24126 1.69624,-0.72378 C 5.43379,5.14322 5.65572,4.45861 5.65572,3.5719 5.65572,3.01105 5.56083,2.52148 5.37105,2.10319 5.18127,1.6849 4.90366,1.36061 4.53822,1.13032 4.17278,0.900025 3.76264,0.784878 3.30779,0.784878 2.66161,0.784878 2.1056,1.00656 1.63978,1.44991 1.17396,1.89326 0.941051,2.63349 0.941051,3.6706 Z"
         transform="translate(55.3216,37.7456)"
         id="path19"
         inkscape:connector-curvature="0" />
      <path
         style="fill:none;stroke:#000000;stroke-width:0.722314;stroke-linecap:round;stroke-linejoin:bevel;stroke-dasharray:none"
         d="M 14.4545,0 0,0.240633"
         transform="translate(40.7136,29.3573)"
         id="path21"
         inkscape:connector-curvature="0" />
      <path
         style="fill:none;stroke:#000000;stroke-width:0.722314;stroke-linecap:round;stroke-linejoin:bevel;stroke-dasharray:none"
         d="M 6.98636,0 0,12.5129"
         transform="translate(33.7273,29.5979)"
         id="path23"
         inkscape:connector-curvature="0" />
      <path
         style="fill:none;stroke:#000000;stroke-width:0.722314;stroke-linecap:round;stroke-linejoin:bevel;stroke-dasharray:none"
         d="M 12.5273,0 0,7.219"
         transform="translate(21.2,42.1108)"
         id="path25"
         inkscape:connector-curvature="0" />
      <path
         style="fill:none;stroke:#000000;stroke-width:0.722314;stroke-linecap:round;stroke-linejoin:bevel;stroke-dasharray:none"
         d="M 0,0 12.5273,6.97836"
         transform="translate(33.7273,42.1108)"
         id="path27"
         inkscape:connector-curvature="0" />
      <path
         style="fill:none;stroke:#000000;stroke-width:0.722314;stroke-linecap:round;stroke-linejoin:bevel;stroke-dasharray:none"
         d="M 7.46818,12.5129 0,0"
         transform="translate(26.2591,29.5979)"
         id="path29"
         inkscape:connector-curvature="0" />
      <path
         style="fill:none;stroke:#000000;stroke-width:0.722314;stroke-linecap:round;stroke-linejoin:bevel;stroke-dasharray:none"
         d="M 8.19091,4.81266 0,0"
         transform="translate(13.4909,43.5546)"
         id="path31"
         inkscape:connector-curvature="0" />
      <path
         style="fill:none;stroke:#000000;stroke-width:0.722314;stroke-linecap:round;stroke-linejoin:bevel;stroke-dasharray:none"
         d="M 6.98636,3.85013 0,0"
         transform="translate(13.4909,46.6828)"
         id="path33"
         inkscape:connector-curvature="0" />
      <path
         style="fill:none;stroke:#000000;stroke-width:0.722314;stroke-linecap:round;stroke-linejoin:bevel;stroke-dasharray:none"
         d="M 0,0 V 9.3847"
         transform="translate(21.2,49.3298)"
         id="path35"
         inkscape:connector-curvature="0" />
      <path
         style="fill:none;stroke:#000000;stroke-width:0.722314;stroke-linecap:round;stroke-linejoin:bevel;stroke-dasharray:none"
         d="M 0,0 8.19091,4.57203"
         transform="translate(25.7773,66.4148)"
         id="path37"
         inkscape:connector-curvature="0" />
      <path
         style="fill:none;stroke:#000000;stroke-width:0.722314;stroke-linecap:round;stroke-linejoin:bevel;stroke-dasharray:none"
         d="M 0,0 V 9.14406"
         transform="translate(32.7636,70.9868)"
         id="path39"
         inkscape:connector-curvature="0" />
      <path
         style="fill:none;stroke:#000000;stroke-width:0.722314;stroke-linecap:round;stroke-linejoin:bevel;stroke-dasharray:none"
         d="M 0,0 V 9.14406"
         transform="translate(35.4136,70.9868)"
         id="path41"
         inkscape:connector-curvature="0" />
      <path
         style="fill:none;stroke:#000000;stroke-width:0.722314;stroke-linecap:round;stroke-linejoin:bevel;stroke-dasharray:none"
         d="M 0,4.57203 7.70909,0"
         transform="translate(33.9682,66.4148)"
         id="path43"
         inkscape:connector-curvature="0" />
      <path
         style="fill:none;stroke:#000000;stroke-width:0.722314;stroke-linecap:round;stroke-linejoin:bevel;stroke-dasharray:none"
         d="M 0,9.3847 V 0"
         transform="translate(46.2545,49.0892)"
         id="path45"
         inkscape:connector-curvature="0" />
      <path
         style="fill:none;stroke:#000000;stroke-width:0.722314;stroke-linecap:round;stroke-linejoin:bevel;stroke-dasharray:none"
         d="M 0,4.09077 6.98636,0"
         transform="translate(46.7364,46.2016)"
         id="path47"
         inkscape:connector-curvature="0" />
      <path
         style="fill:none;stroke:#000000;stroke-width:0.722314;stroke-linecap:round;stroke-linejoin:bevel;stroke-dasharray:none"
         d="M 0,4.81266 8.19091,0"
         transform="translate(45.5318,43.0734)"
         id="path49"
         inkscape:connector-curvature="0" />
      <path
         style="fill:none;stroke:#000000;stroke-width:0.722314;stroke-linecap:round;stroke-linejoin:bevel;stroke-dasharray:none"
         d="M 0,12.5129 7.22727,0"
         transform="translate(26.2591,17.085)"
         id="path51"
         inkscape:connector-curvature="0" />
      <path
         style="fill:none;stroke:#000000;stroke-width:0.722314;stroke-linecap:round;stroke-linejoin:bevel;stroke-dasharray:none"
         d="M 0,10.3472 6.02273,0"
         transform="translate(24.5727,16.8443)"
         id="path53"
         inkscape:connector-curvature="0" />
      <path
         style="fill:none;stroke:#000000;stroke-width:0.722314;stroke-linecap:round;stroke-linejoin:bevel;stroke-dasharray:none"
         d="M 14.4545,0 H 0"
         transform="translate(11.8045,29.5979)"
         id="path55"
         inkscape:connector-curvature="0" />
      <path
         style="fill:none;stroke:#000000;stroke-width:0.722314;stroke-linecap:round;stroke-linejoin:bevel;stroke-dasharray:none"
         d="M 7.22727,12.5129 0,0"
         transform="translate(26.2591,4.57203)"
         id="path57"
         inkscape:connector-curvature="0" />
      <path
         style="fill:none;stroke:#000000;stroke-width:0.722314;stroke-linecap:round;stroke-linejoin:bevel;stroke-dasharray:none"
         d="M 14.4545,0 0,0.240633"
         transform="translate(11.8045,4.57203)"
         id="path59"
         inkscape:connector-curvature="0" />
      <path
         style="fill:none;stroke:#000000;stroke-width:0.722314;stroke-linecap:round;stroke-linejoin:bevel;stroke-dasharray:none"
         d="M 12.0455,0 H 0"
         transform="translate(13.0091,7.219)"
         id="path61"
         inkscape:connector-curvature="0" />
      <path
         style="fill:none;stroke:#000000;stroke-width:0.722314;stroke-linecap:round;stroke-linejoin:bevel;stroke-dasharray:none"
         d="M 7.22727,0 0,12.5129"
         transform="translate(4.57727,4.81266)"
         id="path63"
         inkscape:connector-curvature="0" />
      <path
         style="fill:none;stroke:#000000;stroke-width:0.722314;stroke-linecap:round;stroke-linejoin:bevel;stroke-dasharray:none"
         d="M 0,0 7.22727,12.2723"
         transform="translate(4.57727,17.3256)"
         id="path65"
         inkscape:connector-curvature="0" />
      <path
         style="fill:none;stroke:#000000;stroke-width:0.722314;stroke-linecap:round;stroke-linejoin:bevel;stroke-dasharray:none"
         d="M 0,0 6.02273,10.5879"
         transform="translate(7.46818,16.8443)"
         id="path67"
         inkscape:connector-curvature="0" />
    </g>
  </g>
</svg>
