<?xml version="1.0" encoding="UTF-8"?>
<svg viewBox="0 0 321 230" version="1.1" xmlns:xlink="http://www.w3.org/1999/xlink" width="321pt" height="230pt" xmlns="http://www.w3.org/2000/svg" xmlns:inkscape="http://www.inkscape.org/namespaces/inkscape">
 <title>(-)-Cocaine_Structural_Formula_V1.eps</title>
 <defs>
  <clipPath id="Clip0">
   <path d="M0 0 L313.177 0 L313.177 222.2 L0 222.2 L0 0 Z"/>
  </clipPath>
 </defs>
 <g inkscape:groupmode="layer" inkscape:label="Hintergrund" id="Hintergrund">
  <g transform="translate(4.97347, 4.65) scale(1, 1)" style="fill:none; stroke:none" clip-rule="evenodd" id="Gruppe6" clip-path="url(#Clip0)">
   <path transform="translate(66.6765, 39.55)" style="fill:#000000; fill-rule:nonzero;stroke:none;" d="M21.4 11 L20.6 12.5 L0 1.5 L0.85 0 L21.4 11 Z"/>
   <path transform="translate(43.5265, 27.2)" style="fill:#000000; fill-rule:nonzero;stroke:none;" d="M0 1.5 L0.8 0 L18.5 9.4 L17.65 10.9 L0 1.5 Z"/>
   <path transform="translate(53.3265, 21.4)" style="fill:#000000; fill-rule:nonzero;stroke:none;" d="M1.9 35.4 L0 35.3 L19.85 0 L20.95 1.5 L1.9 35.4 Z"/>
   <path transform="translate(112.627, 14.9)" style="fill:#000000; fill-rule:nonzero;stroke:none;" d="M30.55 27.2 L28.8 27.9 L0 1.8 L0.55 0 L30.55 27.2 Z"/>
   <path transform="translate(138.977, 42.1)" style="fill:#000000; fill-rule:nonzero;stroke:none;" d="M2.45 0.7 L4.2 0 L1.65 40.45 L0 39.5 L2.45 0.7 Z"/>
   <path transform="translate(204.377, 53.6)" style="fill:#000000; fill-rule:nonzero;stroke:none;" d="M0 0 L1.7 0 L2.05 29.4 L0.35 29.45 L0 0 Z"/>
   <path transform="translate(210.327, 53.55)" style="fill:#000000; fill-rule:nonzero;stroke:none;" d="M0 0 L1.7 0 L2.05 29.4 L0.35 29.4 L0 0 Z"/>
   <path transform="translate(243.127, 79.5)" style="fill:#000000; fill-rule:nonzero;stroke:none;" d="M34.15 0 L34.15 2 L0.85 21.7 L0 21.25 L0 20.25 "/>
   <path transform="translate(248.677, 86.65)" style="fill:#000000; fill-rule:nonzero;stroke:none;" d="M28.25 0 L29.1 1.45 L0.9 18.2 L0 16.7 L28.25 0 Z"/>
   <path transform="translate(277.277, 79.5)" style="fill:#000000; fill-rule:nonzero;stroke:none;" d="M0 2 L0 0 L35.45 19.95 L33.75 20.95 L0 2 Z"/>
   <path transform="translate(311.027, 99.45)" style="fill:#000000; fill-rule:nonzero;stroke:none;" d="M0 1 L1.7 0 L2.15 40.65 L0.45 39.7 L0 1 Z"/>
   <path transform="translate(305.127, 103.45)" style="fill:#000000; fill-rule:nonzero;stroke:none;" d="M0 0 L1.7 0 L2.05 32.8 L0.35 32.85 L0 0 Z"/>
   <path transform="translate(278.177, 139.15)" style="fill:#000000; fill-rule:nonzero;stroke:none;" d="M33.3 0 L35 0.95 L0 21.7 L0 19.75 L33.3 0 Z"/>
   <path transform="translate(242.727, 139.9)" style="fill:#000000; fill-rule:nonzero;stroke:none;" d="M35.45 19 L35.45 20.95 L0 1 L1.7 0 L35.45 19 Z"/>
   <path transform="translate(249.077, 136.2)" style="fill:#000000; fill-rule:nonzero;stroke:none;" d="M29.45 16.05 L28.6 17.55 L0 1.45 L0.85 0 L29.45 16.05 Z"/>
   <path transform="translate(242.277, 100.75)" style="fill:#000000; fill-rule:nonzero;stroke:none;" d="M2.15 39.15 L0.45 40.15 L0 0.5 L0.85 0 L1.7 0.45 "/>
   <path transform="translate(208.527, 80.3)" style="fill:#000000; fill-rule:nonzero;stroke:none;" d="M34.6 19.45 L34.6 20.45 L33.75 20.95 L0.05 1.95 L0 0 "/>
   <path transform="translate(182.977, 80.3)" style="fill:#000000; fill-rule:nonzero;stroke:none;" d="M25.55 0 L25.6 1.95 L0.85 16.6 L0 15.15 L25.55 0 Z"/>
   <path transform="translate(162.127, 92.45)" style="fill:#000000; fill-rule:nonzero;stroke:none;" d="M5.1 0.65 L1.35 7.3 L0 6.3 L3.55 0 L5.1 0.65 Z"/>
   <path transform="translate(158.327, 90.65)" style="fill:#000000; fill-rule:nonzero;stroke:none;" d="M4.55 0.65 L1.35 6.35 L0 5.35 L3 0 L4.55 0.65 Z"/>
   <path transform="translate(154.477, 88.85)" style="fill:#000000; fill-rule:nonzero;stroke:none;" d="M4.05 0.65 L1.4 5.4 L0 4.35 L2.5 0 L4.05 0.65 Z"/>
   <path transform="translate(150.677, 87.05)" style="fill:#000000; fill-rule:nonzero;stroke:none;" d="M3.5 0.65 L1.4 4.4 L0 3.4 L1.95 0 L3.5 0.65 Z"/>
   <path transform="translate(146.877, 85.2)" style="fill:#000000; fill-rule:nonzero;stroke:none;" d="M3 0.7 L1.4 3.5 L0 2.45 L1.4 0 L3 0.7 Z"/>
   <path transform="translate(143.077, 83.4)" style="fill:#000000; fill-rule:nonzero;stroke:none;" d="M2.45 0.65 L1.4 2.5 L0 1.5 L0.85 0 L2.45 0.65 Z"/>
   <path transform="translate(107.127, 81.6)" style="fill:#000000; fill-rule:nonzero;stroke:none;" d="M31.85 0 L33.5 0.95 L0.3 24.15 L0 22.25 L31.85 0 Z"/>
   <path transform="translate(112.777, 139.8)" style="fill:#000000; fill-rule:nonzero;stroke:none;" d="M29.65 11 L29.05 12.6 L0 1.55 L0.6 0 L29.65 11 Z"/>
   <path transform="translate(110.677, 145.35)" style="fill:#000000; fill-rule:nonzero;stroke:none;" d="M29.65 11 L29.05 12.6 L0 1.6 L0.6 0 L29.65 11 Z"/>
   <path transform="translate(83.9265, 180.65)" style="fill:#000000; fill-rule:nonzero;stroke:none;" d="M4.5 17.4 L2.85 17.65 L0 0.25 L1.7 0 L4.5 17.4 Z"/>
   <path transform="translate(90.4265, 143.3)" style="fill:#000000; fill-rule:nonzero;stroke:none;" d="M1.1 19.8 L0 18.5 L22.65 0 L23.75 1.35 L1.1 19.8 Z"/>
   <path transform="translate(111.677, 137.95)" style="fill:#000000; fill-rule:nonzero;stroke:none;" d="M2.1 1.7 L0.45 1.95 L0 0.3 L2 0 L2.1 1.7 Z"/>
   <path transform="translate(110.427, 133)" style="fill:#000000; fill-rule:nonzero;stroke:none;" d="M3.05 1.7 L0.45 2.15 L0 0.5 L2.9 0 L3.05 1.7 Z"/>
   <path transform="translate(109.177, 128.1)" style="fill:#000000; fill-rule:nonzero;stroke:none;" d="M3.95 1.7 L0.45 2.25 L0 0.6 L3.85 0 L3.95 1.7 Z"/>
   <path transform="translate(107.927, 123.15)" style="fill:#000000; fill-rule:nonzero;stroke:none;" d="M4.9 1.7 L0.45 2.45 L0 0.8 L4.75 0 L4.9 1.7 Z"/>
   <path transform="translate(106.677, 118.25)" style="fill:#000000; fill-rule:nonzero;stroke:none;" d="M5.8 1.7 L0.45 2.55 L0 0.9 L5.7 0 L5.8 1.7 Z"/>
   <path transform="translate(105.427, 113.3)" style="fill:#000000; fill-rule:nonzero;stroke:none;" d="M6.75 1.7 L0.45 2.75 L0 1.1 L6.6 0 L6.75 1.7 Z"/>
   <path transform="translate(104.177, 108.4)" style="fill:#000000; fill-rule:nonzero;stroke:none;" d="M7.65 1.7 L0.45 2.85 L0 1.2 L7.55 0 L7.65 1.7 Z"/>
   <path transform="translate(68.5765, 92.85)" style="fill:#000000; fill-rule:nonzero;stroke:none;" d="M38.55 11 L38.85 12.9 L0 1.4 L1.25 0 L38.55 11 Z"/>
   <path transform="translate(68.8265, 86.6)" style="fill:#000000; fill-rule:nonzero;stroke:none;" d="M6 5.95 L0 1.2 L1.15 0 L6.9 4.5 L6 5.95 Z"/>
   <path transform="translate(71.9265, 83.35)" style="fill:#000000; fill-rule:nonzero;stroke:none;" d="M5.3 5.4 L0 1.25 L1.2 0 L6.2 3.95 L5.3 5.4 Z"/>
   <path transform="translate(75.0765, 80.1)" style="fill:#000000; fill-rule:nonzero;stroke:none;" d="M4.55 4.8 L0 1.25 L1.15 0 L5.45 3.35 L4.55 4.8 Z"/>
   <path transform="translate(78.1765, 76.9)" style="fill:#000000; fill-rule:nonzero;stroke:none;" d="M3.8 4.2 L0 1.2 L1.2 0 L4.75 2.75 L3.8 4.2 Z"/>
   <path transform="translate(81.2765, 73.65)" style="fill:#000000; fill-rule:nonzero;stroke:none;" d="M3.1 3.65 L0 1.25 L1.2 0 L4 2.2 L3.1 3.65 Z"/>
   <path transform="translate(84.4265, 70.4)" style="fill:#000000; fill-rule:nonzero;stroke:none;" d="M2.35 3.1 L0 1.25 L1.2 0 L3.25 1.65 L2.35 3.1 Z"/>
   <path transform="translate(87.5265, 67.2)" style="fill:#000000; fill-rule:nonzero;stroke:none;" d="M1.65 2.5 L0 1.2 L1.2 0 L2.55 1.05 L1.65 2.5 Z"/>
   <path transform="translate(53.3265, 56.7)" style="fill:#000000; fill-rule:nonzero;stroke:none;" d="M16.5 36.15 L15.25 37.55 L0 0 L1.9 0.1 L16.5 36.15 Z"/>
   <path transform="translate(73.1765, 14.9)" style="fill:#000000; fill-rule:nonzero;stroke:none;" d="M1.1 8 L0 6.5 L40 0 L39.45 1.8 L1.1 8 Z"/>
   <path transform="translate(107.477, 18.45)" style="fill:#000000; fill-rule:nonzero;stroke:none;" d="M0.4 0 L7.55 2.65 L6.8 4.2 L0 1.7 L0.4 0 Z"/>
   <path transform="translate(106.377, 22.7)" style="fill:#000000; fill-rule:nonzero;stroke:none;" d="M0.45 0 L6.75 2.3 L6 3.85 L0 1.65 L0.45 0 Z"/>
   <path transform="translate(105.327, 26.95)" style="fill:#000000; fill-rule:nonzero;stroke:none;" d="M0.45 0 L5.85 2 L5.1 3.5 L0 1.65 L0.45 0 Z"/>
   <path transform="translate(104.277, 31.2)" style="fill:#000000; fill-rule:nonzero;stroke:none;" d="M0.45 0 L5 1.65 L4.25 3.2 L0 1.65 L0.45 0 Z"/>
   <path transform="translate(103.227, 35.4)" style="fill:#000000; fill-rule:nonzero;stroke:none;" d="M0.45 0 L4.1 1.35 L3.35 2.9 L0 1.65 L0.45 0 Z"/>
   <path transform="translate(102.177, 39.65)" style="fill:#000000; fill-rule:nonzero;stroke:none;" d="M0.45 0 L3.25 1.05 L2.5 2.55 L0 1.65 L0.45 0 Z"/>
   <path transform="translate(101.127, 43.9)" style="fill:#000000; fill-rule:nonzero;stroke:none;" d="M0.45 0 L2.35 0.7 L1.6 2.25 L0 1.65 L0.45 0 Z"/>
   <g transform="translate(165.983, 33.05) scale(1, 1)" style="fill:none; stroke:none" id="Gruppe1">
    <path transform="translate(33.7, 0)" style="fill:#000000; fill-rule:nonzero;stroke:none;" d="M8.42188 0 C3.40625 0 0 3.67188 0 9.01563 C0 14.375 3.375 18 8.45313 18 C10.5781 18 12.4531 17.3594 13.875 16.1563 C15.7656 14.5938 16.8906 11.9375 16.8906 9.15625 C16.8906 3.64063 13.5625 0 8.42188 0 Z M8.42188 1.96875 C12.2188 1.96875 14.6563 4.76563 14.6563 9.10938 C14.6563 13.2344 12.1406 16.0469 8.45313 16.0469 C4.70313 16.0469 2.23438 13.2344 2.23438 9.01563 C2.23438 4.79688 4.70313 1.96875 8.42188 1.96875 Z"/>
    <path transform="translate(0, 59.9)" style="fill:#000000; fill-rule:nonzero;stroke:none;" d="M8.42188 0 C3.40625 0 0 3.67188 0 9.01563 C0 14.375 3.375 18 8.45313 18 C10.5781 18 12.4531 17.3594 13.875 16.1563 C15.7656 14.5938 16.8906 11.9375 16.8906 9.15625 C16.8906 3.64063 13.5625 0 8.42188 0 Z M8.42188 1.96875 C12.2188 1.96875 14.6563 4.76563 14.6563 9.10938 C14.6563 13.2344 12.1406 16.0469 8.45313 16.0469 C4.70313 16.0469 2.23438 13.2344 2.23438 9.01563 C2.23438 4.79688 4.70313 1.96875 8.42188 1.96875 Z"/>
   </g>
   <g transform="translate(142.627, 66.5) scale(1, 1)" style="fill:none; stroke:none" id="Gruppe2">
    <path transform="translate(0, 0)" style="fill:#989898; fill-rule:nonzero;stroke:none;" d="M4.9375 0 C1.5 3.96875 0 7.28125 0 10.9375 C0 12.7031 0.453125 14.6094 1.39063 16.7344 L3.1875 16.7344 C2.40625 14.125 2.14063 12.7813 2.14063 11.1094 C2.14063 8.71875 2.8125 6.34375 4.15625 3.89063 C4.79688 2.75 5.45313 1.75 6.73438 0 L4.9375 0 Z"/>
    <path transform="translate(5.85337, 0)" style="fill:#989898; fill-rule:nonzero;stroke:none;" d="M11.5469 4.0625 C11.6563 3.60938 11.6875 3.375 11.6875 3.04688 C11.6875 1.15625 10.0156 0 7.15625 0 C5.40625 0 4.03125 0.4375 3.01563 1.34375 C1.98438 2.21875 1.35938 3.46875 1.35938 4.64063 C1.35938 6.01563 2.25 6.73438 4.39063 7.14063 L6.15625 7.46875 C7.79688 7.76563 8.3125 8.09375 8.3125 8.875 C8.3125 10 7.10938 10.7031 5.23438 10.7031 C3.60938 10.7031 2.67188 10.1563 2.67188 9.21875 C2.67188 9.14063 2.6875 8.98438 2.70313 8.84375 L0.078125 8.84375 C0.015625 9.17188 0 9.32813 0 9.5625 C0 10.4375 0.359375 11.25 1.01563 11.8438 C1.875 12.625 3.09375 13 4.84375 13 C7.04688 13 8.71875 12.375 9.76563 11.1719 C10.5156 10.3594 11 9.15625 11 8.0625 C11 6.79688 10.0156 5.9375 8.17188 5.59375 L6.21875 5.23438 C4.51563 4.92188 4.03125 4.65625 4.03125 4.03125 C4.03125 2.96875 5.04688 2.3125 6.6875 2.3125 C8.21875 2.3125 9.0625 2.79688 9.0625 3.6875 C9.0625 3.76563 9.04688 3.92188 9.01563 4.0625 L11.5469 4.0625 Z"/>
    <path transform="translate(16.1094, 0)" style="fill:#989898; fill-rule:nonzero;stroke:none;" d="M1.8125 16.7344 C2.82813 15.5469 3.79688 14.2813 4.45313 13.2969 C5.98438 10.9219 6.79688 8.3125 6.79688 5.82813 C6.79688 4.04688 6.34375 2.20313 5.35938 0 L3.54688 0 C4.39063 2.67188 4.65625 3.95313 4.65625 5.64063 C4.65625 8.01563 3.98438 10.3906 2.60938 12.8438 C1.96875 14 1.39063 14.8594 0 16.7344 L1.8125 16.7344 Z"/>
    <path transform="translate(0, 0)" style="fill:#989898; fill-rule:nonzero;stroke:none;" d="M4.9375 0 C1.5 3.96875 0 7.28125 0 10.9375 C0 12.7031 0.453125 14.6094 1.39063 16.7344 L3.1875 16.7344 C2.40625 14.125 2.14063 12.7813 2.14063 11.1094 C2.14063 8.71875 2.8125 6.34375 4.15625 3.89063 C4.79688 2.75 5.45313 1.75 6.73438 0 L4.9375 0 Z"/>
    <path transform="translate(5.85337, 0)" style="fill:#989898; fill-rule:nonzero;stroke:none;" d="M11.5469 4.0625 C11.6563 3.60938 11.6875 3.375 11.6875 3.04688 C11.6875 1.15625 10.0156 0 7.15625 0 C5.40625 0 4.03125 0.4375 3.01563 1.34375 C1.98438 2.21875 1.35938 3.46875 1.35938 4.64063 C1.35938 6.01563 2.25 6.73438 4.39063 7.14063 L6.15625 7.46875 C7.79688 7.76563 8.3125 8.09375 8.3125 8.875 C8.3125 10 7.10938 10.7031 5.23438 10.7031 C3.60938 10.7031 2.67188 10.1563 2.67188 9.21875 C2.67188 9.14063 2.6875 8.98438 2.70313 8.84375 L0.078125 8.84375 C0.015625 9.17188 0 9.32813 0 9.5625 C0 10.4375 0.359375 11.25 1.01563 11.8438 C1.875 12.625 3.09375 13 4.84375 13 C7.04688 13 8.71875 12.375 9.76563 11.1719 C10.5156 10.3594 11 9.15625 11 8.0625 C11 6.79688 10.0156 5.9375 8.17188 5.59375 L6.21875 5.23438 C4.51563 4.92188 4.03125 4.65625 4.03125 4.03125 C4.03125 2.96875 5.04688 2.3125 6.6875 2.3125 C8.21875 2.3125 9.0625 2.79688 9.0625 3.6875 C9.0625 3.76563 9.04688 3.92188 9.01563 4.0625 L11.5469 4.0625 Z"/>
    <path transform="translate(16.1094, 0)" style="fill:#989898; fill-rule:nonzero;stroke:none;" d="M1.8125 16.7344 C2.82813 15.5469 3.79688 14.2813 4.45313 13.2969 C5.98438 10.9219 6.79688 8.3125 6.79688 5.82813 C6.79688 4.04688 6.34375 2.20313 5.35938 0 L3.54688 0 C4.39063 2.67188 4.65625 3.95313 4.65625 5.64063 C4.65625 8.01563 3.98438 10.3906 2.60938 12.8438 C1.96875 14 1.39063 14.8594 0 16.7344 L1.8125 16.7344 Z"/>
   </g>
   <g transform="translate(74.4328, 149.5) scale(1, 1)" style="fill:none; stroke:none" id="Gruppe3">
    <path transform="translate(67.9, 0)" style="fill:#000000; fill-rule:nonzero;stroke:none;" d="M8.42188 0 C3.40625 0 0 3.67188 0 9.01563 C0 14.375 3.375 18 8.45313 18 C10.5781 18 12.4531 17.3594 13.875 16.1563 C15.7656 14.5938 16.8906 11.9375 16.8906 9.15625 C16.8906 3.64063 13.5625 0 8.42188 0 Z M8.42188 1.96875 C12.2188 1.96875 14.6563 4.76563 14.6563 9.10938 C14.6563 13.2344 12.1406 16.0469 8.45313 16.0469 C4.70313 16.0469 2.23438 13.2344 2.23438 9.01563 C2.23438 4.79688 4.70313 1.96875 8.42188 1.96875 Z"/>
    <path transform="translate(7.28438, 50.2)" style="fill:#000000; fill-rule:nonzero;stroke:none;" d="M14.7344 5.64063 C14.0469 1.875 11.8438 0 8 0 C5.64063 0 3.75 0.75 2.45313 2.1875 C0.875 3.875 0 6.3125 0 9.07813 C0 11.8906 0.890625 14.3125 2.53125 15.9688 C3.89063 17.3594 5.625 18 7.90625 18 C12.1719 18 14.5781 15.7188 15.0938 11.1875 L12.7969 11.1875 C12.6094 12.3594 12.3594 13.1563 12 13.8438 C11.2813 15.25 9.79688 16.0469 7.92188 16.0469 C4.4375 16.0469 2.23438 13.3281 2.23438 9.0625 C2.23438 4.67188 4.32813 1.96875 7.73438 1.96875 C9.15625 1.96875 10.4688 2.375 11.1875 3.0625 C11.8438 3.64063 12.2031 4.34375 12.4531 5.64063 L14.7344 5.64063 Z"/>
    <path transform="translate(25.4561, 50.2)" style="fill:#000000; fill-rule:nonzero;stroke:none;" d="M11.2344 9.96875 L11.2344 18 L13.4688 18 L13.4688 0 L11.2344 0 L11.2344 8 L2.23438 8 L2.23438 0 L0 0 L0 18 L2.23438 18 L2.23438 9.96875 L11.2344 9.96875 Z"/>
    <path transform="translate(41.3622, 59.7)" style="fill:#000000; fill-rule:nonzero;stroke:none;" d="M3.40625 6.79688 L3.60938 6.79688 L4.26563 6.79688 C6 6.79688 6.92188 7.57813 6.92188 9.07813 C6.92188 10.6563 5.92188 11.6094 4.29688 11.6094 C2.54688 11.6094 1.70313 10.75 1.59375 8.92188 L0 8.92188 C0.078125 9.92188 0.265625 10.5781 0.5625 11.1406 C1.23438 12.375 2.46875 13 4.21875 13 C6.84375 13 8.54688 11.4375 8.54688 9.0625 C8.54688 7.46875 7.90625 6.60938 6.375 6.09375 C7.5625 5.625 8.15625 4.76563 8.15625 3.5 C8.15625 1.35938 6.70313 0 4.26563 0 C1.70313 0 0.328125 1.45313 0.28125 4.09375 L1.85938 4.09375 C1.875 3.32813 1.95313 2.89063 2.15625 2.51563 C2.51563 1.8125 3.29688 1.39063 4.29688 1.39063 C5.70313 1.39063 6.54688 2.20313 6.54688 3.54688 C6.54688 4.4375 6.21875 4.96875 5.51563 5.26563 C5.07813 5.4375 4.5 5.5 3.40625 5.51563 L3.40625 6.79688 Z"/>
    <path transform="translate(0, 11)" style="fill:#000000; fill-rule:nonzero;stroke:none;" d="M8.42188 0 C3.40625 0 0 3.67188 0 9.01563 C0 14.375 3.375 18 8.45313 18 C10.5781 18 12.4531 17.3594 13.875 16.1563 C15.7656 14.5938 16.8906 11.9375 16.8906 9.15625 C16.8906 3.64063 13.5625 0 8.42188 0 Z M8.42188 1.96875 C12.2188 1.96875 14.6563 4.76563 14.6563 9.10938 C14.6563 13.2344 12.1406 16.0469 8.45313 16.0469 C4.70313 16.0469 2.23438 13.2344 2.23438 9.01563 C2.23438 4.79688 4.70313 1.96875 8.42188 1.96875 Z"/>
   </g>
   <g transform="translate(47.8265, 0) scale(1, 1)" style="fill:none; stroke:none" id="Gruppe4">
    <path transform="translate(65.15, 99.9)" style="fill:#989898; fill-rule:nonzero;stroke:none;" d="M4.9375 0 C1.5 3.96875 0 7.28125 0 10.9375 C0 12.7031 0.453125 14.6094 1.39063 16.7344 L3.1875 16.7344 C2.40625 14.125 2.14063 12.7813 2.14063 11.1094 C2.14063 8.71875 2.8125 6.34375 4.15625 3.89063 C4.79688 2.75 5.45313 1.75 6.73438 0 L4.9375 0 Z"/>
    <path transform="translate(71.0815, 99.9)" style="fill:#989898; fill-rule:nonzero;stroke:none;" d="M3.79688 8 L6.89063 8 C7.92188 8 8.42188 8.3125 8.42188 8.95313 C8.42188 9.17188 8.39063 9.375 8.20313 10.0156 C7.85938 11.1875 7.73438 11.8438 7.73438 12.2813 C7.73438 12.5156 7.78125 12.6875 7.875 13 L10.75 13 L10.8594 12.5313 C10.625 12.3594 10.5313 12.1875 10.5313 11.9375 C10.5313 11.8125 10.5469 11.6719 10.5781 11.5 C11 9.375 11.0938 8.76563 11.0938 8.34375 C11.0938 7.67188 10.625 7.17188 9.6875 6.875 C10.6406 6.40625 11.1094 6.09375 11.5313 5.64063 C12.2344 4.90625 12.6875 3.75 12.6875 2.71875 C12.6875 2.03125 12.4063 1.32813 11.9219 0.84375 C11.3438 0.265625 10.625 0 9.57813 0 L2.78125 0 L0 13 L2.70313 13 L3.79688 8 Z M4.28125 5.75 L5 2.26563 L8.03125 2.26563 C8.85938 2.26563 9.26563 2.375 9.60938 2.64063 C9.85938 2.89063 10 3.20313 10 3.54688 C10 4.0625 9.8125 4.64063 9.46875 5 C9 5.53125 8.4375 5.75 7.54688 5.75 L4.28125 5.75 Z"/>
    <path transform="translate(82.2494, 99.9)" style="fill:#989898; fill-rule:nonzero;stroke:none;" d="M1.8125 16.7344 C2.82813 15.5469 3.79688 14.2813 4.45313 13.2969 C5.98438 10.9219 6.79688 8.3125 6.79688 5.82813 C6.79688 4.04688 6.34375 2.20313 5.35938 0 L3.54688 0 C4.39063 2.67188 4.65625 3.95313 4.65625 5.64063 C4.65625 8.01563 3.98438 10.3906 2.60938 12.8438 C1.96875 14 1.39063 14.8594 0 16.7344 L1.8125 16.7344 Z"/>
    <path transform="translate(65.15, 99.9)" style="fill:#989898; fill-rule:nonzero;stroke:none;" d="M4.9375 0 C1.5 3.96875 0 7.28125 0 10.9375 C0 12.7031 0.453125 14.6094 1.39063 16.7344 L3.1875 16.7344 C2.40625 14.125 2.14063 12.7813 2.14063 11.1094 C2.14063 8.71875 2.8125 6.34375 4.15625 3.89063 C4.79688 2.75 5.45313 1.75 6.73438 0 L4.9375 0 Z"/>
    <path transform="translate(71.0815, 99.9)" style="fill:#989898; fill-rule:nonzero;stroke:none;" d="M3.79688 8 L6.89063 8 C7.92188 8 8.42188 8.3125 8.42188 8.95313 C8.42188 9.17188 8.39063 9.375 8.20313 10.0156 C7.85938 11.1875 7.73438 11.8438 7.73438 12.2813 C7.73438 12.5156 7.78125 12.6875 7.875 13 L10.75 13 L10.8594 12.5313 C10.625 12.3594 10.5313 12.1875 10.5313 11.9375 C10.5313 11.8125 10.5469 11.6719 10.5781 11.5 C11 9.375 11.0938 8.76563 11.0938 8.34375 C11.0938 7.67188 10.625 7.17188 9.6875 6.875 C10.6406 6.40625 11.1094 6.09375 11.5313 5.64063 C12.2344 4.90625 12.6875 3.75 12.6875 2.71875 C12.6875 2.03125 12.4063 1.32813 11.9219 0.84375 C11.3438 0.265625 10.625 0 9.57813 0 L2.78125 0 L0 13 L2.70313 13 L3.79688 8 Z M4.28125 5.75 L5 2.26563 L8.03125 2.26563 C8.85938 2.26563 9.26563 2.375 9.60938 2.64063 C9.85938 2.89063 10 3.20313 10 3.54688 C10 4.0625 9.8125 4.64063 9.46875 5 C9 5.53125 8.4375 5.75 7.54688 5.75 L4.28125 5.75 Z"/>
    <path transform="translate(82.2494, 99.9)" style="fill:#989898; fill-rule:nonzero;stroke:none;" d="M1.8125 16.7344 C2.82813 15.5469 3.79688 14.2813 4.45313 13.2969 C5.98438 10.9219 6.79688 8.3125 6.79688 5.82813 C6.79688 4.04688 6.34375 2.20313 5.35938 0 L3.54688 0 C4.39063 2.67188 4.65625 3.95313 4.65625 5.64063 C4.65625 8.01563 3.98438 10.3906 2.60938 12.8438 C1.96875 14 1.39063 14.8594 0 16.7344 L1.8125 16.7344 Z"/>
    <path transform="translate(0, 95.9)" style="fill:#989898; fill-rule:nonzero;stroke:none;" d="M4.9375 0 C1.5 3.96875 0 7.28125 0 10.9375 C0 12.7031 0.453125 14.6094 1.39063 16.7344 L3.1875 16.7344 C2.40625 14.125 2.14063 12.7812 2.14063 11.1094 C2.14063 8.71875 2.8125 6.34375 4.15625 3.89062 C4.79688 2.75 5.45313 1.75 6.73438 0 L4.9375 0 Z"/>
    <path transform="translate(5.9315, 95.9)" style="fill:#989898; fill-rule:nonzero;stroke:none;" d="M3.79688 8 L6.89063 8 C7.92188 8 8.42188 8.3125 8.42188 8.95312 C8.42188 9.17187 8.39063 9.375 8.20313 10.0156 C7.85938 11.1875 7.73438 11.8437 7.73438 12.2812 C7.73438 12.5156 7.78125 12.6875 7.875 13 L10.75 13 L10.8594 12.5312 C10.625 12.3594 10.5313 12.1875 10.5313 11.9375 C10.5313 11.8125 10.5469 11.6719 10.5781 11.5 C11 9.375 11.0938 8.76562 11.0938 8.34375 C11.0938 7.67187 10.625 7.17187 9.6875 6.875 C10.6406 6.40625 11.1094 6.09375 11.5313 5.64062 C12.2344 4.90625 12.6875 3.75 12.6875 2.71875 C12.6875 2.03125 12.4063 1.32813 11.9219 0.84375 C11.3438 0.265625 10.625 0 9.57813 0 L2.78125 0 L0 13 L2.70313 13 L3.79688 8 Z M4.28125 5.75 L5 2.26562 L8.03125 2.26562 C8.85938 2.26562 9.26563 2.375 9.60938 2.64062 C9.85938 2.89062 10 3.20312 10 3.54687 C10 4.0625 9.8125 4.64062 9.46875 5 C9 5.53125 8.4375 5.75 7.54688 5.75 L4.28125 5.75 Z"/>
    <path transform="translate(17.0994, 95.9)" style="fill:#989898; fill-rule:nonzero;stroke:none;" d="M1.8125 16.7344 C2.82813 15.5469 3.79688 14.2812 4.45313 13.2969 C5.98438 10.9219 6.79688 8.3125 6.79688 5.82812 C6.79688 4.04687 6.34375 2.20312 5.35938 0 L3.54688 0 C4.39063 2.67187 4.65625 3.95312 4.65625 5.64062 C4.65625 8.01562 3.98438 10.3906 2.60938 12.8437 C1.96875 14 1.39063 14.8594 0 16.7344 L1.8125 16.7344 Z"/>
    <path transform="translate(0, 95.9)" style="fill:#989898; fill-rule:nonzero;stroke:none;" d="M4.9375 0 C1.5 3.96875 0 7.28125 0 10.9375 C0 12.7031 0.453125 14.6094 1.39063 16.7344 L3.1875 16.7344 C2.40625 14.125 2.14063 12.7812 2.14063 11.1094 C2.14063 8.71875 2.8125 6.34375 4.15625 3.89062 C4.79688 2.75 5.45313 1.75 6.73438 0 L4.9375 0 Z"/>
    <path transform="translate(5.9315, 95.9)" style="fill:#989898; fill-rule:nonzero;stroke:none;" d="M3.79688 8 L6.89063 8 C7.92188 8 8.42188 8.3125 8.42188 8.95312 C8.42188 9.17187 8.39063 9.375 8.20313 10.0156 C7.85938 11.1875 7.73438 11.8437 7.73438 12.2812 C7.73438 12.5156 7.78125 12.6875 7.875 13 L10.75 13 L10.8594 12.5312 C10.625 12.3594 10.5313 12.1875 10.5313 11.9375 C10.5313 11.8125 10.5469 11.6719 10.5781 11.5 C11 9.375 11.0938 8.76562 11.0938 8.34375 C11.0938 7.67187 10.625 7.17187 9.6875 6.875 C10.6406 6.40625 11.1094 6.09375 11.5313 5.64062 C12.2344 4.90625 12.6875 3.75 12.6875 2.71875 C12.6875 2.03125 12.4063 1.32813 11.9219 0.84375 C11.3438 0.265625 10.625 0 9.57813 0 L2.78125 0 L0 13 L2.70313 13 L3.79688 8 Z M4.28125 5.75 L5 2.26562 L8.03125 2.26562 C8.85938 2.26562 9.26563 2.375 9.60938 2.64062 C9.85938 2.89062 10 3.20312 10 3.54687 C10 4.0625 9.8125 4.64062 9.46875 5 C9 5.53125 8.4375 5.75 7.54688 5.75 L4.28125 5.75 Z"/>
    <path transform="translate(17.0994, 95.9)" style="fill:#989898; fill-rule:nonzero;stroke:none;" d="M1.8125 16.7344 C2.82813 15.5469 3.79688 14.2812 4.45313 13.2969 C5.98438 10.9219 6.79688 8.3125 6.79688 5.82812 C6.79688 4.04687 6.34375 2.20312 5.35938 0 L3.54688 0 C4.39063 2.67187 4.65625 3.95312 4.65625 5.64062 C4.65625 8.01562 3.98438 10.3906 2.60938 12.8437 C1.96875 14 1.39063 14.8594 0 16.7344 L1.8125 16.7344 Z"/>
    <path transform="translate(58.85, 0)" style="fill:#989898; fill-rule:nonzero;stroke:none;" d="M4.9375 0 C1.5 3.96875 0 7.28125 0 10.9375 C0 12.7031 0.453125 14.6094 1.39063 16.7344 L3.1875 16.7344 C2.40625 14.125 2.14063 12.7813 2.14063 11.1094 C2.14063 8.71875 2.8125 6.34375 4.15625 3.89063 C4.79688 2.75 5.45313 1.75 6.73438 0 L4.9375 0 Z"/>
    <path transform="translate(64.7034, 0)" style="fill:#989898; fill-rule:nonzero;stroke:none;" d="M11.5469 4.0625 C11.6563 3.60938 11.6875 3.375 11.6875 3.04688 C11.6875 1.15625 10.0156 0 7.15625 0 C5.40625 0 4.03125 0.4375 3.01563 1.34375 C1.98438 2.21875 1.35938 3.46875 1.35938 4.64063 C1.35938 6.01563 2.25 6.73438 4.39063 7.14063 L6.15625 7.46875 C7.79688 7.76563 8.3125 8.09375 8.3125 8.875 C8.3125 10 7.10938 10.7031 5.23438 10.7031 C3.60938 10.7031 2.67188 10.1563 2.67188 9.21875 C2.67188 9.14063 2.6875 8.98438 2.70313 8.84375 L0.078125 8.84375 C0.015625 9.17188 0 9.32813 0 9.5625 C0 10.4375 0.359375 11.25 1.01563 11.8438 C1.875 12.625 3.09375 13 4.84375 13 C7.04688 13 8.71875 12.375 9.76563 11.1719 C10.5156 10.3594 11 9.15625 11 8.0625 C11 6.79688 10.0156 5.9375 8.17188 5.59375 L6.21875 5.23438 C4.51563 4.92188 4.03125 4.65625 4.03125 4.03125 C4.03125 2.96875 5.04688 2.3125 6.6875 2.3125 C8.21875 2.3125 9.0625 2.79688 9.0625 3.6875 C9.0625 3.76563 9.04688 3.92188 9.01563 4.0625 L11.5469 4.0625 Z"/>
    <path transform="translate(74.9594, 0)" style="fill:#989898; fill-rule:nonzero;stroke:none;" d="M1.8125 16.7344 C2.82813 15.5469 3.79688 14.2813 4.45313 13.2969 C5.98438 10.9219 6.79688 8.3125 6.79688 5.82813 C6.79688 4.04688 6.34375 2.20313 5.35938 0 L3.54688 0 C4.39063 2.67188 4.65625 3.95313 4.65625 5.64063 C4.65625 8.01563 3.98438 10.3906 2.60938 12.8438 C1.96875 14 1.39063 14.8594 0 16.7344 L1.8125 16.7344 Z"/>
    <path transform="translate(58.85, 0)" style="fill:#989898; fill-rule:nonzero;stroke:none;" d="M4.9375 0 C1.5 3.96875 0 7.28125 0 10.9375 C0 12.7031 0.453125 14.6094 1.39063 16.7344 L3.1875 16.7344 C2.40625 14.125 2.14063 12.7813 2.14063 11.1094 C2.14063 8.71875 2.8125 6.34375 4.15625 3.89063 C4.79688 2.75 5.45313 1.75 6.73438 0 L4.9375 0 Z"/>
    <path transform="translate(64.7034, 0)" style="fill:#989898; fill-rule:nonzero;stroke:none;" d="M11.5469 4.0625 C11.6563 3.60938 11.6875 3.375 11.6875 3.04688 C11.6875 1.15625 10.0156 0 7.15625 0 C5.40625 0 4.03125 0.4375 3.01563 1.34375 C1.98438 2.21875 1.35938 3.46875 1.35938 4.64063 C1.35938 6.01563 2.25 6.73438 4.39063 7.14063 L6.15625 7.46875 C7.79688 7.76563 8.3125 8.09375 8.3125 8.875 C8.3125 10 7.10938 10.7031 5.23438 10.7031 C3.60938 10.7031 2.67188 10.1563 2.67188 9.21875 C2.67188 9.14063 2.6875 8.98438 2.70313 8.84375 L0.078125 8.84375 C0.015625 9.17188 0 9.32813 0 9.5625 C0 10.4375 0.359375 11.25 1.01563 11.8438 C1.875 12.625 3.09375 13 4.84375 13 C7.04688 13 8.71875 12.375 9.76563 11.1719 C10.5156 10.3594 11 9.15625 11 8.0625 C11 6.79688 10.0156 5.9375 8.17188 5.59375 L6.21875 5.23438 C4.51563 4.92188 4.03125 4.65625 4.03125 4.03125 C4.03125 2.96875 5.04688 2.3125 6.6875 2.3125 C8.21875 2.3125 9.0625 2.79688 9.0625 3.6875 C9.0625 3.76563 9.04688 3.92188 9.01563 4.0625 L11.5469 4.0625 Z"/>
    <path transform="translate(74.9594, 0)" style="fill:#989898; fill-rule:nonzero;stroke:none;" d="M1.8125 16.7344 C2.82813 15.5469 3.79688 14.2813 4.45313 13.2969 C5.98438 10.9219 6.79688 8.3125 6.79688 5.82813 C6.79688 4.04688 6.34375 2.20313 5.35938 0 L3.54688 0 C4.39063 2.67188 4.65625 3.95313 4.65625 5.64063 C4.65625 8.01563 3.98438 10.3906 2.60938 12.8438 C1.96875 14 1.39063 14.8594 0 16.7344 L1.8125 16.7344 Z"/>
   </g>
   <g transform="translate(0, 14.1) scale(1, 1)" style="fill:none; stroke:none" id="Gruppe5">
    <path transform="translate(91.089, 34.1)" style="fill:#000000; fill-rule:nonzero;stroke:none;" d="M13.6875 0 L11.5781 0 L11.5781 14.7344 L2.42188 0 L0 0 L0 18 L2.10938 18 L2.10938 3.40625 L11.1719 18 L13.6875 18 L13.6875 0 Z"/>
    <path transform="translate(0, 0)" style="fill:#000000; fill-rule:nonzero;stroke:none;" d="M11.2344 9.96875 L11.2344 18 L13.4688 18 L13.4688 0 L11.2344 0 L11.2344 8 L2.23438 8 L2.23438 0 L0 0 L0 18 L2.23438 18 L2.23438 9.96875 L11.2344 9.96875 Z"/>
    <path transform="translate(15.9062, 9.5)" style="fill:#000000; fill-rule:nonzero;stroke:none;" d="M3.40625 6.79688 L3.60938 6.79688 L4.26563 6.79688 C6 6.79688 6.92188 7.57813 6.92188 9.07813 C6.92188 10.6563 5.92188 11.6094 4.29688 11.6094 C2.54688 11.6094 1.70313 10.75 1.59375 8.92188 L0 8.92188 C0.078125 9.92188 0.265625 10.5781 0.5625 11.1406 C1.23438 12.375 2.46875 13 4.21875 13 C6.84375 13 8.54688 11.4375 8.54688 9.0625 C8.54688 7.46875 7.90625 6.60938 6.375 6.09375 C7.5625 5.625 8.15625 4.76563 8.15625 3.5 C8.15625 1.35938 6.70313 0 4.26563 0 C1.70313 0 0.328125 1.45313 0.28125 4.09375 L1.85938 4.09375 C1.875 3.32813 1.95313 2.89063 2.15625 2.51563 C2.51563 1.8125 3.29688 1.39063 4.29688 1.39063 C5.70313 1.39063 6.54688 2.20313 6.54688 3.54688 C6.54688 4.4375 6.21875 4.96875 5.51563 5.26563 C5.07813 5.4375 4.5 5.5 3.40625 5.51563 L3.40625 6.79688 Z"/>
    <path transform="translate(26.4921, 0)" style="fill:#000000; fill-rule:nonzero;stroke:none;" d="M14.7344 5.64063 C14.0469 1.875 11.8438 0 8 0 C5.64063 0 3.75 0.75 2.45313 2.1875 C0.875 3.875 0 6.3125 0 9.07813 C0 11.8906 0.890625 14.3125 2.53125 15.9688 C3.89063 17.3594 5.625 18 7.90625 18 C12.1719 18 14.5781 15.7188 15.0938 11.1875 L12.7969 11.1875 C12.6094 12.3594 12.3594 13.1563 12 13.8438 C11.2813 15.25 9.79688 16.0469 7.92188 16.0469 C4.4375 16.0469 2.23438 13.3281 2.23438 9.0625 C2.23438 4.67188 4.32813 1.96875 7.73438 1.96875 C9.15625 1.96875 10.4688 2.375 11.1875 3.0625 C11.8438 3.64063 12.2031 4.34375 12.4531 5.64063 L14.7344 5.64063 Z"/>
   </g>
  </g>
 </g>
</svg>
