<?xml version="1.0" encoding="utf-8"?>
<!DOCTYPE svg PUBLIC "-//W3C//DTD SVG 1.1//EN" "http://www.w3.org/Graphics/SVG/1.1/DTD/svg11.dtd">
<svg version="1.1" xmlns="http://www.w3.org/2000/svg" xmlns:xlink="http://www.w3.org/1999/xlink"
    x="0px" y="0px" width="348px" height="378px" viewBox="-4.891 -2.257 116 129" enable-background="new">
<g style="fill: none; stroke: #000000;">
    <polygon points="34.172,74.252 38.284,93.641 23.532,106.922 4.661,100.77 0.549,81.381 15.301,68.1 
        "/>
    <polyline points="67.375,68.198 67.375,88.043 84.573,97.963 101.734,88.043 101.734,68.198 
        84.535,58.278 "/>
    <polyline points="47.143,36.075 54.228,25.66 73.978,24.159 82.618,33.452 "/>
    <polyline points="86.652,44.129 84.535,58.278 67.375,68.198 48.924,60.972 44.962,48.146 "/>

    <line x1="84.573" y1="97.963" x2="84.577" y2="111.53"/>
    <line x1="83.89" y1="62.12" x2="71.021" y2="69.555"/>
    <line x1="98.732" y1="70.673" x2="98.732" y2="85.568"/>
    <line x1="83.919" y1="94.122" x2="71.021" y2="86.686"/>
    <line x1="48.924" y1="60.971" x2="34.172" y2="74.252"/>
    <line x1="92.53" y1="37.105" x2="106.43" y2="32.803"/>
    <line x1="7.947" y1="98.692" x2="22.106" y2="103.298"/>
    <line x1="4.398" y1="81.952" x2="15.466" y2="71.995"/>
    <line x1="31.748" y1="77.299" x2="34.84" y2="91.84"/>
    <line x1="51.062" y1="57.715" x2="47.855" y2="47.347"/>
    <line x1="72.285" y1="24.289" x2="78.24" y2="10.912"/>
    <line x1="75.09" y1="25.354" x2="80.949" y2="12.194"/>
</g>

<g style="font-family: 'DejaVu Sans'; font-size: 12px; fill: #000000;">
    <text text-anchor="start" x="80.08" y="122.25">Cl</text>
    <text text-anchor="middle" x="43.079" y="46.547">N</text>
    <text text-anchor="middle" x="87.469" y="43.059">N</text>
    <text text-anchor="middle" x="82.056" y="10.505">O</text>
</g>
</svg>
