<?xml version="1.0" encoding="UTF-8"?>
<!-- Converted by misc2svg (http://www.network-science.de/tools/misc2svg/) -->
<svg xmlns="http://www.w3.org/2000/svg" xmlns:xlink="http://www.w3.org/1999/xlink" width="353pt" height="245pt" viewBox="0 0 353 245" version="1.1">
<defs>
<clipPath id="clip1">
  <path d="M 0 245 L 352.5 245 L 352.5 0 L 0 0 L 0 245 Z M 0 245 "/>
</clipPath>
</defs>
<g id="misc2svg">
<g clip-path="url(#clip1)" clip-rule="nonzero">
<path style=" stroke:none;fill-rule: nonzero; fill: rgb(0%,0%,0%); fill-opacity: 1;" d="M 4.9375 166.6875 L 2.8125 165.4375 L 46.8125 140 L 46.8125 142.4375 L 4.9375 166.6875 Z M 4.9375 166.6875 "/>
<path style=" stroke:none;fill-rule: nonzero; fill: rgb(0%,0%,0%); fill-opacity: 1;" d="M 11.8125 171.25 L 10.75 169.4375 L 46.25 148.9375 L 47.3125 150.75 L 11.8125 171.25 Z M 11.8125 171.25 "/>
<path style=" stroke:none;fill-rule: nonzero; fill: rgb(0%,0%,0%); fill-opacity: 1;" d="M 4.9375 215.0625 L 2.8125 216.25 L 2.8125 165.4375 L 4.9375 166.6875 L 4.9375 215.0625 Z M 4.9375 215.0625 "/>
<path style=" stroke:none;fill-rule: nonzero; fill: rgb(0%,0%,0%); fill-opacity: 1;" d="M 46.8125 239.25 L 46.8125 241.6875 L 2.8125 216.25 L 4.9375 215.0625 L 46.8125 239.25 Z M 46.8125 239.25 "/>
<path style=" stroke:none;fill-rule: nonzero; fill: rgb(0%,0%,0%); fill-opacity: 1;" d="M 47.3125 230.9375 L 46.25 232.8125 L 10.75 212.25 L 11.8125 210.4375 L 47.3125 230.9375 Z M 47.3125 230.9375 "/>
<path style=" stroke:none;fill-rule: nonzero; fill: rgb(0%,0%,0%); fill-opacity: 1;" d="M 88.6875 215.0625 L 90.8125 216.25 L 46.8125 241.6875 L 46.8125 239.25 L 88.6875 215.0625 Z M 88.6875 215.0625 "/>
<path style=" stroke:none;fill-rule: nonzero; fill: rgb(0%,0%,0%); fill-opacity: 1;" d="M 88.6875 166.6875 L 89.75 166.0625 L 90.8125 166.6875 L 90.8125 216.25 L 88.6875 215.0625 L 88.6875 166.6875 Z M 88.6875 166.6875 "/>
<path style=" stroke:none;fill-rule: nonzero; fill: rgb(0%,0%,0%); fill-opacity: 1;" d="M 81.25 211.375 L 83.375 211.375 L 83.375 170.3125 L 81.25 170.3125 L 81.25 211.375 Z M 81.25 211.375 "/>
<path style=" stroke:none;fill-rule: nonzero; fill: rgb(0%,0%,0%); fill-opacity: 1;" d="M 46.8125 142.4375 L 46.8125 140 L 89.75 164.8125 L 89.75 166.0625 L 88.6875 166.6875 L 46.8125 142.4375 Z M 46.8125 142.4375 "/>
<path style=" stroke:none;fill-rule: nonzero; fill: rgb(0%,0%,0%); fill-opacity: 1;" d="M 174.625 166.6875 L 175.6875 166.0625 L 176.75 166.6875 L 176.75 215.0625 L 174.625 216.25 L 174.625 166.6875 Z M 174.625 166.6875 "/>
<path style=" stroke:none;fill-rule: nonzero; fill: rgb(0%,0%,0%); fill-opacity: 1;" d="M 182.0625 211.375 L 184.1875 211.375 L 184.1875 170.3125 L 182.0625 170.3125 L 182.0625 211.375 Z M 182.0625 211.375 "/>
<path style=" stroke:none;fill-rule: nonzero; fill: rgb(0%,0%,0%); fill-opacity: 1;" d="M 132.75 142.4375 L 132.75 141.25 L 133.8125 140.625 L 175.6875 164.8125 L 175.6875 166.0625 L 174.625 166.6875 L 132.75 142.4375 Z M 132.75 142.4375 "/>
<path style=" stroke:none;fill-rule: nonzero; fill: rgb(0%,0%,0%); fill-opacity: 1;" d="M 90.8125 166.6875 L 89.75 166.0625 L 89.75 164.8125 L 131.6875 140.625 L 132.75 141.25 L 132.75 142.4375 L 90.8125 166.6875 Z M 90.8125 166.6875 "/>
<path style=" stroke:none;fill-rule: nonzero; fill: rgb(0%,0%,0%); fill-opacity: 1;" d="M 218.6875 239.25 L 218.6875 241.6875 L 174.625 216.25 L 176.75 215.0625 L 218.6875 239.25 Z M 218.6875 239.25 "/>
<path style=" stroke:none;fill-rule: nonzero; fill: rgb(0%,0%,0%); fill-opacity: 1;" d="M 260.5625 215.0625 L 262.6875 216.25 L 218.6875 241.6875 L 218.6875 239.25 L 260.5625 215.0625 Z M 260.5625 215.0625 "/>
<path style=" stroke:none;fill-rule: nonzero; fill: rgb(0%,0%,0%); fill-opacity: 1;" d="M 253.6875 210.4375 L 254.75 212.25 L 219.1875 232.8125 L 218.125 230.9375 L 253.6875 210.4375 Z M 253.6875 210.4375 "/>
<path style=" stroke:none;fill-rule: nonzero; fill: rgb(0%,0%,0%); fill-opacity: 1;" d="M 260.5625 166.6875 L 262.6875 165.4375 L 262.6875 216.25 L 260.5625 215.0625 L 260.5625 166.6875 Z M 260.5625 166.6875 "/>
<path style=" stroke:none;fill-rule: nonzero; fill: rgb(0%,0%,0%); fill-opacity: 1;" d="M 218.6875 142.4375 L 218.6875 140 L 262.6875 165.4375 L 260.5625 166.6875 L 218.6875 142.4375 Z M 218.6875 142.4375 "/>
<path style=" stroke:none;fill-rule: nonzero; fill: rgb(0%,0%,0%); fill-opacity: 1;" d="M 218.125 150.75 L 219.1875 148.9375 L 254.75 169.4375 L 253.6875 171.25 L 218.125 150.75 Z M 218.125 150.75 "/>
<path style=" stroke:none;fill-rule: nonzero; fill: rgb(0%,0%,0%); fill-opacity: 1;" d="M 176.75 166.6875 L 175.6875 166.0625 L 175.6875 164.8125 L 218.6875 140 L 218.6875 142.4375 L 176.75 166.6875 Z M 176.75 166.6875 "/>
<path style=" stroke:none;fill-rule: nonzero; fill: rgb(0%,0%,0%); fill-opacity: 1;" d="M 122.507812 92.09375 C 122.507812 88.539062 123.464844 85.757812 125.378906 83.734375 C 127.292969 81.71875 129.765625 80.707031 132.800781 80.707031 C 134.777344 80.707031 136.5625 81.1875 138.152344 82.132812 C 139.753906 83.070312 140.96875 84.394531 141.804688 86.097656 C 142.632812 87.792969 143.054688 89.710938 143.054688 91.859375 C 143.054688 94.039062 142.609375 95.980469 141.726562 97.699219 C 140.851562 99.417969 139.609375 100.722656 137.996094 101.605469 C 136.378906 102.492188 134.640625 102.933594 132.78125 102.933594 C 130.757812 102.933594 128.953125 102.445312 127.351562 101.46875 C 125.757812 100.492188 124.558594 99.160156 123.738281 97.464844 C 122.917969 95.773438 122.507812 93.984375 122.507812 92.09375 Z M 125.4375 92.152344 C 125.4375 94.730469 126.132812 96.773438 127.527344 98.265625 C 128.917969 99.75 130.664062 100.492188 132.761719 100.492188 C 134.910156 100.492188 136.671875 99.746094 138.054688 98.246094 C 139.429688 96.738281 140.125 94.601562 140.125 91.839844 C 140.125 90.097656 139.820312 88.574219 139.226562 87.269531 C 138.640625 85.957031 137.773438 84.941406 136.628906 84.222656 C 135.496094 83.507812 134.226562 83.148438 132.820312 83.148438 C 130.796875 83.148438 129.0625 83.84375 127.605469 85.21875 C 126.160156 86.601562 125.4375 88.910156 125.4375 92.152344 Z M 125.4375 92.152344 "/>
<path style=" stroke:none;fill-rule: nonzero; fill: rgb(0%,0%,0%); fill-opacity: 1;" d="M 175.6875 68.0625 L 175.6875 65.5625 L 218.6875 90.375 L 218.6875 92.875 L 175.6875 68.0625 Z M 175.6875 68.0625 "/>
<path style=" stroke:none;fill-rule: nonzero; fill: rgb(0%,0%,0%); fill-opacity: 1;" d="M 144.9375 85.8125 L 143.875 84 L 175.6875 65.5625 L 175.6875 68.0625 L 144.9375 85.8125 Z M 144.9375 85.8125 "/>
<path style=" stroke:none;fill-rule: nonzero; fill: rgb(0%,0%,0%); fill-opacity: 1;" d="M 133.8125 140.625 L 132.75 141.25 L 131.6875 140.625 L 131.6875 105.75 L 133.8125 105.75 L 133.8125 140.625 Z M 133.8125 140.625 "/>
<path style=" stroke:none;fill-rule: nonzero; fill: rgb(0%,0%,0%); fill-opacity: 1;" d="M 253.160156 77.5625 L 253.160156 56.078125 L 256.070312 56.078125 L 267.359375 72.953125 L 267.359375 56.078125 L 270.074219 56.078125 L 270.074219 77.5625 L 267.164062 77.5625 L 255.894531 60.6875 L 255.894531 77.5625 L 253.160156 77.5625 Z M 253.160156 77.5625 "/>
<path style=" stroke:none;fill-rule: nonzero; fill: rgb(0%,0%,0%); fill-opacity: 1;" d="M 248.25 73.3125 L 249.3125 75.1875 L 218.6875 92.875 L 218.6875 90.375 L 248.25 73.3125 Z M 248.25 73.3125 "/>
<path style=" stroke:none;fill-rule: nonzero; fill: rgb(0%,0%,0%); fill-opacity: 1;" d="M 311.261719 95.023438 L 314.113281 95.746094 C 313.511719 98.078125 312.4375 99.863281 310.890625 101.097656 C 309.335938 102.324219 307.445312 102.933594 305.207031 102.933594 C 302.902344 102.933594 301.015625 102.464844 299.5625 101.527344 C 298.117188 100.578125 297.015625 99.210938 296.261719 97.425781 C 295.503906 95.628906 295.128906 93.710938 295.128906 91.664062 C 295.128906 89.429688 295.546875 87.476562 296.398438 85.804688 C 297.257812 84.140625 298.472656 82.875 300.050781 82.015625 C 301.625 81.15625 303.359375 80.726562 305.265625 80.726562 C 307.414062 80.726562 309.214844 81.273438 310.675781 82.367188 C 312.144531 83.460938 313.164062 85 313.742188 86.976562 L 310.949219 87.640625 C 310.441406 86.078125 309.710938 84.941406 308.761719 84.222656 C 307.824219 83.507812 306.636719 83.148438 305.207031 83.148438 C 303.550781 83.148438 302.171875 83.546875 301.066406 84.339844 C 299.957031 85.136719 299.175781 86.195312 298.722656 87.523438 C 298.277344 88.851562 298.058594 90.226562 298.058594 91.644531 C 298.058594 93.46875 298.316406 95.0625 298.839844 96.429688 C 299.371094 97.796875 300.195312 98.820312 301.320312 99.496094 C 302.453125 100.160156 303.667969 100.492188 304.972656 100.492188 C 306.574219 100.492188 307.921875 100.039062 309.015625 99.125 C 310.117188 98.203125 310.871094 96.835938 311.261719 95.023438 Z M 311.261719 95.023438 "/>
<path style=" stroke:none;fill-rule: nonzero; fill: rgb(0%,0%,0%); fill-opacity: 1;" d="M 317.6875 102.5625 L 317.6875 81.078125 L 320.539062 81.078125 L 320.539062 89.90625 L 331.691406 89.90625 L 331.691406 81.078125 L 334.542969 81.078125 L 334.542969 102.5625 L 331.691406 102.5625 L 331.691406 92.445312 L 320.539062 92.445312 L 320.539062 102.5625 L 317.6875 102.5625 Z M 317.6875 102.5625 "/>
<path style=" stroke:none;fill-rule: nonzero; fill: rgb(0%,0%,0%); fill-opacity: 1;" d="M 337.953125 104.664062 L 339.945312 104.410156 C 340.167969 105.53125 340.550781 106.335938 341.097656 106.832031 C 341.644531 107.328125 342.308594 107.574219 343.089844 107.574219 C 344.027344 107.574219 344.816406 107.253906 345.453125 106.617188 C 346.089844 105.964844 346.410156 105.164062 346.410156 104.214844 C 346.410156 103.304688 346.109375 102.554688 345.511719 101.96875 C 344.925781 101.371094 344.175781 101.070312 343.265625 101.070312 C 342.886719 101.070312 342.417969 101.148438 341.859375 101.304688 L 342.074219 99.566406 C 342.203125 99.578125 342.316406 99.585938 342.40625 99.585938 C 343.238281 99.585938 343.996094 99.363281 344.671875 98.921875 C 345.347656 98.480469 345.6875 97.800781 345.6875 96.890625 C 345.6875 96.160156 345.441406 95.5625 344.945312 95.09375 C 344.449219 94.613281 343.820312 94.371094 343.050781 94.371094 C 342.28125 94.371094 341.636719 94.613281 341.117188 95.09375 C 340.609375 95.574219 340.285156 96.304688 340.140625 97.28125 L 338.167969 96.929688 C 338.402344 95.601562 338.949219 94.574219 339.808594 93.84375 C 340.667969 93.113281 341.734375 92.75 343.011719 92.75 C 343.882812 92.75 344.691406 92.9375 345.433594 93.316406 C 346.175781 93.695312 346.742188 94.207031 347.132812 94.859375 C 347.523438 95.511719 347.71875 96.199219 347.71875 96.929688 C 347.71875 97.632812 347.53125 98.269531 347.152344 98.84375 C 346.789062 99.402344 346.234375 99.851562 345.492188 100.191406 C 346.441406 100.414062 347.179688 100.875 347.699219 101.578125 C 348.234375 102.269531 348.5 103.128906 348.5 104.15625 C 348.5 105.5625 347.984375 106.761719 346.957031 107.75 C 345.941406 108.726562 344.652344 109.214844 343.089844 109.214844 C 341.671875 109.214844 340.492188 108.792969 339.554688 107.945312 C 338.628906 107.097656 338.097656 106.003906 337.953125 104.664062 Z M 337.953125 104.664062 "/>
<path style=" stroke:none;fill-rule: nonzero; fill: rgb(0%,0%,0%); fill-opacity: 1;" d="M 293.9375 84.25 L 292.875 86.0625 L 273.875 75.125 L 274.9375 73.25 L 293.9375 84.25 Z M 293.9375 84.25 "/>
<path style=" stroke:none;fill-rule: nonzero; fill: rgb(0%,0%,0%); fill-opacity: 1;" d="M 268.261719 20.585938 L 271.113281 21.308594 C 270.511719 23.640625 269.4375 25.425781 267.890625 26.660156 C 266.335938 27.886719 264.445312 28.496094 262.207031 28.496094 C 259.902344 28.496094 258.015625 28.027344 256.5625 27.089844 C 255.117188 26.140625 254.015625 24.773438 253.261719 22.988281 C 252.503906 21.191406 252.128906 19.273438 252.128906 17.226562 C 252.128906 14.992188 252.546875 13.039062 253.398438 11.367188 C 254.257812 9.703125 255.472656 8.4375 257.050781 7.578125 C 258.625 6.71875 260.359375 6.289062 262.265625 6.289062 C 264.414062 6.289062 266.214844 6.835938 267.675781 7.929688 C 269.144531 9.023438 270.164062 10.5625 270.742188 12.539062 L 267.949219 13.203125 C 267.441406 11.640625 266.710938 10.503906 265.761719 9.785156 C 264.824219 9.070312 263.636719 8.710938 262.207031 8.710938 C 260.550781 8.710938 259.171875 9.109375 258.066406 9.902344 C 256.957031 10.699219 256.175781 11.757812 255.722656 13.085938 C 255.277344 14.414062 255.058594 15.789062 255.058594 17.207031 C 255.058594 19.03125 255.316406 20.625 255.839844 21.992188 C 256.371094 23.359375 257.195312 24.382812 258.320312 25.058594 C 259.453125 25.722656 260.667969 26.054688 261.972656 26.054688 C 263.574219 26.054688 264.921875 25.601562 266.015625 24.6875 C 267.117188 23.765625 267.871094 22.398438 268.261719 20.585938 Z M 268.261719 20.585938 "/>
<path style=" stroke:none;fill-rule: nonzero; fill: rgb(0%,0%,0%); fill-opacity: 1;" d="M 274.6875 28.125 L 274.6875 6.640625 L 277.539062 6.640625 L 277.539062 15.46875 L 288.691406 15.46875 L 288.691406 6.640625 L 291.542969 6.640625 L 291.542969 28.125 L 288.691406 28.125 L 288.691406 18.007812 L 277.539062 18.007812 L 277.539062 28.125 L 274.6875 28.125 Z M 274.6875 28.125 "/>
<path style=" stroke:none;fill-rule: nonzero; fill: rgb(0%,0%,0%); fill-opacity: 1;" d="M 294.957031 30.222656 L 296.949219 29.96875 C 297.167969 31.09375 297.554688 31.898438 298.101562 32.390625 C 298.648438 32.890625 299.3125 33.132812 300.09375 33.132812 C 301.03125 33.132812 301.816406 32.816406 302.457031 32.175781 C 303.089844 31.527344 303.414062 30.726562 303.414062 29.773438 C 303.414062 28.867188 303.109375 28.113281 302.515625 27.527344 C 301.929688 26.933594 301.175781 26.628906 300.269531 26.628906 C 299.886719 26.628906 299.417969 26.707031 298.863281 26.863281 L 299.078125 25.125 C 299.203125 25.140625 299.316406 25.144531 299.410156 25.144531 C 300.238281 25.144531 300.996094 24.925781 301.675781 24.480469 C 302.347656 24.042969 302.691406 23.363281 302.691406 22.449219 C 302.691406 21.722656 302.441406 21.121094 301.949219 20.652344 C 301.449219 20.175781 300.820312 19.929688 300.054688 19.929688 C 299.28125 19.929688 298.636719 20.175781 298.121094 20.652344 C 297.613281 21.136719 297.285156 21.863281 297.144531 22.839844 L 295.171875 22.488281 C 295.40625 21.160156 295.953125 20.136719 296.8125 19.402344 C 297.671875 18.675781 298.734375 18.308594 300.015625 18.308594 C 300.882812 18.308594 301.695312 18.5 302.4375 18.875 C 303.179688 19.257812 303.746094 19.769531 304.136719 20.417969 C 304.527344 21.074219 304.722656 21.761719 304.722656 22.488281 C 304.722656 23.191406 304.53125 23.832031 304.15625 24.402344 C 303.789062 24.964844 303.238281 25.414062 302.496094 25.75 C 303.441406 25.976562 304.179688 26.433594 304.703125 27.136719 C 305.234375 27.832031 305.503906 28.691406 305.503906 29.714844 C 305.503906 31.121094 304.984375 32.324219 303.960938 33.308594 C 302.945312 34.285156 301.65625 34.773438 300.09375 34.773438 C 298.671875 34.773438 297.496094 34.355469 296.558594 33.503906 C 295.628906 32.660156 295.097656 31.566406 294.957031 30.222656 Z M 294.957031 30.222656 "/>
<path style=" stroke:none;fill-rule: nonzero; fill: rgb(0%,0%,0%); fill-opacity: 1;" d="M 260.5625 53.3125 L 262.6875 53.3125 L 262.6875 31.375 L 260.5625 31.375 L 260.5625 53.3125 Z M 260.5625 53.3125 "/>
</g>
</g>
</svg>
