<?xml version="1.0" encoding="utf-8"?>
<!-- Generator: Adobe Illustrator 16.0.0, SVG Export Plug-In . SVG Version: 6.00 Build 0)  -->
<!DOCTYPE svg PUBLIC "-//W3C//DTD SVG 1.1//EN" "http://www.w3.org/Graphics/SVG/1.1/DTD/svg11.dtd">
<svg version="1.1" id="Слой_1" xmlns="http://www.w3.org/2000/svg" xmlns:xlink="http://www.w3.org/1999/xlink" x="0px" y="0px"
	 width="460.12px" height="314.617px" viewBox="0 0 460.12 314.617" enable-background="new 0 0 460.12 314.617"
	 xml:space="preserve">
<g>
	<rect x="68.496" y="229.98" fill="#FF3333" width="2.398" height="45.625"/>
	
		<rect x="127.768" y="264.198" transform="matrix(0.4992 0.8665 -0.8665 0.4992 313.2771 31.9859)" fill="#FF3333" width="2.398" height="45.628"/>
	<polygon fill="#FF3333" points="149.324,228.941 109.81,206.121 108.611,208.207 148.126,231.02 	"/>
	<path fill="#FF3333" d="M248.699,252.09l-1.176-1.625l-0.003,0.002l-32.677-44.979l-0.968,0.706l-0.372-1.144l-54.272,17.632
		l-49.421-28.53l-0.6,1.039l-0.6-1.039l-49.883,28.797l0.602,1.047h-1.204v55.594v2v0.695l0.602,0.344l48.15,27.805l0,0l1.732,1
		l0.6,0.344l0.6-0.344l1.732-1l0,0l47.688-27.538l52.371,17.021l0,0.001l1.902,0.617l0.828,0.266l0.512-0.703l1.176-1.617h0
		l31.506-43.368l0.002,0.001l1.172-1.617l0.516-0.703L248.699,252.09z M159.091,223.996l0.002-0.004l0.001,0.004H159.091z
		 M60.527,224.688l48.684-28.111l48.682,28.11v56.211l-48.682,28.11l-48.684-28.111v-1.308V224.688z M213.413,297.983l-53.12-17.265
		v-55.852l53.12-17.265l32.173,44.276l0,0l0.664,0.914l-0.664,0.914l0,0L213.413,297.983z"/>
</g>
<g>
	<polygon points="214.937,196.441 218.742,197.684 219.673,195.465 215.49,194.098 	"/>
	<polygon points="217.144,187.066 222.468,188.801 223.4,186.582 217.695,184.723 	"/>
	<polygon points="212.732,205.824 213.875,206.191 215.015,206.566 215.947,204.348 213.285,203.48 	"/>
	<polygon points="223.761,158.941 233.652,162.152 234.582,159.934 224.312,156.594 	"/>
	<polygon points="219.349,177.691 226.195,179.918 227.128,177.699 219.9,175.348 	"/>
	<polygon points="221.554,168.316 229.923,171.035 230.855,168.816 222.107,165.973 	"/>
	<polygon points="298.203,104.199 287.493,137.164 287.492,137.164 287.088,138.408 231.425,150.238 231.925,152.586 
		288.265,140.611 288.941,140.467 289.156,139.809 300.484,104.941 	"/>
</g>
<g>
	<polygon fill="#00A653" points="456.789,102.336 401.125,114.166 367.515,76.84 379.316,40.529 377.031,39.787 365.662,74.781 
		364.385,73.364 364.386,73.363 363.046,71.877 362.585,71.361 361.906,71.506 358.083,72.318 369.453,37.324 367.171,36.584 
		355.374,72.895 323.101,79.754 323.605,82.102 360.449,74.27 360.449,74.27 361.728,73.998 362.601,74.969 362.602,74.968 
		399.804,116.289 400.269,116.803 400.949,116.658 457.289,104.684 	"/>
	<polygon fill="#00A653" points="313.46,92.332 298.421,69.852 294.535,69.852 294.535,98.484 298.167,98.484 298.167,75.984 
		313.207,98.484 317.093,98.484 317.093,69.852 313.46,69.852 	"/>
	<polygon fill="#00A653" points="286.746,81.609 271.863,81.609 271.863,69.852 268.074,69.852 268.074,98.484 271.863,98.484 
		271.863,84.988 286.746,84.988 286.746,98.484 290.535,98.484 290.535,69.852 286.746,69.852 	"/>
	<path fill="#00A653" d="M372.726,30.516c2.125,1.303,4.531,1.953,7.227,1.953c2.488,0,4.805-0.588,6.953-1.768
		c2.148-1.178,3.809-2.912,4.98-5.205c1.172-2.291,1.758-4.889,1.758-7.793c0-2.863-0.555-5.426-1.668-7.686
		c-1.113-2.258-2.73-4.02-4.855-5.283C385,3.473,382.617,2.84,379.972,2.84c-4.035,0-7.328,1.346-9.883,4.033
		c-2.551,2.689-3.828,6.41-3.828,11.162c0,2.514,0.547,4.896,1.641,7.148C368.996,27.438,370.605,29.215,372.726,30.516z
		 M373.07,8.865c1.934-1.842,4.242-2.764,6.922-2.764c1.891,0,3.594,0.479,5.109,1.436s2.668,2.305,3.457,4.043
		s1.18,3.773,1.18,6.104c0,3.686-0.918,6.531-2.762,8.535c-1.844,2.006-4.191,3.008-7.043,3.008c-2.797,0-5.125-0.992-6.98-2.979
		c-1.855-1.984-2.785-4.703-2.785-8.154C370.167,13.785,371.136,10.709,373.07,8.865z"/>
</g>
<g>
	<polygon fill="#006CD9" points="110.384,194.941 98.823,140.557 98.824,140.557 98.408,138.602 98.226,137.75 97.361,137.658 
		42.066,131.846 42.066,131.846 40.078,131.637 39.208,131.545 38.853,132.342 24.734,164.059 26.925,165.035 40.233,135.145 
		40.234,135.145 40.692,134.115 95.119,139.836 95.119,139.836 96.241,139.954 96.476,141.059 96.476,141.059 108.037,195.441 	"/>
	<polygon fill="#006CD9" points="34.166,202.949 58.523,224.887 60.13,223.098 35.773,201.168 	"/>
	<path fill="#006CD9" d="M23.691,172.285c-2.123-1.266-4.506-1.891-7.148-1.891c-4.037,0-7.332,1.344-9.883,4.031
		c-2.553,2.688-3.828,6.406-3.828,11.164c0,2.508,0.547,4.891,1.641,7.148c1.092,2.25,2.701,4.023,4.824,5.328
		c2.121,1.305,4.529,1.953,7.225,1.953c2.488,0,4.805-0.586,6.955-1.766c2.148-1.18,3.809-2.914,4.98-5.203
		c1.172-2.297,1.758-4.891,1.758-7.797c0-2.867-0.559-5.422-1.672-7.688C27.429,175.309,25.812,173.551,23.691,172.285z
		 M23.542,193.77c-1.842,2.008-4.188,3.008-7.039,3.008c-2.801,0-5.129-0.992-6.984-2.977s-2.783-4.703-2.783-8.156
		c0-4.312,0.967-7.383,2.9-9.227s4.242-2.766,6.926-2.766c1.887,0,3.59,0.477,5.105,1.438c1.518,0.953,2.67,2.305,3.457,4.039
		c0.789,1.742,1.182,3.773,1.182,6.109C26.306,188.918,25.386,191.762,23.542,193.77z"/>
</g>
</svg>
