<?xml version="1.0" encoding="UTF-8"?>
<svg width="123.12pt" version="1.1" xmlns="http://www.w3.org/2000/svg" height="94.08pt" viewBox="0 0 123.12 94.08" xmlns:xlink="http://www.w3.org/1999/xlink">
 <defs>
  <clipPath id="Clip0">
   <path d="M0 0 L118.311 0 L118.311 89.2675 L0 89.2675 L0 0 Z" transform="translate(0.360594, 0.36103)"/>
  </clipPath>
 </defs>
 <g id="Background">
  <g id="Group1" clip-path="url(#Clip0)">
   <path style="fill:#000000; fill-rule:evenodd;stroke:none;" d="M0 6.88945 L0 0 L0.934634 0 L4.55106 5.40911 L4.55106 0 L5.42464 0 L5.42464 6.88945 L4.49 6.88945 L0.873578 1.47564 L0.873578 6.88945 L0 6.88945 Z" transform="translate(49.236, 10.916)"/>
   <path style="fill:#000000; fill-rule:evenodd;stroke:none;" d="M0 6.88945 L0 0 L0.934634 0 L4.55106 5.40911 L4.55106 0 L5.42464 0 L5.42464 6.88945 L4.49 6.88945 L0.873578 1.47564 L0.873578 6.88945 L0 6.88945 Z" transform="translate(61.4999, 37.1429)"/>
   <path style="fill:#000000; fill-rule:evenodd;stroke:none;" d="M0 6.88945 L0 0 L0.934634 0 L4.55106 5.40911 L4.55106 0 L5.42464 0 L5.42464 6.88945 L4.49 6.88945 L0.873578 1.47564 L0.873578 6.88945 L0 6.88945 Z" transform="translate(82.1802, 50.136)"/>
   <path style="fill:#000000; fill-rule:evenodd;stroke:none;" d="M0 4.79348 L0.859488 4.71829 C0.900192 5.06292 0.994908 5.34567 1.14364 5.56654 C1.29236 5.78742 1.52328 5.966 1.83639 6.10229 C2.1495 6.23857 2.50175 6.30671 2.89314 6.30671 C3.24069 6.30671 3.54754 6.25502 3.81368 6.15163 C4.07983 6.04824 4.27787 5.90647 4.40781 5.72633 C4.53775 5.54618 4.60272 5.34958 4.60272 5.13654 C4.60272 4.92036 4.5401 4.7316 4.41486 4.57025 C4.28961 4.4089 4.08296 4.2734 3.7949 4.16375 C3.61016 4.09169 3.20155 3.97968 2.56907 3.82773 C1.93659 3.67578 1.49354 3.53245 1.23992 3.39773 C0.911151 3.22542 0.666142 3.01159 0.50489 2.75625 C0.343639 2.50091 0.263013 2.21503 0.263013 1.89859 C0.263013 1.55083 0.361642 1.22578 0.558902 0.923449 C0.756161 0.621116 1.04422 0.391624 1.42309 0.234974 C1.80195 0.0783248 2.22308 0 2.68649 0 C3.19686 0 3.64695 0.082241 4.03678 0.246723 C4.4266 0.411205 4.7264 0.653229 4.93618 0.972794 C5.14597 1.29236 5.25869 1.65422 5.27434 2.05838 L4.40077 2.12417 C4.3538 1.68868 4.1949 1.35972 3.92406 1.13728 C3.65322 0.914834 3.25322 0.803613 2.72406 0.803613 C2.17299 0.803613 1.77142 0.904652 1.51937 1.10673 C1.26731 1.30881 1.14129 1.5524 1.14129 1.8375 C1.14129 2.08501 1.23052 2.28865 1.409 2.44843 C1.58434 2.60822 2.04226 2.77191 2.78277 2.93953 C3.52327 3.10715 4.0313 3.25361 4.30683 3.37893 C4.70761 3.56378 5.0035 3.79797 5.1945 4.08151 C5.3855 4.36504 5.481 4.69166 5.481 5.06135 C5.481 5.42791 5.3761 5.77332 5.16632 6.09759 C4.95654 6.42185 4.65517 6.67406 4.26221 6.8542 C3.86926 7.03435 3.42699 7.12442 2.93541 7.12442 C2.31232 7.12442 1.79021 7.03357 1.36908 6.85185 C0.947942 6.67014 0.61761 6.39679 0.378081 6.03179 C0.138551 5.6668 0.0125244 5.25403 0 4.79348 Z" transform="translate(74.906, 81.5389)"/>
   <path style="fill:#000000; fill-rule:evenodd;stroke:none;" d="M0 3.6562 C0 2.51266 0.306848 1.61741 0.920544 0.970444 C1.53424 0.323481 2.32641 0 3.29705 0 C3.93267 0 4.50566 0.15195 5.01603 0.45585 C5.5264 0.759751 5.91544 1.18349 6.18315 1.72706 C6.45086 2.27064 6.58471 2.88705 6.58471 3.57631 C6.58471 4.27497 6.44381 4.9 6.16201 5.45141 C5.88021 6.00281 5.481 6.42028 4.96436 6.70382 C4.44773 6.98736 3.8904 7.12912 3.29236 7.12912 C2.64422 7.12912 2.06496 6.97247 1.55459 6.65918 C1.04422 6.34588 0.657532 5.91822 0.394519 5.37621 C0.131506 4.83421 0 4.26087 0 3.6562 Z M0.939331 3.6703 C0.939331 4.50054 1.16242 5.15456 1.6086 5.63234 C2.05479 6.11012 2.61447 6.34901 3.28766 6.34901 C3.97337 6.34901 4.53775 6.10777 4.9808 5.62529 C5.42385 5.14281 5.64538 4.45825 5.64538 3.57161 C5.64538 3.01081 5.55066 2.52128 5.36123 2.10302 C5.1718 1.68477 4.8947 1.3605 4.52992 1.13023 C4.16515 0.899952 3.75576 0.784815 3.30175 0.784815 C2.65674 0.784815 2.10175 1.00647 1.63678 1.44979 C1.17182 1.89311 0.939331 2.63328 0.939331 3.6703 Z" transform="translate(19.8715, 8.62826)"/>
   <path style="fill:#000000; fill-rule:evenodd;stroke:none;" d="M0 3.6562 C0 2.51266 0.306848 1.61741 0.920544 0.970444 C1.53424 0.323481 2.32641 0 3.29705 0 C3.93267 0 4.50566 0.15195 5.01603 0.45585 C5.5264 0.759751 5.91544 1.18349 6.18315 1.72706 C6.45086 2.27064 6.58471 2.88705 6.58471 3.57631 C6.58471 4.27497 6.44381 4.9 6.16201 5.45141 C5.88021 6.00281 5.481 6.42028 4.96436 6.70382 C4.44773 6.98736 3.8904 7.12912 3.29236 7.12912 C2.64422 7.12912 2.06496 6.97247 1.55459 6.65918 C1.04422 6.34588 0.657532 5.91822 0.394519 5.37621 C0.131506 4.83421 0 4.26087 0 3.6562 Z M0.939331 3.6703 C0.939331 4.50054 1.16242 5.15456 1.6086 5.63234 C2.05479 6.11012 2.61447 6.34901 3.28766 6.34901 C3.97337 6.34901 4.53775 6.10777 4.9808 5.62529 C5.42385 5.14281 5.64538 4.45825 5.64538 3.57161 C5.64538 3.01081 5.55066 2.52128 5.36123 2.10302 C5.1718 1.68477 4.8947 1.3605 4.52992 1.13023 C4.16515 0.899952 3.75576 0.784815 3.30175 0.784815 C2.65674 0.784815 2.10175 1.00647 1.63678 1.44979 C1.17182 1.89311 0.939331 2.63328 0.939331 3.6703 Z" transform="translate(3.51967, 32.449)"/>
   <path style="fill:#000000; fill-rule:evenodd;stroke:none;" d="M0 6.88945 L0 0 L0.911151 0 L0.911151 2.82909 L4.49 2.82909 L4.49 0 L5.40115 0 L5.40115 6.88945 L4.49 6.88945 L4.49 3.6421 L0.911151 3.6421 L0.911151 6.88945 L0 6.88945 Z" transform="translate(11.7604, 32.5712)"/>
   <path style="fill:none;stroke:#000000; stroke-width:0.721624; stroke-linecap:round; stroke-linejoin:bevel; stroke-dasharray:none;" d="M0 0 L14.1877 1.20307 " transform="translate(31.5014, 0.721841)"/>
   <path style="fill:none;stroke:#000000; stroke-width:0.721624; stroke-linecap:round; stroke-linejoin:bevel; stroke-dasharray:none;" d="M0 0 L3.8475 7.69964 " transform="translate(45.6891, 1.92491)"/>
   <path style="fill:none;stroke:#000000; stroke-width:0.721624; stroke-linecap:round; stroke-linejoin:bevel; stroke-dasharray:none;" d="M0 0 L9.85922 0.721841 " transform="translate(56.5102, 15.1587)"/>
   <path style="fill:none;stroke:#000000; stroke-width:0.721624; stroke-linecap:round; stroke-linejoin:bevel; stroke-dasharray:none;" d="M0 0 L6.25219 13.2338 " transform="translate(66.3694, 15.8805)"/>
   <path style="fill:none;stroke:#000000; stroke-width:0.721624; stroke-linecap:round; stroke-linejoin:bevel; stroke-dasharray:none;" d="M4.80938 0 L0 6.73719 " transform="translate(67.8122, 29.1143)"/>
   <path style="fill:none;stroke:#000000; stroke-width:0.721624; stroke-linecap:round; stroke-linejoin:bevel; stroke-dasharray:none;" d="M9.61875 0.721841 L0 0 " transform="translate(50.0175, 39.7013)"/>
   <path style="fill:none;stroke:#000000; stroke-width:0.721624; stroke-linecap:round; stroke-linejoin:bevel; stroke-dasharray:none;" d="M6.25219 12.9931 L0 0 " transform="translate(43.7653, 26.7081)"/>
   <path style="fill:none;stroke:#000000; stroke-width:0.721624; stroke-linecap:round; stroke-linejoin:bevel; stroke-dasharray:none;" d="M4.80938 0 L0 6.73719 " transform="translate(43.7653, 19.9709)"/>
   <path style="fill:none;stroke:#000000; stroke-width:0.721624; stroke-linecap:round; stroke-linejoin:bevel; stroke-dasharray:none;" d="M0 0 L3.8475 7.69964 " transform="translate(66.8503, 46.1979)"/>
   <path style="fill:none;stroke:#000000; stroke-width:0.721624; stroke-linecap:round; stroke-linejoin:bevel; stroke-dasharray:none;" d="M0 0 L9.61875 0 " transform="translate(70.6978, 53.8975)"/>
   <path style="fill:none;stroke:#000000; stroke-width:0.721624; stroke-linecap:round; stroke-linejoin:bevel; stroke-dasharray:none;" d="M0 0 L9.13781 0 " transform="translate(71.1787, 56.5442)"/>
   <path style="fill:none;stroke:#000000; stroke-width:0.721624; stroke-linecap:round; stroke-linejoin:bevel; stroke-dasharray:none;" d="M0 0 L4.80938 6.01535 " transform="translate(89.2139, 59.191)"/>
   <path style="fill:none;stroke:#000000; stroke-width:0.721624; stroke-linecap:round; stroke-linejoin:bevel; stroke-dasharray:none;" d="M0 4.09043 L13.7067 0 " transform="translate(94.0233, 61.1159)"/>
   <path style="fill:none;stroke:#000000; stroke-width:0.721624; stroke-linecap:round; stroke-linejoin:bevel; stroke-dasharray:none;" d="M0 3.36859 L11.5425 0 " transform="translate(95.947, 64.0033)"/>
   <path style="fill:none;stroke:#000000; stroke-width:0.721624; stroke-linecap:round; stroke-linejoin:bevel; stroke-dasharray:none;" d="M0 0 L10.5806 9.86517 " transform="translate(107.73, 61.1159)"/>
   <path style="fill:none;stroke:#000000; stroke-width:0.721624; stroke-linecap:round; stroke-linejoin:bevel; stroke-dasharray:none;" d="M3.12609 0 L0 13.9556 " transform="translate(115.185, 70.9811)"/>
   <path style="fill:none;stroke:#000000; stroke-width:0.721624; stroke-linecap:round; stroke-linejoin:bevel; stroke-dasharray:none;" d="M2.64516 0 L0 11.7901 " transform="translate(112.78, 71.4623)"/>
   <path style="fill:none;stroke:#000000; stroke-width:0.721624; stroke-linecap:round; stroke-linejoin:bevel; stroke-dasharray:none;" d="M13.9472 0 L0 4.33105 " transform="translate(101.237, 84.9367)"/>
   <path style="fill:none;stroke:#000000; stroke-width:0.721624; stroke-linecap:round; stroke-linejoin:bevel; stroke-dasharray:none;" d="M10.3402 9.86517 L0 0 " transform="translate(90.8972, 79.4026)"/>
   <path style="fill:none;stroke:#000000; stroke-width:0.721624; stroke-linecap:round; stroke-linejoin:bevel; stroke-dasharray:none;" d="M8.65687 8.18087 L0 0 " transform="translate(93.5423, 78.1995)"/>
   <path style="fill:none;stroke:#000000; stroke-width:0.721624; stroke-linecap:round; stroke-linejoin:bevel; stroke-dasharray:none;" d="M3.12609 0 L0 14.1962 " transform="translate(90.8972, 65.2063)"/>
   <path style="fill:none;stroke:#000000; stroke-width:0.721624; stroke-linecap:round; stroke-linejoin:bevel; stroke-dasharray:none;" d="M8.89734 0 L0 4.09043 " transform="translate(81.9998, 79.4026)"/>
   <path style="fill:none;stroke:#000000; stroke-width:0.721624; stroke-linecap:round; stroke-linejoin:bevel; stroke-dasharray:none;" d="M8.65687 4.33105 L0 0 " transform="translate(64.6861, 79.1619)"/>
   <path style="fill:none;stroke:#000000; stroke-width:0.721624; stroke-linecap:round; stroke-linejoin:bevel; stroke-dasharray:none;" d="M10.5806 0 L0 9.86517 " transform="translate(54.1055, 79.1619)"/>
   <path style="fill:none;stroke:#000000; stroke-width:0.721624; stroke-linecap:round; stroke-linejoin:bevel; stroke-dasharray:none;" d="M8.89734 0 L0 8.18087 " transform="translate(53.1436, 78.1995)"/>
   <path style="fill:none;stroke:#000000; stroke-width:0.721624; stroke-linecap:round; stroke-linejoin:bevel; stroke-dasharray:none;" d="M13.7067 4.33105 L0 0 " transform="translate(40.3988, 84.6961)"/>
   <path style="fill:none;stroke:#000000; stroke-width:0.721624; stroke-linecap:round; stroke-linejoin:bevel; stroke-dasharray:none;" d="M3.12609 13.9556 L0 0 " transform="translate(37.2727, 70.7405)"/>
   <path style="fill:none;stroke:#000000; stroke-width:0.721624; stroke-linecap:round; stroke-linejoin:bevel; stroke-dasharray:none;" d="M2.64516 11.7901 L0 0 " transform="translate(40.1583, 71.2217)"/>
   <path style="fill:none;stroke:#000000; stroke-width:0.721624; stroke-linecap:round; stroke-linejoin:bevel; stroke-dasharray:none;" d="M0 9.86517 L10.5806 0 " transform="translate(37.2727, 60.8753)"/>
   <path style="fill:none;stroke:#000000; stroke-width:0.721624; stroke-linecap:round; stroke-linejoin:bevel; stroke-dasharray:none;" d="M0 0 L13.7067 4.33105 " transform="translate(47.8533, 60.8753)"/>
   <path style="fill:none;stroke:#000000; stroke-width:0.721624; stroke-linecap:round; stroke-linejoin:bevel; stroke-dasharray:none;" d="M0 0 L11.5425 3.60921 " transform="translate(48.0938, 63.7627)"/>
   <path style="fill:none;stroke:#000000; stroke-width:0.721624; stroke-linecap:round; stroke-linejoin:bevel; stroke-dasharray:none;" d="M9.13781 0 L0 11.3088 " transform="translate(61.56, 53.8975)"/>
   <path style="fill:none;stroke:#000000; stroke-width:0.721624; stroke-linecap:round; stroke-linejoin:bevel; stroke-dasharray:none;" d="M3.12609 13.9556 L0 0 " transform="translate(61.56, 65.2063)"/>
   <path style="fill:none;stroke:#000000; stroke-width:0.721624; stroke-linecap:round; stroke-linejoin:bevel; stroke-dasharray:none;" d="M4.80937 0 L0 6.73719 " transform="translate(26.692, 0.721841)"/>
   <path style="fill:none;stroke:#000000; stroke-width:0.721624; stroke-linecap:round; stroke-linejoin:bevel; stroke-dasharray:none;" d="M9.37828 0.721841 L0 0 " transform="translate(8.89734, 11.5495)"/>
   <path style="fill:none;stroke:#000000; stroke-width:0.721624; stroke-linecap:round; stroke-linejoin:bevel; stroke-dasharray:none;" d="M8.17594 0 L0 11.7901 " transform="translate(0.721406, 11.5495)"/>
   <path style="fill:none;stroke:#000000; stroke-width:0.721624; stroke-linecap:round; stroke-linejoin:bevel; stroke-dasharray:none;" d="M0 0 L3.8475 7.94026 " transform="translate(0.721406, 23.3395)"/>
  </g>
 </g>
</svg>
