<?xml version="1.0" encoding="UTF-8" standalone="no"?>
<!-- Created with Inkscape (http://www.inkscape.org/) -->
<svg
   width="206.27087mm"
   height="275.68115mm"
   viewBox="0 0 206.27087 275.68115"
   version="1.1"
   id="svg5"
   xml:space="preserve"
   inkscape:version="1.2.1 (9c6d41e410, 2022-07-14)"
   sodipodi:docname="Waist to hip ratio-en.svg"
   xmlns:inkscape="http://www.inkscape.org/namespaces/inkscape"
   xmlns:sodipodi="http://sodipodi.sourceforge.net/DTD/sodipodi-0.dtd"
   xmlns="http://www.w3.org/2000/svg"
   xmlns:svg="http://www.w3.org/2000/svg">
     <defs
     id="defs2" />
   <g
     inkscape:groupmode="layer"
     id="layer3"
     inkscape:label="Draw"
     transform="translate(-1.6474601,-9.6563434)"
     style="display:inline"
     sodipodi:insensitive="true">
   <path
       style="fill:#ffd0be;fill-opacity:1;fill-rule:evenodd;stroke:#000000;stroke-width:0.264583px;stroke-linecap:butt;stroke-linejoin:miter;stroke-opacity:1"
       d="m 66.851928,21.690724 c 2.464415,0.440153 3.719791,1.176298 4.671848,2.447159 1.353003,1.806067 1.80423,4.140674 2.002222,6.229132 0.322623,3.403087 1.446046,6.441281 1.446046,9.899869 0,0 -0.268386,2.696888 0,4.004442 0.340661,1.659673 2.378841,2.879464 2.002221,4.671849 -0.426013,2.027453 -0.72216,4.228062 -2.002221,5.116785 -2.552544,-0.03509 -5.080636,-0.216903 -7.341476,-2.002219 0.572137,3.177909 1.30242,5.918186 2.447161,7.341476 1.109824,1.379876 2.295872,2.370483 3.78197,2.669627 3.97983,0.801121 9.285925,2.78672 12.040315,4.42702 2.258096,1.344746 3.554161,2.198985 4.004442,3.559503 0,0 1.928849,4.990293 2.512318,7.590937 1.013669,4.51813 0.740308,7.645609 1.242664,11.45252 0.441817,3.348142 0.840108,6.710964 1.557283,10.011103 0.466159,2.145073 1.779753,6.340363 1.779753,6.340363 0.528406,1.88244 0.854159,3.55951 1.112345,5.33926 0.260998,1.79913 -0.745666,12.75149 -0.667409,19.13233 0.02336,1.90506 0.476278,2.47045 0.339293,4.37073 -0.10855,1.50581 -0.636463,3.65723 -0.636463,3.65723 l -0.147766,10.2145 -2.078561,4.36841 -2.669041,2.26619 c -1.570243,0.47993 -2.505544,0.59704 -3.038813,0.48441 -0.667611,-0.78413 0.227234,-1.17764 0.656229,-1.68761 l 3.402193,-2.69662 0.590258,-2.96602 -1.089177,-3.77321 c -0.032,-1.1305 -1.046161,-1.34866 -1.446049,-0.27808 l -0.556172,4.72747 c -0.49487,0.92472 -1.090508,1.39599 -2.002219,0.44493 l -0.314875,-4.72311 c -0.08638,-1.14847 0.325205,-2.29693 1.128411,-3.4454 0,0 1.941478,-3.59359 2.634733,-5.56894 0.5956,-1.6971 -0.22247,-5.22803 -0.22247,-5.22803 0,0 -1.788412,-9.06087 -2.661125,-12.56779 -0.304463,-1.22346 -0.762552,-2.42064 -0.898377,-3.67408 -0.175323,-1.61793 -0.219452,-3.11028 -0.433759,-4.72351 -0.472021,-3.55321 -2.355885,-6.8429 -2.675217,-8.1606 L 81.288695,84.317659 c -0.220396,5.237234 0.314223,11.481155 -1.031374,15.218122 l -2.033303,10.549009 c -0.563393,2.92294 -0.04768,5.84515 0.741288,8.58332 l 2.569573,8.91784 c 0.650226,2.25665 2.169961,5.65877 2.780863,11.23469 0,0 -0.387232,11.89783 -1.112345,17.79752 -0.699083,5.6879 -1.779753,17.35258 -1.779753,17.35258 l -2.669626,17.90876 v 7.119 c 1.491045,6.33979 0.71948,8.60688 0.889875,12.5695 l -0.889876,7.56394 -0.177978,18.68782 c 0.485542,1.93256 0.168188,4.53773 0.761141,6.01414 l 3.198808,3.99654 3.92063,3.09818 c 0,0 1.122934,0.93767 1.084924,1.57367 -0.05015,0.83912 -1.668518,1.41906 -1.668518,1.41906 -1.81683,1.04868 -3.240388,1.46553 -5.057218,1.25616 -1.354545,-1.31267 -3.015221,-1.55191 -4.535575,-3.85944 -0.208541,-0.31651 -0.343187,-0.64192 -1.07338,-0.90282 -1.114891,-0.0177 -1.821422,-0.31855 -2.988743,-0.65085 -0.345833,-0.0191 -0.609252,-0.36791 -0.851064,-0.80311 -0.300189,-0.82456 -0.102015,-1.57793 -0.06574,-2.35443 0.582053,-1.89098 1.599369,-3.00333 1.890988,-4.89432 l -2.44716,-11.34592 c 0,0 -1.870187,-8.66853 -2.675216,-13.32115 -0.617125,-3.56664 -1.425796,-7.17576 -1.223579,-10.78974 0.14874,-2.65825 0.953878,-8.29767 0.953878,-8.29767 l -1.9494,-11.75153 -2.382,-22.32555 -1.254999,-12.81106 -0.414234,0.11799 -1.019035,12.77172 -2.224691,22.2469 -1.9494,11.75153 c 0,0 0.805138,5.63942 0.953878,8.29767 0.202217,3.61398 -0.606454,7.2231 -1.223579,10.78974 -0.805029,4.65262 -2.675216,13.32115 -2.675216,13.32115 l -2.44716,11.34592 c 0.291619,1.89099 1.308935,3.00334 1.890988,4.89432 0.03627,0.7765 0.234449,1.52987 -0.06574,2.35443 -0.241812,0.4352 -0.505231,0.78401 -0.851064,0.80311 -1.167321,0.3323 -1.873852,0.63315 -2.988743,0.65085 -0.730193,0.2609 -0.864839,0.58631 -1.07338,0.90282 -1.520354,2.30753 -3.18103,2.54677 -4.535575,3.85944 -1.81683,0.20937 -3.240388,-0.20748 -5.057218,-1.25616 0,0 -1.618368,-0.57994 -1.668518,-1.41906 -0.03801,-0.636 1.084924,-1.57367 1.084924,-1.57367 l 3.92063,-3.09818 3.198808,-3.99654 c 0.592953,-1.47641 0.275599,-4.08158 0.761141,-6.01414 L 45.652654,219.13194 44.762778,211.568 c 0.170395,-3.96262 -0.60117,-6.22971 0.889875,-12.5695 v -7.119 l -2.669626,-17.90876 c 0,0 -1.414374,-11.33097 -2.113457,-17.01887 -0.725113,-5.89969 -1.112345,-17.79752 -1.112345,-17.79752 -0.0565,-5.01976 0.691657,-8.60666 1.557284,-10.78975 l 3.969547,-10.01111 c 1.050337,-2.64893 1.277991,-5.65536 0.741288,-8.58332 L 44.14935,99.535781 C 42.803753,95.798814 43.338372,89.554893 43.117976,84.317659 l -4.033748,16.645091 c -0.319332,1.3177 -2.203196,4.60739 -2.675217,8.1606 -0.214307,1.61323 -0.258436,3.10558 -0.433759,4.72351 -0.135825,1.25344 -0.593914,2.45062 -0.898377,3.67408 -0.872713,3.50692 -2.661126,12.56779 -2.661126,12.56779 0,0 -0.81807,3.53093 -0.22247,5.22803 0.693256,1.97535 2.634734,5.56894 2.634734,5.56894 0.803206,1.14847 2.215901,2.1857 2.129521,3.33417 l -0.314875,4.72311 c -0.911711,0.95106 -2.508459,0.59102 -3.003329,-0.3337 l -0.556172,-4.72747 c -0.399889,-1.07058 -1.41405,-0.85242 -1.44605,0.27808 l -1.089177,3.77321 0.590258,2.96602 3.402194,2.69662 c 0.428995,0.50997 1.32384,0.90348 0.656229,1.68761 -0.533269,0.11263 -1.46857,-0.004 -3.038814,-0.48441 l -2.669041,-2.26619 -2.078561,-4.36841 -0.147766,-10.2145 c 0,0 -0.527913,-2.15142 -0.636463,-3.65723 -0.136985,-1.90028 0.315933,-2.46567 0.339293,-4.37073 0.07826,-6.38084 -0.928407,-17.3332 -0.667409,-19.13233 0.258186,-1.77975 0.583939,-3.45682 1.112345,-5.33926 0,0 1.313594,-4.19529 1.779753,-6.340363 0.717175,-3.300139 1.115466,-6.662961 1.557283,-10.011103 0.502356,-3.806911 0.228995,-6.93439 1.242664,-11.45252 0.583469,-2.600644 2.512319,-7.590937 2.512319,-7.590937 0.450281,-1.360518 1.746346,-2.214757 4.004442,-3.559503 2.75439,-1.6403 8.060485,-3.625899 12.040315,-4.42702 1.486098,-0.299144 2.672146,-1.289751 3.78197,-2.669627 1.144741,-1.42329 1.875024,-4.163567 2.447161,-7.341476 -2.26084,1.785316 -4.788932,1.967129 -7.341476,2.002219 -1.280061,-0.888723 -1.576208,-3.089332 -2.002221,-5.116785 -0.37662,-1.792385 1.66156,-3.012176 2.002221,-4.671849 0.268386,-1.307554 0,-4.004442 0,-4.004442 0,-3.458588 0.567251,-6.941719 0.889874,-10.344806 0.197992,-2.088458 1.42786,-4.200597 2.780863,-6.006664 0.952057,-1.270861 2.207433,-2.007006 4.671848,-2.447159 1.389761,-0.248216 2.817941,-0.319001 4.537358,0.556173 1.719417,-0.652705 3.147597,-0.58192 4.537358,-0.333704 z"
       id="path421"
       sodipodi:nodetypes="ssssssccsssssssssssccccccccccccccscssssccssssscccccccccsccsccccccssccccccccssccccccsccscccccccccsssssccsssscsccccccccccccccsssssssssssccsssssscs" />
   <path
       style="font-variation-settings:normal;opacity:1;vector-effect:none;fill:#ffd0be;fill-opacity:1;fill-rule:evenodd;stroke:#000000;stroke-width:0.264583px;stroke-linecap:butt;stroke-linejoin:miter;stroke-miterlimit:4;stroke-dasharray:none;stroke-dashoffset:0;stroke-opacity:1;-inkscape-stroke:none;stop-color:#000000;stop-opacity:1"
       d="m 165.62815,21.690724 c 2.46442,0.440153 3.71979,1.176298 4.67185,2.447159 1.353,1.806067 1.80423,4.140674 2.00222,6.229132 0.32262,3.403087 1.44605,6.441281 1.44605,9.899869 0,0 -0.26839,2.696888 0,4.004442 0.34066,1.659673 2.37884,2.879464 2.00222,4.671849 -0.42601,2.027453 -0.72216,4.228062 -2.00222,5.116785 -2.55255,-0.03509 -5.08064,-0.216903 -7.34148,-2.002219 0.57214,3.177909 1.30242,5.918186 2.44716,7.341476 1.10983,1.379876 2.29587,2.370483 3.78197,2.669627 3.97983,0.801121 9.28593,2.78672 12.04032,4.42702 2.25809,1.344746 3.55416,2.198985 4.00444,3.559503 0,0 1.92885,4.990293 2.51232,7.590937 1.01367,4.51813 0.74031,7.645609 1.24266,11.45252 0.44182,3.348142 0.84011,6.710964 1.55728,10.011103 0.46616,2.145073 1.77976,6.340363 1.77976,6.340363 0.5284,1.88244 0.85416,3.55951 1.11234,5.33926 0.261,1.79913 -0.74566,12.75149 -0.66741,19.13233 0.0234,1.90506 0.47628,2.47045 0.3393,4.37073 -0.10855,1.50581 -0.63647,3.65723 -0.63647,3.65723 l -0.14776,10.2145 -2.07856,4.36841 -2.66904,2.26619 c -1.57025,0.47993 -2.50555,0.59704 -3.03882,0.48441 -0.66761,-0.78413 0.22724,-1.17764 0.65623,-1.68761 l 3.40219,-2.69662 0.59026,-2.96602 -1.08917,-3.77321 c -0.032,-1.1305 -1.04617,-1.34866 -1.44605,-0.27808 l -0.55618,4.72747 c -0.49487,0.92472 -1.0905,1.39599 -2.00221,0.44493 l -0.31488,-4.72311 c -0.0864,-1.14847 0.32521,-2.29693 1.12841,-3.4454 0,0 1.94148,-3.59359 2.63473,-5.56894 0.5956,-1.6971 -0.22247,-5.22803 -0.22247,-5.22803 0,0 -1.78841,-9.06087 -2.66112,-12.56779 -0.30446,-1.22346 -0.76255,-2.42064 -0.89838,-3.67408 -0.17532,-1.61793 -0.21945,-3.11028 -0.43376,-4.72351 -0.47202,-3.55321 -2.35588,-6.8429 -2.67521,-8.1606 l -4.03375,-16.645091 c -0.2204,5.237234 0.31422,12.73963 0.54171,16.633901 l 0.0117,9.44785 c 0.004,2.97674 0.28466,6.36653 0.42667,9.21256 l 0.44363,8.89085 c 0.11704,2.34553 1.69012,5.09005 1.67969,10.44814 0,0 -0.38723,11.89783 -1.11235,17.79752 -0.69908,5.6879 -1.85609,17.22226 -1.85609,17.22226 l -2.66963,17.90876 v 7.119 c 1.49105,6.33979 0.71948,8.60688 0.88988,12.5695 l -0.88988,7.56394 -0.17798,18.68782 c 0.48554,1.93256 0.16819,4.53773 0.76114,6.01414 l 3.19881,3.99654 3.92063,3.09818 c 0,0 1.12294,0.93767 1.08493,1.57367 -0.0502,0.83912 -1.66852,1.41906 -1.66852,1.41906 -1.81683,1.04868 -3.24039,1.46553 -5.05722,1.25616 -1.35455,-1.31267 -3.01522,-1.55191 -4.53558,-3.85944 -0.20854,-0.31651 -0.34318,-0.64192 -1.07338,-0.90282 -1.11489,-0.0177 -1.82142,-0.31855 -2.98874,-0.65085 -0.34583,-0.0191 -0.60925,-0.36791 -0.85106,-0.80311 -0.30019,-0.82456 -0.10202,-1.57793 -0.0657,-2.35443 0.58205,-1.89098 1.59937,-3.00333 1.89099,-4.89432 l -2.44716,-11.34592 c 0,0 -1.87019,-8.66853 -2.67522,-13.32115 -0.61713,-3.56664 -1.4258,-7.17576 -1.22358,-10.78974 0.14874,-2.65825 0.95388,-8.29767 0.95388,-8.29767 l -1.9494,-11.75153 -2.382,-22.32555 -1.255,-12.7887 -0.41423,0.11799 -1.01904,12.74936 -2.22469,22.2469 -1.9494,11.75153 c 0,0 0.80514,5.63942 0.95388,8.29767 0.20221,3.61398 -0.60646,7.2231 -1.22358,10.78974 -0.80503,4.65262 -2.67522,13.32115 -2.67522,13.32115 l -2.44716,11.34592 c 0.29162,1.89099 1.30894,3.00334 1.89099,4.89432 0.0363,0.7765 0.23445,1.52987 -0.0657,2.35443 -0.24181,0.4352 -0.50523,0.78401 -0.85106,0.80311 -1.16732,0.3323 -1.87386,0.63315 -2.98875,0.65085 -0.73019,0.2609 -0.86484,0.58631 -1.07338,0.90282 -1.52035,2.30753 -3.18103,2.54677 -4.53557,3.85944 -1.81683,0.20937 -3.24039,-0.20748 -5.05722,-1.25616 0,0 -1.61837,-0.57994 -1.66852,-1.41906 -0.038,-0.636 1.08493,-1.57367 1.08493,-1.57367 l 3.92063,-3.09818 3.1988,-3.99654 c 0.59296,-1.47641 0.2756,-4.08158 0.76115,-6.01414 l -0.17798,-18.68782 -0.88988,-7.56394 c 0.1704,-3.96262 -0.60117,-6.22971 0.88988,-12.5695 v -7.119 l -2.66963,-17.90876 c 0,0 -1.31431,-11.37705 -2.0134,-17.06495 -0.72511,-5.89969 -1.11234,-17.79752 -1.11234,-17.79752 -0.16774,-4.25692 1.28885,-8.4567 1.55728,-10.78975 l 1.03792,-9.02117 c 0.3257,-2.83089 0.17732,-5.92262 0.26936,-8.89794 l 0.32633,-10.54901 c -0.40173,-4.051586 0.2902,-10.295507 0.0698,-15.532741 l -4.03375,16.645091 c -0.31933,1.3177 -2.20319,4.60739 -2.67522,8.1606 -0.2143,1.61323 -0.25843,3.10558 -0.43375,4.72351 -0.13583,1.25344 -0.59392,2.45062 -0.89838,3.67408 -0.87271,3.50692 -2.66113,12.56779 -2.66113,12.56779 0,0 -0.81807,3.53093 -0.22247,5.22803 0.69326,1.97535 2.63474,5.56894 2.63474,5.56894 0.8032,1.14847 0.90017,2.13962 0.81379,3.28809 l -0.31488,4.72311 c -0.91171,0.95106 -1.19273,0.6371 -1.6876,-0.28762 l -0.55617,-4.72747 c -0.39989,-1.07058 -1.41405,-0.85242 -1.44605,0.27808 l -1.08917,3.77321 0.59025,2.96602 3.4022,2.69662 c 0.42899,0.50997 1.32384,0.90348 0.65623,1.68761 -0.53327,0.11263 -1.46857,-0.004 -3.03882,-0.48441 l -2.66904,-2.26619 -2.07856,-4.36841 -0.14777,-10.2145 c 0,0 -0.52791,-2.15142 -0.63646,-3.65723 -0.13698,-1.90028 0.31593,-2.46567 0.33929,-4.37073 0.0783,-6.38084 -0.9284,-17.3332 -0.6674,-19.13233 0.25818,-1.77975 0.58393,-3.45682 1.11234,-5.33926 0,0 1.31359,-4.19529 1.77975,-6.340363 0.71718,-3.300139 1.11547,-6.662961 1.55729,-10.011103 0.50235,-3.806911 0.22899,-6.93439 1.24266,-11.45252 0.58347,-2.600644 2.51232,-7.590937 2.51232,-7.590937 0.45028,-1.360518 1.74634,-2.214757 4.00444,-3.559503 2.75439,-1.6403 8.06049,-3.625899 12.04032,-4.42702 1.48609,-0.299144 2.67214,-1.289751 3.78197,-2.669627 1.14474,-1.42329 1.87502,-4.163567 2.44716,-7.341476 -2.26084,1.785316 -4.78894,1.967129 -7.34148,2.002219 -1.28006,-0.888723 -1.57621,-3.089332 -2.00222,-5.116785 -0.37662,-1.792385 1.66156,-3.012176 2.00222,-4.671849 0.26839,-1.307554 0,-4.004442 0,-4.004442 0,-3.458588 0.56725,-6.941719 0.88987,-10.344806 0.198,-2.088458 1.42786,-4.200597 2.78087,-6.006664 0.95205,-1.270861 2.20743,-2.007006 4.67185,-2.447159 1.38976,-0.248216 2.81794,-0.319001 4.53735,0.556173 1.71942,-0.652705 3.1476,-0.58192 4.53736,-0.333704 z"
       id="path2979"
       sodipodi:nodetypes="ssssssccsssssssssssccccccccccccccscssssccssssscccccccccsccsccccccssccccccccssccccccsccscccccccccsssssccsssscsccccccccccccccsssssssssssccsssssscss" />
     </g>
     <g
     inkscape:groupmode="layer"
     id="layer5"
     inkscape:label="Circles"
     transform="translate(-1.6474601,-9.6563434)"
     style="display:inline"
     sodipodi:insensitive="true"><ellipse
       style="color:#000000;overflow:visible;fill:none;fill-opacity:1;stroke:#ff0000;stroke-width:1;stroke-dasharray:none;stroke-opacity:1;paint-order:markers fill stroke;stop-color:#000000"
       id="path3088"
       cx="62.019169"
       cy="114.04926"
       rx="15.730931"
       ry="2.6742582" /><ellipse
       style="color:#000000;font-variation-settings:normal;overflow:visible;opacity:1;vector-effect:none;fill:none;fill-opacity:1;stroke:#ff0000;stroke-width:1;stroke-linecap:butt;stroke-linejoin:miter;stroke-miterlimit:4;stroke-dasharray:none;stroke-dashoffset:0;stroke-opacity:1;-inkscape-stroke:none;paint-order:markers fill stroke;stop-color:#000000;stop-opacity:1"
       id="path3088-7"
       cx="62.019169"
       cy="138.51277"
       rx="22.465946"
       ry="3.819211" /><ellipse
       style="color:#000000;font-variation-settings:normal;overflow:visible;opacity:1;vector-effect:none;fill:none;fill-opacity:1;stroke:#ff0000;stroke-width:1;stroke-linecap:butt;stroke-linejoin:miter;stroke-miterlimit:4;stroke-dasharray:none;stroke-dashoffset:0;stroke-opacity:1;-inkscape-stroke:none;paint-order:markers fill stroke;stop-color:#000000;stop-opacity:1"
       id="path3088-7-1"
       cx="160.87193"
       cy="138.51277"
       rx="22.465946"
       ry="3.819211" /><ellipse
       style="color:#000000;font-variation-settings:normal;overflow:visible;opacity:1;vector-effect:none;fill:none;fill-opacity:1;stroke:#ff0000;stroke-width:1;stroke-linecap:butt;stroke-linejoin:miter;stroke-miterlimit:4;stroke-dasharray:none;stroke-dashoffset:0;stroke-opacity:1;-inkscape-stroke:none;paint-order:markers fill stroke;stop-color:#000000;stop-opacity:1"
       id="ellipse3143"
       cx="160.95059"
       cy="115.15041"
       rx="19.820753"
       ry="3.3695283" />
   <path
       style="fill:none;fill-rule:evenodd;stroke:#000000;stroke-width:0.4;stroke-linecap:butt;stroke-linejoin:miter;stroke-dasharray:none;stroke-opacity:1"
       d="m 19.545649,111.68962 26.585276,2.20233"
       id="path4401"
       sodipodi:nodetypes="cc" />
   <path
       style="fill:none;fill-rule:evenodd;stroke:#000000;stroke-width:0.4;stroke-linecap:butt;stroke-linejoin:miter;stroke-dasharray:none;stroke-opacity:1"
       d="m 19.702958,140.09936 19.598506,-1.68432"
       id="path4403"
       sodipodi:nodetypes="cc" />
     </g>
     <g
     inkscape:groupmode="layer"
     id="layer2"
     inkscape:label="Text"
     transform="translate(-1.6474601,-9.6563434)">
   <text
       xml:space="preserve"
       style="font-size:10.5833px;line-height:1;font-family:'Liberation Sans';-inkscape-font-specification:'Liberation Sans';letter-spacing:0px;word-spacing:0px;writing-mode:lr-tb;fill:#000000;stroke:#000000;stroke-width:0.264583px;stroke-linecap:butt;stroke-linejoin:miter;stroke-opacity:1"
       x="40.982475"
       y="273.40363"
       id="text4327"><tspan
         sodipodi:role="line"
         id="tspan4325"
         style="font-size:10.5833px;fill:#000000;stroke-width:0.264583px"
         x="40.982475"
         y="273.40363">WHR 0.7</tspan></text>
   <text
       xml:space="preserve"
       style="font-size:10.5833px;line-height:1;font-family:'Liberation Sans';-inkscape-font-specification:'Liberation Sans';letter-spacing:0px;word-spacing:0px;writing-mode:lr-tb;fill:#000000;stroke:#000000;stroke-width:0.264583px;stroke-linecap:butt;stroke-linejoin:miter;stroke-opacity:1"
       x="139.74323"
       y="273.40363"
       id="text4381"><tspan
         sodipodi:role="line"
         id="tspan4379"
         style="font-size:10.5833px;fill:#000000;stroke-width:0.264583px"
         x="139.74323"
         y="273.40363">WHR 0.9</tspan></text>
   <text
       xml:space="preserve"
       style="font-size:10.5833px;line-height:1;font-family:'Liberation Sans';-inkscape-font-specification:'Liberation Sans';letter-spacing:0px;word-spacing:0px;writing-mode:lr-tb;fill:#000000;stroke:#000000;stroke-width:0.264583px;stroke-linecap:butt;stroke-linejoin:miter;stroke-opacity:1"
       x="11.955484"
       y="114.52121"
       id="text4385"><tspan
         sodipodi:role="line"
         id="tspan4383"
         style="font-size:10.5833px;fill:#000000;stroke-width:0.264583px"
         x="11.955484"
         y="114.52121">a</tspan></text>
   <text
       xml:space="preserve"
       style="font-size:10.5833px;line-height:1;font-family:'Liberation Sans';-inkscape-font-specification:'Liberation Sans';letter-spacing:0px;word-spacing:0px;writing-mode:lr-tb;fill:#000000;stroke:#000000;stroke-width:0.264583px;stroke-linecap:butt;stroke-linejoin:miter;stroke-opacity:1"
       x="11.722941"
       y="143.0096"
       id="text4399"><tspan
         sodipodi:role="line"
         id="tspan4397"
         style="font-size:10.5833px;fill:#000000;stroke-width:0.264583px"
         x="11.722941"
         y="143.0096">b</tspan></text>
   </g>
</svg>
