<svg xmlns="http://www.w3.org/2000/svg" viewBox="0 0 640 420" role="img" aria-label="Nuchal rigidity exam">
  <rect width="640" height="420" fill="#f8fafc"/>
  <text x="320" y="42" text-anchor="middle" font-family="system-ui, -apple-system, Segoe UI, sans-serif" font-size="24" font-weight="700" fill="#0f172a">Nuchal rigidity</text>
  <text x="320" y="72" text-anchor="middle" font-family="system-ui, -apple-system, Segoe UI, sans-serif" font-size="15" fill="#475569">Resistance to passive neck flexion from meningeal irritation</text>

  <rect x="88" y="294" width="464" height="34" rx="17" fill="#cbd5e1"/>
  <rect x="118" y="238" width="332" height="64" rx="32" fill="#e2e8f0" stroke="#64748b" stroke-width="3"/>
  <path d="M356 238 C394 210 444 205 486 226 C526 246 545 281 535 311 L456 303 C464 286 454 268 432 258 C410 248 382 251 360 270 Z" fill="#e0f2fe" stroke="#0369a1" stroke-width="3"/>

  <circle cx="503" cy="202" r="50" fill="#fde68a" stroke="#92400e" stroke-width="3"/>
  <path d="M470 188 C486 169 522 166 540 190" fill="none" stroke="#92400e" stroke-width="4" stroke-linecap="round"/>
  <circle cx="488" cy="202" r="4" fill="#0f172a"/>
  <circle cx="522" cy="202" r="4" fill="#0f172a"/>
  <path d="M493 222 C505 229 519 229 531 222" fill="none" stroke="#0f172a" stroke-width="3" stroke-linecap="round"/>

  <path d="M454 244 C432 209 435 171 464 145" fill="none" stroke="#dc2626" stroke-width="10" stroke-linecap="round"/>
  <path d="M464 145 L458 180 M464 145 L493 163" fill="none" stroke="#dc2626" stroke-width="8" stroke-linecap="round"/>
  <text x="430" y="142" font-family="system-ui, -apple-system, Segoe UI, sans-serif" font-size="16" font-weight="700" fill="#dc2626">Passive flexion</text>

  <path d="M398 224 C423 204 443 197 466 197" fill="none" stroke="#0f172a" stroke-width="5" stroke-linecap="round" stroke-dasharray="10 10"/>
  <text x="118" y="214" font-family="system-ui, -apple-system, Segoe UI, sans-serif" font-size="15" font-weight="700" fill="#0f172a">Stiff neck resists flexion</text>

  <circle cx="128" cy="116" r="28" fill="#fee2e2" stroke="#dc2626" stroke-width="3"/>
  <path d="M111 116 H145 M128 99 V133" stroke="#dc2626" stroke-width="6" stroke-linecap="round"/>
  <text x="176" y="112" font-family="system-ui, -apple-system, Segoe UI, sans-serif" font-size="15" font-weight="700" fill="#0f172a">Meningitis pattern</text>
  <text x="176" y="135" font-family="system-ui, -apple-system, Segoe UI, sans-serif" font-size="13" fill="#475569">Fever + headache + photophobia</text>

  <rect x="86" y="346" width="468" height="42" rx="8" fill="#eff6ff" stroke="#bfdbfe"/>
  <text x="320" y="372" text-anchor="middle" font-family="system-ui, -apple-system, Segoe UI, sans-serif" font-size="14" fill="#1e3a8a">Step 1 clue: meningeal irritation also gives Kernig and Brudzinski signs</text>
</svg>
